<svg width="318" height="94" viewBox="0 0 318 94" fill="none" xmlns="http://www.w3.org/2000/svg">
<path d="M0.146484 78.48C0.274414 73.5334 1.40446 68.672 3.53662 63.896C5.66878 59.1626 8.09945 54.7064 10.8286 50.5273C11.9373 48.8216 12.8115 47.3078 13.4512 45.9858C14.1335 44.6639 14.5812 43.5339 14.7944 42.5957C15.1782 40.7194 15.3701 39.1416 15.3701 37.8623C15.3701 35.9434 15.1143 33.8112 14.6025 31.4658C13.835 27.7559 13.4512 24.984 13.4512 23.1504C13.4512 21.3167 13.4512 20.3359 13.4512 20.208C13.4512 16.7113 13.9842 13.6196 15.0503 10.9331C16.159 7.99072 17.9714 5.64535 20.4873 3.89697C23.0459 2.1486 26.5213 1.27441 30.9136 1.27441C34.5809 1.27441 37.5872 2.19124 39.9326 4.0249C42.3633 5.9012 43.9198 7.92676 44.6021 10.1016C45.2843 12.2764 45.6255 14.2166 45.6255 15.9224C45.6255 17.2017 45.4549 18.5876 45.1138 20.0801C44.0477 23.9606 43.5146 27.4787 43.5146 30.6343C43.5146 32.5532 43.7492 34.3442 44.2183 36.0073C45.2417 40.0158 46.9261 43.4059 49.2715 46.1777C50.4655 47.585 51.6808 48.9495 52.9175 50.2715C54.1541 51.5508 55.4548 52.7874 56.8193 53.9814C58.8662 55.7725 60.7852 57.6274 62.5762 59.5464C64.3672 61.4653 65.881 63.6401 67.1177 66.0708C68.3543 68.8 68.9727 71.5291 68.9727 74.2583C68.9727 74.8553 68.93 75.4736 68.8447 76.1133C68.8021 76.7103 68.7381 77.3073 68.6528 77.9043C67.8853 81.9128 66.1156 85.3669 63.3438 88.2666C60.5719 91.0811 57.0326 92.6589 52.7256 93H52.2778C49.0796 93 46.1159 92.1471 43.3867 90.4414C40.5296 88.6504 38.5041 86.2837 37.3101 83.3413C36.841 82.062 36.6064 80.932 36.6064 79.9512C36.6064 79.3968 36.6278 78.8211 36.6704 78.2241C36.7557 77.6271 36.841 76.9661 36.9263 76.2412C37.3101 74.109 37.502 70.527 37.502 65.4951C37.4593 63.1497 37.4167 61.2734 37.374 59.8662C37.3314 58.459 37.2887 57.3503 37.2461 56.54C37.2035 55.7298 37.1395 55.1541 37.0542 54.813C37.0116 54.4718 36.9263 54.1947 36.7983 53.9814C35.9028 52.4889 34.7088 51.7427 33.2163 51.7427C32.6619 51.7427 32.1289 51.828 31.6172 51.9985C29.3997 52.6808 27.5661 54.4505 26.1162 57.3076C25.6045 58.5016 25.3486 59.653 25.3486 60.7617C25.3486 61.3161 25.4126 61.8918 25.5405 62.4888C25.7537 63.3416 26.0736 64.2798 26.5 65.3032C26.9691 66.3267 27.5021 67.4354 28.0991 68.6294C28.4829 69.3117 28.8667 70.0793 29.2505 70.9321C30.7856 74.3009 31.5532 77.3286 31.5532 80.0151C31.5532 82.5737 30.8496 84.8125 29.4424 86.7314C26.5853 90.5693 21.5534 92.6589 14.3467 93H13.835C8.97363 93 5.47689 91.7847 3.34473 89.354C1.21257 86.8807 0.146484 83.4266 0.146484 78.9917V78.48ZM27.7153 24.8774C27.2889 25.7729 26.8625 26.8177 26.436 28.0117C26.0096 29.2057 25.7751 30.1226 25.7324 30.7622C25.6898 31.1034 25.6685 31.3805 25.6685 31.5938C25.6685 31.807 25.6685 31.9562 25.6685 32.0415C25.6685 33.0223 25.8817 33.8112 26.3081 34.4082C26.8198 35.1758 27.8006 35.5596 29.2505 35.5596C30.5298 35.5596 31.4679 35.389 32.0649 35.0479C32.7046 34.6641 33.1523 34.259 33.4082 33.8325C33.6641 33.4061 33.7707 33.001 33.728 32.6172C33.728 32.2334 33.728 32.0415 33.728 32.0415C33.728 31.1034 33.5361 30.1652 33.1523 29.2271C31.9157 25.5171 31.1055 23.4702 30.7217 23.0864C30.2952 22.66 29.9754 22.4468 29.7622 22.4468C29.2505 22.4468 28.5682 23.257 27.7153 24.8774ZM74.3457 72.7871C74.6442 70.3564 74.9214 68.1603 75.1772 66.1987C75.4757 64.2371 75.7956 62.4461 76.1367 60.8257C76.9043 57.0731 77.3094 54.2799 77.3521 52.4463C77.3947 50.6126 77.416 49.6532 77.416 49.5679C77.416 45.9432 76.6484 41.359 75.1133 35.8154C75.028 35.4743 74.9214 35.1331 74.7935 34.792C74.6655 34.4082 74.5589 34.0244 74.4736 33.6406C73.5355 30.6982 72.7892 27.8411 72.2349 25.0693C71.6805 22.2549 71.4033 19.8882 71.4033 17.9692C71.4033 16.1356 71.5526 14.4725 71.8511 12.98C72.4907 9.52588 74.3883 6.62614 77.5439 4.28076C79.8467 2.91618 82.2347 2.10596 84.708 1.8501C87.224 1.59424 89.0363 1.46631 90.145 1.46631C92.661 1.46631 94.9424 1.78613 96.9893 2.42578C104.239 5.19759 108.055 7.9694 108.439 10.7412C108.61 12.1484 108.737 13.2785 108.823 14.1313C108.908 14.9842 108.951 15.5812 108.951 15.9224C108.951 20.3573 107.032 24.984 103.194 29.8027C103.109 29.888 103.023 29.9733 102.938 30.0586C102.895 30.1439 102.831 30.2292 102.746 30.3145C102.106 31.0394 101.595 31.743 101.211 32.4253C100.827 33.0649 100.635 33.5767 100.635 33.9604C100.635 34.4295 100.785 34.8133 101.083 35.1118C101.211 35.325 101.445 35.453 101.787 35.4956C102.128 35.5382 102.789 35.5596 103.77 35.5596C104.111 35.5596 104.494 35.5596 104.921 35.5596C105.347 35.5596 105.838 35.5382 106.392 35.4956C106.691 35.453 106.968 35.4316 107.224 35.4316C107.522 35.4316 107.821 35.4316 108.119 35.4316C109.1 35.4316 110.102 35.4743 111.125 35.5596C112.149 35.6449 113.215 35.7728 114.324 35.9434C117.181 36.3271 119.739 37.18 122 38.502C124.302 39.7812 125.901 41.7002 126.797 44.2588C127.351 46.1777 127.628 48.182 127.628 50.2715C127.628 53.0433 127.117 55.8791 126.093 58.7788C124.302 63.8107 121.744 68.5654 118.417 73.043C115.091 77.5205 111.786 81.2091 108.503 84.1089C103.215 88.8423 98.9082 91.4648 95.582 91.9766C93.9189 92.2751 92.533 92.4883 91.4243 92.6162C90.3582 92.7441 89.548 92.8081 88.9937 92.8081C84.9852 92.8081 81.5951 91.5288 78.8232 88.9702C75.7529 86.1558 74.2178 81.6995 74.2178 75.6016C74.2178 75.1325 74.2178 74.6634 74.2178 74.1943C74.2604 73.7253 74.3031 73.2562 74.3457 72.7871ZM89.8892 16.6899C89.6333 17.2017 89.5054 17.9266 89.5054 18.8647C89.5054 19.0353 89.5054 19.2059 89.5054 19.3765C89.5054 19.547 89.5267 19.7389 89.5693 19.9521C89.6973 21.3594 89.9744 22.7453 90.4009 24.1099C90.8273 25.4744 91.339 26.4339 91.936 26.9883C92.4051 27.3294 92.8955 27.5 93.4072 27.5C94.0895 27.5 94.8145 27.1802 95.582 26.5405C96.9893 25.3892 98.0553 24.0672 98.7803 22.5747C99.5479 20.9543 99.9316 19.6323 99.9316 18.6089C99.9316 18.3104 99.889 17.9479 99.8037 17.5215C99.4199 16.3275 98.6737 15.4959 97.5649 15.0269C96.4562 14.6004 95.4115 14.3872 94.4307 14.3872C94.2174 14.3872 93.9829 14.4085 93.7271 14.4512C93.5138 14.4512 93.3006 14.4725 93.0874 14.5151C91.6375 14.771 90.5715 15.4959 89.8892 16.6899ZM103.833 64.0239C104.942 63.4696 105.774 62.5741 106.328 61.3374C106.925 60.0581 107.224 58.8428 107.224 57.6914C107.224 57.265 107.202 56.9451 107.16 56.7319C106.989 55.3247 106.456 54.216 105.561 53.4058C104.708 52.5529 103.642 52.1265 102.362 52.1265C100.315 52.1265 98.9722 52.7661 98.3325 54.0454C97.6502 55.2821 97.3091 56.4548 97.3091 57.5635C97.3091 58.6296 97.5223 59.7383 97.9487 60.8896C98.9295 63.2777 100.273 64.4717 101.979 64.4717C102.576 64.4717 103.194 64.3224 103.833 64.0239ZM183.854 48.0327C183.854 54.4292 183.47 60.3993 182.702 65.9429C181.977 71.4865 180.655 76.3052 178.736 80.3989C176.817 84.4927 174.195 87.7336 170.869 90.1216C167.585 92.467 163.385 93.6396 158.268 93.6396C153.193 93.6396 149.035 92.3604 145.794 89.8018C142.554 87.2005 140.038 83.6611 138.247 79.1836C136.456 74.6634 135.219 69.5249 134.537 63.7681C133.854 58.0112 133.513 51.8919 133.513 45.4102C133.513 36.7962 134.686 29.1204 137.031 22.3828C139.419 15.6025 142.49 10.2721 146.242 6.3916C149.995 2.51107 154.003 0.570801 158.268 0.570801C162.575 0.570801 166.69 2.72428 170.613 7.03125C174.451 11.2956 177.628 17.0524 180.144 24.3018C182.617 31.4658 183.854 39.3761 183.854 48.0327ZM158.268 59.9302C160.613 59.9302 162.468 58.9281 163.833 56.9238C165.197 54.9196 166.135 52.3397 166.647 49.1841C166.818 48.0754 166.945 46.9453 167.031 45.7939C167.116 44.6426 167.159 43.4699 167.159 42.2759C167.159 41.2524 167.095 39.632 166.967 37.4146C166.882 35.1545 166.434 32.4253 165.624 29.2271C164.813 26.0288 163.769 23.4489 162.489 21.4873C161.253 19.4831 159.845 18.481 158.268 18.481C157.585 18.481 156.903 18.7581 156.221 19.3125C155.538 19.8242 154.877 20.5492 154.238 21.4873C153.641 22.4255 153.065 23.5555 152.511 24.8774C151.999 26.1994 151.53 27.6493 151.104 29.2271C150.293 32.34 149.718 35.6662 149.376 39.2056C149.249 40.6554 149.185 42.1053 149.185 43.5552C149.185 45.4741 149.376 47.6916 149.76 50.2075C150.059 52.6808 150.933 54.9196 152.383 56.9238C153.747 58.9281 155.709 59.9302 158.268 59.9302ZM210.079 93.064C204.962 92.5949 201.039 91.0384 198.31 88.3945C195.58 85.708 193.917 82.8296 193.32 79.7593C192.723 76.6463 192.425 74.0664 192.425 72.0195C192.425 69.8874 192.617 67.7126 193 65.4951C194.28 59.6104 194.919 54.8343 194.919 51.167C194.919 50.4847 194.898 49.8664 194.855 49.312C194.813 48.715 194.749 48.1606 194.664 47.6489C194.024 43.7684 192.979 40.5701 191.529 38.0542C190.676 36.4338 189.888 34.6214 189.163 32.6172C188.48 30.613 187.99 28.1183 187.691 25.1333C187.649 24.8348 187.627 24.5363 187.627 24.2378C187.627 23.9393 187.627 23.6408 187.627 23.3423C187.627 19.3765 188.267 15.6452 189.546 12.1484C190.996 8.18262 193.064 5.34684 195.751 3.64111C198.352 1.93538 201.145 1.08252 204.13 1.08252C205.495 1.08252 207.094 1.25309 208.928 1.59424C211.742 2.36182 213.405 3.59847 213.917 5.3042C214.386 7.09521 214.621 8.60905 214.621 9.8457C214.621 11.0824 214.45 12.5109 214.109 14.1313C213.555 17.159 212.787 20.2507 211.806 23.4062C211.508 24.2591 211.252 25.112 211.039 25.9648C210.825 26.7751 210.612 27.5853 210.399 28.3955C209.589 31.4658 208.885 34.9199 208.288 38.7578C207.99 40.6768 207.755 42.4678 207.584 44.1309C207.457 45.7939 207.393 47.3078 207.393 48.6724C207.393 49.6532 207.414 50.634 207.457 51.6147C207.542 52.5955 207.627 53.5763 207.712 54.5571C208.267 57.9686 209.482 60.3566 211.358 61.7212C213.107 63.0431 214.919 63.7041 216.795 63.7041C217.009 63.7041 217.201 63.7041 217.371 63.7041C217.542 63.7041 217.734 63.6828 217.947 63.6401C220.164 63.3416 221.785 62.4461 222.808 60.9536C223.832 59.4611 224.343 57.9046 224.343 56.2842C224.343 55.2181 224.194 54.1094 223.896 52.958C222.787 49.376 221.913 46.3057 221.273 43.7471C220.633 41.1885 220.271 39.099 220.186 37.4785C219.93 34.3229 219.802 32.2547 219.802 31.2739C219.802 26.37 220.697 20.6984 222.488 14.2593C223.682 9.44059 225.388 6.11442 227.605 4.28076C229.78 2.48975 231.785 1.59424 233.618 1.59424C235.665 1.59424 237.946 2.27653 240.462 3.64111C243.064 5.21891 244.663 7.15918 245.26 9.46191C245.814 11.6794 246.091 13.6623 246.091 15.4106C246.091 16.1356 246.049 16.9032 245.963 17.7134C245.921 18.481 245.814 19.2699 245.644 20.0801C244.919 23.6195 243.81 26.8177 242.317 29.6748C240.697 32.5319 239.396 35.0265 238.416 37.1587C237.435 39.2482 236.774 40.9966 236.433 42.4038C235.75 45.1756 235.409 47.4144 235.409 49.1201C235.409 52.4889 236.134 56.2202 237.584 60.314C238.949 64.0666 239.78 67.2648 240.079 69.9087C240.334 72.5099 240.462 74.237 240.462 75.0898C240.462 78.3734 239.865 81.3584 238.671 84.0449C237.136 87.5417 234.087 90.1216 229.524 91.7847C227.691 92.339 225.324 92.7228 222.424 92.936C220.974 93.0213 219.631 93.0853 218.395 93.1279C217.201 93.1706 216.113 93.1919 215.132 93.1919C214.279 93.1919 213.427 93.1706 212.574 93.1279C211.764 93.1279 210.932 93.1066 210.079 93.064ZM275.387 92.6162C272.914 92.1045 270.867 91.2943 269.247 90.1855C267.626 89.0768 266.347 87.7549 265.409 86.2197C264.471 84.6846 263.81 83.0002 263.426 81.1665C263.085 79.2902 262.914 77.3499 262.914 75.3457C262.914 72.0622 263.447 68.7786 264.513 65.4951C265.622 62.1689 266.923 58.7148 268.415 55.1328C269.652 52.0625 270.846 48.9069 271.997 45.666C273.191 42.4251 274.151 38.9284 274.875 35.1758C275.003 34.4082 275.195 32.937 275.451 30.7622C275.707 28.63 275.899 26.839 276.027 25.3892C276.069 24.6642 276.091 24.0672 276.091 23.5981C276.133 23.1291 276.155 22.7453 276.155 22.4468C276.155 21.5086 276.091 20.8903 275.963 20.5918C275.835 20.3786 275.643 20.272 275.387 20.272C275.174 20.272 274.854 20.3786 274.428 20.5918C274.044 20.7624 273.618 20.9969 273.148 21.2954C272.679 21.5513 272.168 21.8498 271.613 22.1909C269.993 23.257 268.223 24.2378 266.304 25.1333C264.428 26.0288 262.594 26.4766 260.803 26.4766C260.633 26.4766 260.462 26.4766 260.292 26.4766C260.121 26.4766 259.95 26.4552 259.78 26.4126C257.648 26.242 255.579 24.9414 253.575 22.5107C251.827 20.0374 250.953 17.3722 250.953 14.5151C250.953 13.7902 251.017 13.0439 251.145 12.2764C251.699 8.43848 253.746 5.62402 257.285 3.83301C259.844 2.76693 262.701 2.23389 265.856 2.23389C266.326 2.23389 266.795 2.25521 267.264 2.29785C267.775 2.29785 268.266 2.31917 268.735 2.36182C270.867 2.57503 272.871 2.85221 274.748 3.19336C276.667 3.53451 278.5 3.93962 280.249 4.40869C282.21 4.87777 284.044 5.1123 285.75 5.1123H286.581C288.799 4.98438 291.229 4.5153 293.873 3.70508C295.11 3.36393 296.389 3.04411 297.711 2.74561C299.033 2.40446 300.419 2.12728 301.869 1.91406C303.319 1.70085 304.576 1.53027 305.643 1.40234C306.751 1.27441 307.711 1.21045 308.521 1.21045C310.099 1.21045 311.421 1.3597 312.487 1.6582C314.917 2.55371 316.282 3.89697 316.581 5.68799C316.751 6.5835 316.858 7.3724 316.9 8.05469C316.986 8.69434 317.028 9.2487 317.028 9.71777C317.028 11.5088 316.708 13.2998 316.069 15.0908C315.088 17.7773 313.51 19.675 311.335 20.7837C310.611 21.0822 309.779 21.2314 308.841 21.2314C308.244 21.2314 307.625 21.1675 306.986 21.0396C306.176 20.869 305.365 20.6771 304.555 20.4639C303.745 20.208 302.913 19.9308 302.061 19.6323C300.611 19.1206 299.417 18.7581 298.479 18.5449C297.54 18.3317 296.837 18.2251 296.368 18.2251C295.771 18.2251 295.28 18.3104 294.896 18.481C292.082 19.4618 289.779 24.5363 287.988 33.7046C287.775 34.8133 287.583 35.922 287.413 37.0308C287.285 38.1395 287.178 39.2482 287.093 40.3569C286.965 42.5744 286.901 44.1735 286.901 45.1543C286.901 46.391 286.944 47.6063 287.029 48.8003C287.114 49.9517 287.242 51.1243 287.413 52.3184C287.924 55.6445 289.033 58.2458 290.739 60.1221C291.592 60.9323 292.423 61.6999 293.233 62.4248C294.086 63.1497 294.918 63.8107 295.728 64.4077C298.031 66.0708 299.992 67.9045 301.613 69.9087C303.233 71.9982 304.299 74.8766 304.811 78.5439V79.1836C304.811 82.6803 303.169 85.5161 299.886 87.6909C296.432 89.9937 292.892 91.4648 289.268 92.1045C285.643 92.7441 282.722 93.064 280.504 93.064C278.585 93.064 276.88 92.9147 275.387 92.6162Z" fill="black"/>
</svg>
