<svg width="84" height="19" viewBox="0 0 84 19" fill="none" xmlns="http://www.w3.org/2000/svg">
<path d="M6.50889 15.825C5.80889 17.45 4.98389 18.125 3.65889 18.125C2.13389 18.125 0.933887 16.925 0.933887 15.375C0.933887 14.9 1.05889 14.4 1.28389 13.925L6.50889 2.85C6.98389 1.825 7.93389 1.2 9.03389 1.2C10.1589 1.2 11.1089 1.825 11.6089 2.875L16.8589 14.075C17.0839 14.5 17.1839 14.975 17.1839 15.4C17.1839 16.9 15.9339 18.125 14.4089 18.125C13.1339 18.125 12.3839 17.525 11.6089 15.825H6.50889ZM8.18389 11.85H9.88389L9.03389 9.85L8.18389 11.85ZM30.2226 9.075C31.5476 10.35 32.0476 11.45 32.0476 13.05C32.0476 14.5 31.4726 15.775 30.3726 16.775C29.2976 17.775 28.5226 18 26.3726 18H21.9976C20.7976 18 20.2476 17.825 19.6476 17.175C19.3226 16.825 19.0726 16.325 18.9726 15.875C18.9476 15.675 18.9226 15.475 18.9226 14.4V4.95V4.15C18.9476 2.5 20.1226 1.325 21.7476 1.325H24.0976C25.8726 1.325 26.4726 1.375 27.1476 1.525C29.4476 2.075 30.9976 4.075 30.9976 6.525C30.9976 7.475 30.8226 8.05 30.2226 9.075ZM24.3976 6.5V7.775H25.0476C25.8226 7.775 26.0726 7.6 26.0726 7.15C26.0726 6.675 25.7726 6.5 24.9976 6.5H24.3976ZM24.3976 11.525V12.875H25.3226C26.2726 12.875 26.5226 12.725 26.5226 12.225C26.5226 11.725 26.1726 11.525 25.2976 11.525H24.3976ZM33.8528 9.575C33.8528 4.775 37.7528 0.924999 42.6278 0.924999C47.5028 0.924999 51.4278 4.825 51.4278 9.65C51.4278 14.475 47.4778 18.425 42.6528 18.425C37.7528 18.425 33.8528 14.5 33.8528 9.575ZM39.3778 9.65C39.3778 11.475 40.8528 12.975 42.6528 12.975C44.4528 12.975 45.9278 11.475 45.9278 9.675C45.9278 7.9 44.4528 6.45 42.6528 6.45C40.8528 6.45 39.3778 7.875 39.3778 9.65ZM58.8917 4.45V11.025C58.8917 12.225 59.4417 12.95 60.3917 12.95C61.3417 12.95 61.8917 12.25 61.8917 11.1V4.45C61.8917 3.225 61.9917 2.85 62.4917 2.25C63.0167 1.6 63.7917 1.2 64.6167 1.2C65.4167 1.2 66.2667 1.6 66.7667 2.2C67.2917 2.825 67.4167 3.325 67.4167 4.825V10.75C67.4167 13 66.8667 14.625 65.6667 15.975C64.3167 17.525 62.3667 18.425 60.3917 18.425C58.1667 18.425 56.0417 17.325 54.7167 15.525C53.6917 14.125 53.3667 12.95 53.3667 10.75V4.875C53.3667 3.3 53.4667 2.9 53.9417 2.275C54.4667 1.625 55.3167 1.2 56.1167 1.2C56.8667 1.2 57.6417 1.55 58.1417 2.075C58.6917 2.65 58.8917 3.275 58.8917 4.45ZM73.3253 6.45H71.8503C70.9003 6.45 70.2753 6.225 69.7753 5.725C69.2753 5.2 69.0003 4.575 69.0003 3.9C69.0003 2.95 69.6253 1.95 70.4253 1.6C71.0003 1.35 71.2253 1.325 73.4003 1.325H78.9503C80.5003 1.325 80.5003 1.325 80.8253 1.375C82.1503 1.55 83.0753 2.575 83.0753 3.875C83.0753 4.6 82.7253 5.35 82.1753 5.85C81.7503 6.25 81.0503 6.45 80.0503 6.45H78.8253V14.75C78.8253 15.75 78.7003 16.3 78.3503 16.875C77.8503 17.675 77.0253 18.125 76.0753 18.125C75.1503 18.125 74.3253 17.7 73.8003 16.975C73.4253 16.4 73.3253 15.925 73.3253 14.8V6.45Z" fill="black"/>
</svg>
