<svg width="46" height="18" viewBox="0 0 46 18" fill="none" xmlns="http://www.w3.org/2000/svg">
<path d="M11.7357 8.075C13.0607 9.35 13.5607 10.45 13.5607 12.05C13.5607 13.5 12.9857 14.775 11.8857 15.775C10.8107 16.775 10.0357 17 7.88574 17H3.51074C2.31074 17 1.76074 16.825 1.16074 16.175C0.835742 15.825 0.585742 15.325 0.485742 14.875C0.460742 14.675 0.435742 14.475 0.435742 13.4V3.95V3.15C0.460742 1.5 1.63574 0.324999 3.26074 0.324999H5.61074C7.38574 0.324999 7.98574 0.374999 8.66074 0.524999C10.9607 1.075 12.5107 3.075 12.5107 5.525C12.5107 6.475 12.3357 7.05 11.7357 8.075ZM5.91074 5.5V6.775H6.56074C7.33574 6.775 7.58574 6.6 7.58574 6.15C7.58574 5.675 7.28574 5.5 6.51074 5.5H5.91074ZM5.91074 10.525V11.875H6.83574C7.78574 11.875 8.03574 11.725 8.03574 11.225C8.03574 10.725 7.68574 10.525 6.81074 10.525H5.91074ZM21.191 3.45V10.025C21.191 11.225 21.741 11.95 22.691 11.95C23.641 11.95 24.191 11.25 24.191 10.1V3.45C24.191 2.225 24.291 1.85 24.791 1.25C25.316 0.6 26.091 0.199999 26.916 0.199999C27.716 0.199999 28.566 0.6 29.066 1.2C29.591 1.825 29.716 2.325 29.716 3.825V9.75C29.716 12 29.166 13.625 27.966 14.975C26.616 16.525 24.666 17.425 22.691 17.425C20.466 17.425 18.341 16.325 17.016 14.525C15.991 13.125 15.666 11.95 15.666 9.75V3.875C15.666 2.3 15.766 1.9 16.241 1.275C16.766 0.624999 17.616 0.199999 18.416 0.199999C19.166 0.199999 19.941 0.549999 20.441 1.075C20.991 1.65 21.191 2.275 21.191 3.45ZM41.0746 10.1V13.725C41.0746 14.75 40.9496 15.275 40.5996 15.825C40.1246 16.625 39.1996 17.125 38.2996 17.125C37.3996 17.125 36.4996 16.625 35.9996 15.85C35.6496 15.275 35.5246 14.8 35.5246 13.725V10.025L31.8246 4.55C31.4496 4.025 31.2746 3.45 31.2746 2.875C31.2746 1.4 32.4996 0.199999 33.9996 0.199999C34.9496 0.199999 35.8246 0.674999 36.4246 1.5L38.3496 4.075L40.3746 1.425C40.9996 0.649999 41.8246 0.199999 42.6996 0.199999C44.1996 0.199999 45.4496 1.45 45.4496 2.925C45.4496 3.475 45.2746 4.025 44.9496 4.525L41.0746 10.1Z" fill="black"/>
</svg>
