<svg width="265" height="84" viewBox="0 0 265 84" fill="none" xmlns="http://www.w3.org/2000/svg">
<mask id="path-1-inside-1_40_891" fill="white">
<path fill-rule="evenodd" clip-rule="evenodd" d="M0.903564 84H235C251.569 84 265 70.5685 265 54V30C265 13.4315 251.569 0 235 0L35.4856 0C26.6793 29.3284 15.0465 57.4338 0.903564 84Z"/>
</mask>
<path fill-rule="evenodd" clip-rule="evenodd" d="M0.903564 84H235C251.569 84 265 70.5685 265 54V30C265 13.4315 251.569 0 235 0L35.4856 0C26.6793 29.3284 15.0465 57.4338 0.903564 84Z" fill="#56D6E5"/>
<path d="M0.903564 84L-3.50997 81.6504L-7.42266 89H0.903564V84ZM235 0V5V0ZM35.4856 0V-5L31.7664 -5L30.6968 -1.4379L35.4856 0ZM235 79H0.903564V89H235V79ZM260 54C260 67.8071 248.807 79 235 79V89C254.33 89 270 73.33 270 54H260ZM260 30V54H270V30H260ZM235 5C248.807 5 260 16.1929 260 30H270C270 10.67 254.33 -5 235 -5V5ZM35.4856 5L235 5V-5L35.4856 -5V5ZM30.6968 -1.4379C21.9864 27.5713 10.4799 55.3717 -3.50997 81.6504L5.3171 86.3496C19.6131 59.496 31.3723 31.0854 40.2744 1.4379L30.6968 -1.4379Z" fill="black" mask="url(#path-1-inside-1_40_891)"/>
<path d="M70.9805 56.5361C70.2318 56.5361 69.4505 56.3001 68.6367 55.8281C67.8392 55.3398 67.2858 54.526 66.9766 53.3867C66.8789 52.4915 66.7894 50.807 66.708 48.333C66.6755 47.4541 66.6592 46.5345 66.6592 45.5742C66.6592 43.8327 66.7161 41.7005 66.8301 39.1777C66.9603 36.6549 67.3346 34.0508 67.9531 31.3652C68.5879 28.6797 69.5645 26.6777 70.8828 25.3594C71.6152 24.627 72.486 24.2607 73.4951 24.2607C74.3089 24.2607 75.2122 24.4967 76.2051 24.9688C77.8164 25.8477 79.5173 28.5007 81.3076 32.9277C82.9515 31.3815 84.693 30.0062 86.5322 28.8018C88.3877 27.5811 90.1536 26.7754 91.8301 26.3848C92.3509 26.2708 92.8392 26.2139 93.2949 26.2139C94.3691 26.2139 95.3945 26.5964 96.3711 27.3613C97.3477 28.1263 97.958 29.8597 98.2021 32.5615C98.4463 36.1585 98.5684 39.8206 98.5684 43.5479C98.5846 45.2568 98.609 46.9495 98.6416 48.626C98.6416 49.6676 98.2998 50.5954 97.6162 51.4092C96.8187 52.3206 95.7852 52.7764 94.5156 52.7764C93.474 52.7764 92.5462 52.4346 91.7324 51.751C90.9349 51.0511 90.4792 50.1152 90.3652 48.9434C90.3327 47.5599 90.3164 45.8346 90.3164 43.7676C90.3164 41.0169 90.2676 38.4779 90.1699 36.1504C87.7936 37.6803 85.7754 39.6416 84.1152 42.0342C82.6504 44.1012 81.2507 45.1348 79.916 45.1348C78.0931 45.1348 76.376 43.3932 74.7646 39.9102C74.6995 41.0658 74.667 42.2214 74.667 43.377C74.667 45.4277 74.7891 48.1133 75.0332 51.4336C75.1146 51.7917 75.1553 52.1335 75.1553 52.459C75.1553 53.224 74.9111 54.0052 74.4229 54.8027C73.9346 55.584 73.1208 56.1292 71.9814 56.4385C71.6396 56.5036 71.306 56.5361 70.9805 56.5361ZM111.85 56.7803C110.141 56.7803 108.635 56.3815 107.333 55.584C106.177 54.7702 105.364 53.3786 104.892 51.4092C104.387 49.3747 104.135 46.8031 104.135 43.6943C104.135 40.195 104.428 35.8574 105.014 30.6816L105.258 28.3379C105.469 27.3125 105.982 26.4987 106.796 25.8965C107.545 25.3431 108.399 25.0664 109.359 25.0664H109.677C110.1 24.9199 110.604 24.8467 111.19 24.8467C114.071 24.6514 116.92 24.4723 119.735 24.3096C120.891 24.3096 121.868 24.6921 122.665 25.457C123.479 26.222 123.886 27.1416 123.886 28.2158C123.886 29.3063 123.479 30.234 122.665 30.999C121.868 31.764 120.891 32.1465 119.735 32.1465C117.571 32.293 115.398 32.4313 113.217 32.5615L112.948 36.4434C114.592 35.9062 116.667 35.4587 119.174 35.1006C120.313 35.1006 121.29 35.4831 122.104 36.248C122.917 37.013 123.324 37.9408 123.324 39.0312C123.324 40.1055 122.917 41.0332 122.104 41.8145C121.29 42.5794 120.313 42.9619 119.174 42.9619C118.344 43.1735 117.668 43.3525 117.147 43.499C116.382 43.7269 115.707 43.9059 115.121 44.0361C114.551 44.1501 113.754 44.2477 112.729 44.3291C112.729 45.8265 112.761 47.332 112.826 48.8457C114.975 48.4876 118.515 47.4134 123.446 45.623C123.788 45.5579 124.122 45.5254 124.447 45.5254C125.212 45.5254 125.993 45.7533 126.791 46.209C127.589 46.6647 128.142 47.4297 128.451 48.5039C128.533 48.8457 128.573 49.1712 128.573 49.4805C128.573 50.1966 128.329 50.9372 127.841 51.7021C127.353 52.4508 126.539 52.9717 125.399 53.2646C124.911 53.4274 124.382 53.6146 123.812 53.8262C118.783 55.7956 114.796 56.7803 111.85 56.7803ZM135.971 56.5361C135.222 56.5361 134.441 56.3001 133.627 55.8281C132.829 55.3398 132.276 54.526 131.967 53.3867C131.869 52.4915 131.78 50.807 131.698 48.333C131.666 47.4541 131.649 46.5345 131.649 45.5742C131.649 43.8327 131.706 41.7005 131.82 39.1777C131.951 36.6549 132.325 34.0508 132.943 31.3652C133.578 28.6797 134.555 26.6777 135.873 25.3594C136.605 24.627 137.476 24.2607 138.485 24.2607C139.299 24.2607 140.202 24.4967 141.195 24.9688C142.807 25.8477 144.507 28.5007 146.298 32.9277C147.942 31.3815 149.683 30.0062 151.522 28.8018C153.378 27.5811 155.144 26.7754 156.82 26.3848C157.341 26.2708 157.829 26.2139 158.285 26.2139C159.359 26.2139 160.385 26.5964 161.361 27.3613C162.338 28.1263 162.948 29.8597 163.192 32.5615C163.437 36.1585 163.559 39.8206 163.559 43.5479C163.575 45.2568 163.599 46.9495 163.632 48.626C163.632 49.6676 163.29 50.5954 162.606 51.4092C161.809 52.3206 160.775 52.7764 159.506 52.7764C158.464 52.7764 157.536 52.4346 156.723 51.751C155.925 51.0511 155.469 50.1152 155.355 48.9434C155.323 47.5599 155.307 45.8346 155.307 43.7676C155.307 41.0169 155.258 38.4779 155.16 36.1504C152.784 37.6803 150.766 39.6416 149.105 42.0342C147.641 44.1012 146.241 45.1348 144.906 45.1348C143.083 45.1348 141.366 43.3932 139.755 39.9102C139.69 41.0658 139.657 42.2214 139.657 43.377C139.657 45.4277 139.779 48.1133 140.023 51.4336C140.105 51.7917 140.146 52.1335 140.146 52.459C140.146 53.224 139.901 54.0052 139.413 54.8027C138.925 55.584 138.111 56.1292 136.972 56.4385C136.63 56.5036 136.296 56.5361 135.971 56.5361ZM176.84 56.7803C175.131 56.7803 173.625 56.3815 172.323 55.584C171.168 54.7702 170.354 53.3786 169.882 51.4092C169.377 49.3747 169.125 46.8031 169.125 43.6943C169.125 40.195 169.418 35.8574 170.004 30.6816L170.248 28.3379C170.46 27.3125 170.972 26.4987 171.786 25.8965C172.535 25.3431 173.389 25.0664 174.35 25.0664H174.667C175.09 24.9199 175.595 24.8467 176.181 24.8467C179.062 24.6514 181.91 24.4723 184.726 24.3096C185.881 24.3096 186.858 24.6921 187.655 25.457C188.469 26.222 188.876 27.1416 188.876 28.2158C188.876 29.3063 188.469 30.234 187.655 30.999C186.858 31.764 185.881 32.1465 184.726 32.1465C182.561 32.293 180.388 32.4313 178.207 32.5615L177.938 36.4434C179.582 35.9062 181.658 35.4587 184.164 35.1006C185.303 35.1006 186.28 35.4831 187.094 36.248C187.908 37.013 188.314 37.9408 188.314 39.0312C188.314 40.1055 187.908 41.0332 187.094 41.8145C186.28 42.5794 185.303 42.9619 184.164 42.9619C183.334 43.1735 182.659 43.3525 182.138 43.499C181.373 43.7269 180.697 43.9059 180.111 44.0361C179.542 44.1501 178.744 44.2477 177.719 44.3291C177.719 45.8265 177.751 47.332 177.816 48.8457C179.965 48.4876 183.505 47.4134 188.437 45.623C188.778 45.5579 189.112 45.5254 189.438 45.5254C190.202 45.5254 190.984 45.7533 191.781 46.209C192.579 46.6647 193.132 47.4297 193.441 48.5039C193.523 48.8457 193.563 49.1712 193.563 49.4805C193.563 50.1966 193.319 50.9372 192.831 51.7021C192.343 52.4508 191.529 52.9717 190.39 53.2646C189.901 53.4274 189.372 53.6146 188.803 53.8262C183.773 55.7956 179.786 56.7803 176.84 56.7803ZM201.596 55.877H200.375C199.187 55.877 198.17 55.4701 197.323 54.6562C196.493 53.8424 196.078 52.8659 196.078 51.7266C196.078 50.571 196.493 49.5944 197.323 48.7969C198.17 47.9831 199.187 47.5762 200.375 47.5762H201.376C201.946 47.5762 202.58 47.5599 203.28 47.5273C204.224 47.4785 204.892 47.3158 205.282 47.0391C205.347 46.8275 205.38 46.6077 205.38 46.3799C205.38 45.859 205.217 45.265 204.892 44.5977C204.127 43.0026 203.012 41.3831 201.547 39.7393C199.626 37.4118 198.666 35.2227 198.666 33.1719C198.666 30.9421 199.521 29.0703 201.229 27.5566C202.825 26.1569 204.338 25.3757 205.771 25.2129C207.219 25.0501 208.171 24.9688 208.627 24.9688C210.629 24.9688 212.704 25.4733 214.853 26.4824C215.862 27.1497 216.448 27.8333 216.61 28.5332C216.773 29.2168 216.854 29.7051 216.854 29.998C216.854 30.763 216.635 31.5036 216.195 32.2197C215.512 33.1963 214.812 33.766 214.096 33.9287C213.38 34.0752 212.867 34.1484 212.558 34.1484C211.776 34.1484 211.003 33.9287 210.238 33.4893C209.75 33.2614 209.221 33.1475 208.651 33.1475C208.179 33.1475 207.756 33.2614 207.382 33.4893C208.798 35.182 210.1 37.0863 211.288 39.2021C212.493 41.3018 213.233 43.0433 213.51 44.4268C213.786 45.8102 213.925 46.8031 213.925 47.4053C213.925 48.805 213.591 50.1071 212.924 51.3115C211.964 53.0368 210.043 54.3551 207.162 55.2666C206.12 55.5596 205.136 55.7386 204.208 55.8037C203.297 55.8525 202.426 55.877 201.596 55.877Z" fill="black"/>
</svg>
