<svg width="284" height="215" viewBox="0 0 284 215" fill="none" xmlns="http://www.w3.org/2000/svg">
<rect x="0.730591" y="92.6997" width="252" height="131.419" rx="10" transform="rotate(-21.495 0.730591 92.6997)" fill="white" fill-opacity="0.49"/>
<path d="M67.9398 178.139C68.7103 177.835 69.6733 177.893 70.8288 178.311C72.3265 178.745 73.4679 178.808 74.253 178.499C74.3548 178.459 74.4726 178.396 74.6066 178.309C75.3084 177.831 75.4933 177.171 75.1612 176.328C75.1154 176.211 75.0738 176.127 75.0363 176.074C74.5483 175.091 73.3013 174.163 71.2952 173.291C70.5309 172.97 69.7562 172.688 68.9712 172.443C68.3572 172.248 67.762 172.037 67.1858 171.811C66.6039 171.57 66.0482 171.31 65.5187 171.031C64.4655 170.489 63.6096 169.659 62.9511 168.541C62.8908 168.431 62.8304 168.32 62.7701 168.209C62.7243 168.093 62.6785 167.977 62.6327 167.861C62.2434 166.872 62.0809 165.777 62.1454 164.576C62.1754 163.842 62.2938 163.141 62.5005 162.472C62.7014 161.788 62.9879 161.129 63.3597 160.496C64.1035 159.229 65.1485 158.322 66.4949 157.775C67.8469 157.243 69.1893 157.176 70.5218 157.575C71.8544 157.974 72.9391 158.596 73.7761 159.442C74.613 160.288 75.2061 161.154 75.5553 162.041C75.6183 162.201 75.6769 162.371 75.731 162.551C75.7852 162.731 75.8292 162.907 75.8631 163.079C76.0379 164.034 75.9446 164.927 75.5833 165.758C75.1929 166.6 74.656 167.156 73.9728 167.425C73.7838 167.499 73.5571 167.564 73.2928 167.617C72.3839 167.74 71.5498 167.179 70.7905 165.933C70.1399 164.963 69.6638 164.479 69.362 164.48C69.066 164.496 68.8671 164.524 68.7653 164.564C68.4891 164.673 68.2846 164.921 68.152 165.309C67.9836 165.862 68.0182 166.462 68.2555 167.107C68.7536 168.372 69.7275 169.374 71.1773 170.113C72.0341 170.498 72.829 170.789 73.562 170.987C74.3038 171.165 75.0067 171.308 75.6706 171.416C76.4243 171.539 77.1677 171.7 77.9007 171.898C80.609 172.763 82.3329 173.772 83.0725 174.925C83.7772 176.075 84.2269 176.897 84.4215 177.391C84.9826 178.816 85.1168 180.308 84.8241 181.867C84.4182 183.992 83.2882 185.856 81.4343 187.459C80.1258 188.529 78.8827 189.295 77.7051 189.759C76.891 190.08 76.1008 190.248 75.3347 190.264C73.5299 190.287 71.9876 189.761 70.708 188.686C69.4024 187.588 68.5734 186.613 68.2211 185.761C67.8225 184.877 67.586 184.34 67.5115 184.151C67.0077 182.872 66.7631 181.675 66.7778 180.561C66.7964 179.244 67.1838 178.436 67.9398 178.139ZM95.3533 182.507C94.4414 182.665 93.6347 182.663 92.9334 182.503C92.2321 182.342 91.6185 182.063 91.0925 181.666C90.5666 181.269 90.1151 180.783 89.738 180.209C89.3698 179.615 89.0512 178.977 88.7821 178.294C88.3412 177.174 88.0821 175.983 88.0047 174.721C87.9361 173.438 87.9158 172.085 87.9437 170.664C87.9531 169.451 87.9365 168.215 87.8939 166.955C87.8659 165.69 87.7235 164.369 87.4668 162.993C87.4074 162.714 87.2753 162.186 87.0705 161.411C86.8715 160.649 86.6964 160.013 86.5454 159.501C86.4626 159.249 86.3897 159.042 86.3267 158.882C86.2783 158.717 86.234 158.583 86.194 158.481C86.068 158.161 85.9632 157.959 85.8795 157.875C85.8072 157.819 85.7275 157.808 85.6403 157.843C85.5676 157.871 85.4729 157.951 85.3561 158.081C85.2482 158.19 85.1343 158.328 85.0144 158.492C84.8889 158.642 84.7545 158.813 84.6113 159.004C84.202 159.585 83.7303 160.157 83.1963 160.72C82.6769 161.277 82.1118 161.676 81.5012 161.916C81.4431 161.939 81.3849 161.962 81.3268 161.985C81.2686 162.008 81.2076 162.023 81.1437 162.032C80.3939 162.26 79.5142 162.094 78.5045 161.535C77.5764 160.926 76.9205 160.135 76.5369 159.161C76.4396 158.914 76.3612 158.651 76.3018 158.372C75.9755 156.989 76.2955 155.754 77.2617 154.669C77.9908 153.962 78.8933 153.396 79.9692 152.973C80.1291 152.91 80.2919 152.854 80.4575 152.806C80.632 152.737 80.802 152.678 80.9677 152.63C81.7232 152.416 82.4437 152.242 83.1292 152.106C83.8292 151.965 84.5088 151.857 85.1678 151.782C85.8996 151.678 86.5562 151.512 87.1377 151.283L87.4212 151.172C88.16 150.83 88.9257 150.344 89.7183 149.713C90.0941 149.43 90.4873 149.15 90.898 148.87C91.3028 148.577 91.7381 148.296 92.2038 148.029C92.6695 147.761 93.0754 147.534 93.4217 147.347C93.7825 147.155 94.1011 147.004 94.3773 146.896C94.9152 146.684 95.3859 146.557 95.7895 146.516C96.7384 146.495 97.384 146.769 97.7262 147.34C97.9046 147.622 98.0468 147.877 98.153 148.104C98.2679 148.311 98.3569 148.494 98.4199 148.654C98.6603 149.264 98.7918 149.918 98.8142 150.614C98.8405 151.662 98.5573 152.521 97.9647 153.191C97.7577 153.39 97.4942 153.552 97.1744 153.678C96.9708 153.759 96.7514 153.82 96.5162 153.862C96.2171 153.913 95.9151 153.956 95.6102 153.992C95.2996 154.014 94.9789 154.031 94.6481 154.044C94.0851 154.064 93.6293 154.1 93.2809 154.154C92.9324 154.207 92.6782 154.265 92.5183 154.328C92.3148 154.408 92.159 154.503 92.0511 154.613C91.2232 155.325 91.1195 157.364 91.7398 160.73C91.816 161.137 91.8994 161.541 91.9901 161.942C92.0954 162.337 92.2079 162.729 92.3277 163.119C92.5818 163.892 92.7746 164.446 92.9063 164.78C93.0724 165.202 93.2501 165.61 93.4395 166.006C93.6231 166.387 93.8242 166.77 94.0426 167.154C94.6637 168.219 95.3909 168.957 96.2244 169.368C96.6239 169.529 97.0105 169.679 97.384 169.818C97.7721 169.95 98.1444 170.064 98.5007 170.159C99.5091 170.417 100.424 170.779 101.246 171.244C102.079 171.739 102.828 172.577 103.495 173.759L103.581 173.977C104.051 175.169 103.872 176.356 103.044 177.539C102.176 178.787 101.167 179.764 100.017 180.469C98.8669 181.174 97.914 181.675 97.158 181.973C96.5038 182.23 95.9022 182.408 95.3533 182.507ZM118.507 173.565C116.7 174.092 115.153 174.088 113.868 173.553C112.577 173.004 111.623 172.246 111.008 171.279C110.386 170.298 109.938 169.458 109.663 168.761C109.377 168.034 109.15 167.266 108.983 166.459C108.629 164.281 108.206 162.567 107.714 161.316C107.622 161.084 107.532 160.876 107.443 160.693C107.348 160.495 107.252 160.314 107.154 160.151C106.415 158.914 105.63 157.964 104.798 157.301C104.289 156.863 103.777 156.351 103.261 155.765C102.759 155.173 102.257 154.389 101.754 153.411C101.7 153.315 101.652 153.216 101.612 153.115C101.572 153.013 101.532 152.911 101.492 152.809C100.96 151.457 100.677 150.099 100.643 148.735C100.605 147.189 100.93 145.944 101.617 145.002C102.274 144.071 103.112 143.405 104.13 143.005C104.595 142.821 105.163 142.665 105.834 142.535C106.897 142.419 107.63 142.617 108.033 143.13C108.434 143.678 108.717 144.162 108.883 144.584C109.049 145.005 109.182 145.515 109.284 146.114C109.501 147.22 109.655 148.377 109.744 149.585C109.757 149.916 109.784 150.241 109.826 150.56C109.862 150.865 109.898 151.17 109.934 151.475C110.07 152.63 110.294 153.902 110.606 155.291C110.762 155.985 110.922 156.627 111.087 157.217C111.267 157.801 111.448 158.326 111.631 158.791C111.763 159.126 111.902 159.457 112.048 159.786C112.209 160.109 112.37 160.432 112.531 160.755C113.178 161.843 113.913 162.494 114.735 162.708C115.509 162.923 116.216 162.906 116.855 162.654C116.928 162.625 116.993 162.599 117.052 162.576C117.11 162.553 117.172 162.52 117.239 162.477C117.955 162.078 118.387 161.555 118.536 160.909C118.684 160.262 118.65 159.663 118.432 159.111C118.289 158.747 118.09 158.389 117.833 158.037C116.974 156.964 116.264 156.035 115.702 155.249C115.141 154.462 114.737 153.798 114.49 153.257C113.979 152.216 113.658 151.528 113.526 151.194C112.868 149.522 112.412 147.468 112.158 145.032C111.918 143.229 112.053 141.866 112.563 140.943C113.064 140.041 113.627 139.466 114.252 139.22C114.95 138.945 115.819 138.871 116.86 138.999C117.959 139.188 118.764 139.634 119.277 140.339C119.764 141.021 120.124 141.66 120.359 142.256C120.457 142.503 120.545 142.77 120.625 143.058C120.713 143.325 120.783 143.609 120.833 143.908C121.062 145.212 121.113 146.451 120.988 147.625C120.819 148.817 120.71 149.842 120.662 150.701C120.608 151.545 120.618 152.23 120.69 152.755C120.83 153.792 121.014 154.601 121.243 155.182C121.696 156.331 122.444 157.506 123.488 158.707C124.457 159.803 125.17 160.782 125.626 161.643C126.063 162.495 126.338 163.067 126.453 163.358C126.894 164.477 127.091 165.575 127.044 166.651C126.991 168.05 126.297 169.338 124.965 170.518C124.414 170.953 123.659 171.402 122.699 171.864C122.216 172.088 121.767 172.29 121.351 172.47C120.95 172.645 120.582 172.798 120.247 172.93C119.957 173.045 119.663 173.152 119.367 173.252C119.09 173.361 118.804 173.465 118.507 173.565ZM130.516 154.805C130.358 153.978 130.167 153.196 129.945 152.461C129.737 151.72 129.499 151.008 129.23 150.324C128.697 148.972 128.097 147.983 127.431 147.355C126.974 146.964 126.691 146.672 126.582 146.48C126.533 146.399 126.49 146.332 126.453 146.279C126.43 146.221 126.413 146.178 126.401 146.148C126.298 145.887 126.24 145.548 126.228 145.133C126.186 144.814 126.122 144.545 126.037 144.327C125.916 144.022 125.735 143.732 125.493 143.458C125.268 143.228 125.028 143.003 124.774 142.784C124.52 142.565 124.244 142.355 123.946 142.153C123.171 141.635 122.632 141.184 122.33 140.8C122.036 140.395 121.858 140.112 121.795 139.952C121.571 139.385 121.61 138.673 121.911 137.816C122.354 136.852 123.143 135.979 124.279 135.195C125.397 134.453 126.574 133.838 127.81 133.352L128.006 133.274C129.326 132.788 130.445 132.473 131.363 132.33C133.149 132.047 134.57 132.394 135.627 133.372C135.97 133.69 136.231 134.074 136.408 134.525C136.609 135.034 136.659 135.568 136.561 136.127C136.375 137.191 135.824 137.988 134.907 138.517L134.842 138.542C134.478 138.685 133.877 138.779 133.038 138.824C132.516 138.862 132.017 138.916 131.54 138.986C131.064 139.056 130.644 139.163 130.281 139.306L130.019 139.409C129.603 139.589 129.316 139.862 129.157 140.227C128.999 140.591 129.048 141.101 129.306 141.755C129.575 142.438 129.954 142.868 130.444 143.045C130.918 143.228 131.329 143.268 131.675 143.165C131.84 143.116 131.984 143.077 132.106 143.045C132.222 143 132.31 142.965 132.368 142.942C132.775 142.782 133.174 142.558 133.564 142.27C133.931 142.008 134.333 141.791 134.769 141.619C135.278 141.419 135.757 141.314 136.207 141.305C137.075 141.248 137.709 141.41 138.11 141.789C138.503 142.189 138.759 142.541 138.879 142.847C139.063 143.312 139.138 143.929 139.105 144.697C139.003 145.762 138.805 146.369 138.512 146.518C138.223 146.682 138.021 146.787 137.905 146.832C137.498 146.993 137.049 147.069 136.559 147.06C136.144 147.073 135.807 147.113 135.548 147.181C135.299 147.229 135.13 147.27 135.043 147.305C134.723 147.431 134.446 147.623 134.213 147.883C133.314 148.926 132.951 149.69 133.126 150.176C133.208 150.428 133.268 150.623 133.305 150.76C133.357 150.891 133.388 150.97 133.4 151C133.732 151.843 134.36 152.628 135.285 153.356C136.276 154.124 137.398 154.799 138.651 155.38C138.88 155.491 139.248 155.615 139.755 155.751C140.076 155.843 140.404 155.949 140.737 156.07C141.084 156.185 141.445 156.312 141.818 156.45C142.192 156.589 142.532 156.748 142.839 156.93C143.154 157.091 143.433 157.267 143.676 157.457C144.167 157.851 144.498 158.266 144.67 158.702C144.75 158.906 144.809 159.118 144.845 159.339C144.917 160.503 144.501 161.599 143.596 162.627C142.691 163.655 141.719 164.449 140.68 165.009C140.151 165.285 139.674 165.523 139.249 165.724C138.839 165.919 138.474 166.08 138.154 166.206C137.747 166.366 137.341 166.509 136.937 166.635C136.533 166.76 136.131 166.868 135.73 166.959C134.254 167.305 133.09 167.377 132.238 167.175C131.386 166.973 130.849 166.589 130.625 166.022C130.557 165.847 130.507 165.615 130.477 165.325C130.49 163.909 130.586 162.746 130.765 161.836C130.924 161.001 131.013 160.076 131.033 159.06C131.058 158.06 130.886 156.641 130.516 154.805ZM147.002 148.313C146.844 147.485 146.654 146.704 146.431 145.968C146.224 145.227 145.985 144.515 145.716 143.832C145.184 142.48 144.584 141.49 143.917 140.863C143.461 140.471 143.178 140.18 143.069 139.988C143.02 139.906 142.977 139.839 142.939 139.787C142.916 139.729 142.899 139.685 142.888 139.656C142.784 139.394 142.727 139.056 142.715 138.641C142.673 138.322 142.609 138.053 142.523 137.835C142.403 137.529 142.221 137.24 141.979 136.966C141.754 136.735 141.515 136.511 141.26 136.292C141.006 136.073 140.73 135.862 140.432 135.661C139.658 135.143 139.119 134.692 138.816 134.307C138.522 133.902 138.344 133.62 138.281 133.46C138.058 132.893 138.096 132.181 138.397 131.323C138.84 130.36 139.63 129.486 140.766 128.703C141.884 127.96 143.061 127.346 144.296 126.859L144.493 126.782C145.813 126.296 146.931 125.981 147.849 125.838C149.635 125.554 151.056 125.901 152.113 126.879C152.457 127.197 152.717 127.582 152.895 128.032C153.095 128.541 153.146 129.075 153.047 129.635C152.862 130.699 152.31 131.495 151.394 132.024L151.328 132.05C150.965 132.193 150.364 132.287 149.525 132.332C149.002 132.37 148.503 132.423 148.027 132.493C147.551 132.563 147.131 132.67 146.767 132.813L146.506 132.916C146.09 133.097 145.802 133.369 145.644 133.734C145.485 134.099 145.535 134.608 145.792 135.263C146.061 135.946 146.441 136.376 146.93 136.553C147.405 136.735 147.815 136.775 148.161 136.672C148.327 136.624 148.471 136.584 148.593 136.553C148.709 136.507 148.796 136.473 148.854 136.45C149.261 136.289 149.66 136.065 150.05 135.777C150.417 135.515 150.819 135.298 151.255 135.126C151.764 134.926 152.243 134.821 152.693 134.812C153.561 134.756 154.195 134.917 154.597 135.297C154.989 135.696 155.246 136.049 155.366 136.354C155.549 136.819 155.624 137.436 155.591 138.205C155.49 139.269 155.292 139.876 154.998 140.025C154.71 140.189 154.508 140.294 154.391 140.34C153.984 140.5 153.536 140.576 153.045 140.568C152.63 140.58 152.293 140.62 152.035 140.689C151.785 140.737 151.617 140.778 151.529 140.812C151.21 140.938 150.933 141.131 150.699 141.391C149.8 142.433 149.438 143.198 149.612 143.683C149.695 143.936 149.755 144.131 149.792 144.267C149.843 144.398 149.875 144.478 149.886 144.507C150.218 145.35 150.847 146.136 151.771 146.863C152.762 147.631 153.885 148.306 155.138 148.887C155.366 148.999 155.734 149.123 156.241 149.259C156.563 149.351 156.89 149.457 157.223 149.578C157.571 149.693 157.931 149.819 158.305 149.958C158.678 150.096 159.018 150.256 159.325 150.437C159.64 150.599 159.92 150.774 160.162 150.964C160.653 151.359 160.985 151.774 161.157 152.21C161.237 152.413 161.295 152.626 161.332 152.846C161.404 154.01 160.987 155.106 160.082 156.134C159.177 157.162 158.206 157.957 157.167 158.517C156.637 158.793 156.16 159.031 155.735 159.232C155.325 159.427 154.96 159.587 154.64 159.713C154.233 159.874 153.828 160.017 153.424 160.142C153.02 160.268 152.617 160.376 152.216 160.466C150.741 160.812 149.577 160.885 148.725 160.683C147.873 160.481 147.335 160.096 147.112 159.529C147.043 159.355 146.994 159.123 146.963 158.832C146.977 157.416 147.073 156.253 147.252 155.343C147.41 154.508 147.499 153.583 147.519 152.568C147.545 151.567 147.372 150.149 147.002 148.313Z" fill="black"/>
<path d="M67.1813 124.619C65.4941 124.343 64.326 123.829 63.6772 123.077C63.031 122.374 62.5677 121.666 62.2871 120.954C62.0238 120.285 61.8463 119.557 61.7548 118.771C61.7301 118.495 61.6738 118.181 61.5857 117.83C61.5122 117.472 61.4215 117.072 61.3136 116.627C61.0745 115.764 60.8604 115.093 60.6715 114.613C60.4368 114.017 60.1699 113.467 59.8708 112.963C59.3361 112.032 58.672 111.689 57.8786 111.934C57.3988 112.123 57.2226 112.528 57.3498 113.15C57.4797 113.821 57.6448 114.411 57.8452 114.92C57.9082 115.08 57.9769 115.254 58.0513 115.443C58.1346 115.612 58.2207 115.788 58.3097 115.971C58.5537 116.463 58.8093 116.941 59.0767 117.407C59.3586 117.867 59.6521 118.314 59.9574 118.748C60.1071 118.958 60.238 119.183 60.3498 119.425C60.4762 119.66 60.5881 119.902 60.6854 120.149C60.9774 120.89 61.1687 121.739 61.2594 122.694C61.3931 124.27 61.1725 125.65 60.5975 126.834C60.0251 128.067 59.1428 128.918 57.9507 129.387C57.878 129.416 57.798 129.447 57.7108 129.482C57.6236 129.516 57.5335 129.543 57.4405 129.563C55.5757 129.945 54.0464 129.707 52.8526 128.851C51.6532 127.98 50.8387 126.999 50.4093 125.909C50.2204 125.429 50.0881 124.944 50.0123 124.453C49.8231 122.949 49.9166 121.459 50.293 119.985C50.6694 118.51 51.1079 117.086 51.6085 115.713C52.2589 113.996 52.6688 112.5 52.8381 111.224C52.8527 110.664 52.7827 110.188 52.6281 109.795C52.4621 109.374 52.213 109.018 51.8809 108.729C51.5285 108.432 51.1441 108.138 50.7279 107.848C50.3116 107.559 49.8618 107.291 49.3786 107.045C48.7971 106.72 48.2346 106.378 47.691 106.022C47.1563 105.644 46.6885 105.224 46.2876 104.761C45.893 104.228 45.604 103.728 45.4208 103.263C45.1174 102.493 45.0633 101.758 45.2585 101.06C45.5983 99.9186 46.4733 99.0703 47.8835 98.5149C49.2937 97.9596 50.3667 97.8057 51.1023 98.0534C51.8177 98.2922 52.3177 98.6663 52.6022 99.1756C52.8519 99.6818 53.0426 100.102 53.1743 100.436C53.2659 100.669 53.3531 100.912 53.4359 101.165C53.513 101.403 53.5856 101.651 53.6539 101.91C53.7279 102.183 53.8091 102.454 53.8976 102.721C53.9862 102.988 54.0791 103.246 54.1764 103.493C54.2165 103.595 54.2566 103.696 54.2967 103.798C54.3367 103.9 54.3841 103.999 54.4387 104.095C54.7774 104.784 55.0701 105.122 55.3168 105.109C55.5547 105.116 55.7172 105.103 55.8045 105.068C56.0516 104.971 56.2067 104.725 56.2697 104.331C56.324 103.957 56.2423 103.494 56.0247 102.941C55.9789 102.825 55.923 102.704 55.8569 102.579C55.7997 102.434 55.7352 102.291 55.6634 102.152C55.3529 101.619 55.1003 101.105 54.9056 100.611C54.4705 99.5062 54.3338 98.4769 54.4956 97.5231C54.7296 96.6249 55.2286 95.8238 55.9926 95.12C56.7768 94.4249 57.5324 93.9342 58.2593 93.6479C58.3756 93.6021 58.4948 93.5636 58.6168 93.5323C58.7476 93.4808 58.8741 93.4394 58.9961 93.4082C60.0332 93.1845 60.8369 93.4557 61.4073 94.2219C61.4505 94.2888 61.4892 94.3659 61.5236 94.4532C61.5725 94.5347 61.6112 94.6118 61.6398 94.6845C61.8402 95.1933 61.9197 95.8001 61.8782 96.505C61.8552 97.001 61.8089 97.5231 61.7392 98.0711C61.6841 98.6134 61.6041 99.1991 61.4992 99.8281C61.4987 99.9123 61.491 99.9993 61.476 100.089C61.461 100.179 61.446 100.269 61.431 100.359C61.3706 100.802 61.3089 101.221 61.2459 101.616C61.1917 101.99 61.1361 102.339 61.0792 102.664C60.817 103.959 60.7092 104.858 60.7558 105.36C60.7765 105.839 60.8383 106.209 60.9414 106.471C61.1017 106.878 61.3781 107.282 61.7705 107.681C62.4172 108.3 63.514 109.102 65.0611 110.088C65.7839 110.559 66.4909 111.011 67.1821 111.444C67.8675 111.863 68.5501 112.274 69.2298 112.678C69.843 113.041 70.365 113.365 70.7958 113.649C71.2411 113.927 71.5997 114.155 71.8715 114.333C73.0221 115.123 73.8013 115.907 74.2091 116.687C74.6112 117.453 74.8524 117.937 74.9325 118.14C75.4077 119.347 75.4039 120.617 74.9209 121.949C74.5913 122.817 73.8943 123.478 72.8299 123.931L72.7426 123.965C70.9254 124.681 69.0716 124.899 67.1813 124.619ZM81.151 120.755C79.9867 120.911 79.2913 120.723 79.065 120.191C78.9474 119.935 78.8527 119.737 78.7809 119.597C78.7236 119.452 78.6893 119.365 78.6778 119.336C78.2942 118.362 78.1029 117.236 78.104 115.959C78.1024 114.633 78.1492 113.473 78.2444 112.478C78.2449 112.394 78.2511 112.325 78.263 112.27C78.2691 112.2 78.2753 112.13 78.2815 112.061C78.4549 110.028 78.6522 108.12 78.8736 106.336C79.1037 104.533 79.361 102.819 79.6453 101.196C79.8159 100.222 79.9572 99.3016 80.0692 98.4346C80.1812 97.5676 80.2683 96.7441 80.3305 95.9639C80.3781 95.1894 80.3868 94.38 80.3565 93.5354C80.3262 92.6909 80.2613 91.8013 80.1619 90.8664C80.0668 90.1986 80.0208 89.5702 80.024 88.9812C80.0271 88.3922 80.0693 87.8382 80.1504 87.3193C80.3126 86.2814 80.7968 85.5281 81.6031 85.0595C81.6991 85.0049 81.7907 84.9604 81.878 84.926C81.974 84.8714 82.0729 84.8241 82.1747 84.784C83.1924 84.3832 84.0248 84.4501 84.6718 84.9845C84.9723 85.2356 85.2083 85.5793 85.3801 86.0154C85.6492 86.6987 85.7691 87.6003 85.7399 88.7201C85.6485 90.6201 85.436 92.3831 85.1023 94.0091C84.807 95.5192 84.5951 97.156 84.4667 98.9195C84.3979 100.408 84.3391 101.9 84.2905 103.397C84.2418 104.894 84.2075 106.427 84.1875 107.997C84.1826 108.368 84.1749 108.732 84.1643 109.089C84.1537 109.446 84.1503 109.8 84.1543 110.151C84.1454 110.726 84.1246 111.355 84.0919 112.04C84.0681 112.704 84.0279 113.433 83.9714 114.228C83.8673 115.797 83.6074 117.184 83.1919 118.389C82.7966 119.603 82.2137 120.361 81.4431 120.665C81.3123 120.716 81.2149 120.746 81.151 120.755ZM73.0053 97.6395C72.0604 97.4575 71.4472 97.0944 71.1657 96.5503C71.0279 96.2855 70.9072 96.0644 70.8037 95.8868C70.7147 95.7036 70.6502 95.561 70.6101 95.4593C70.3353 94.7614 70.2057 94.0484 70.2212 93.3202C70.2688 92.5458 70.4951 91.7345 70.9001 90.8866C71.2874 90.0791 71.704 89.4952 72.1498 89.1349C72.5433 88.812 72.8563 88.6048 73.0889 88.5132C73.5396 88.3357 74.0343 88.334 74.5731 88.5081C75.2937 88.8456 75.8001 89.3851 76.0921 90.1266C76.1207 90.1992 76.1522 90.2792 76.1865 90.3664C76.2152 90.4391 76.2365 90.5147 76.2506 90.5931C76.5267 91.5927 76.5515 92.6577 76.3249 93.7881C76.0926 94.9039 75.7529 95.7682 75.3057 96.3809C74.8673 96.9734 74.4373 97.3527 74.0157 97.5187C73.7249 97.6332 73.3881 97.6735 73.0053 97.6395ZM90.8223 116.593C89.8862 116.391 89.2775 116.018 88.996 115.474C88.8524 115.194 88.7289 114.966 88.6254 114.788C88.5364 114.605 88.469 114.455 88.4232 114.339C88.1541 113.656 88.0375 112.954 88.0732 112.235C88.1209 111.461 88.3472 110.649 88.7521 109.801C89.1571 108.953 89.5636 108.365 89.9715 108.036C90.3852 107.722 90.7011 107.522 90.9192 107.437C91.3844 107.253 91.882 107.259 92.4119 107.453C93.1212 107.762 93.6246 108.294 93.9223 109.05C93.951 109.123 93.9825 109.203 94.0168 109.29C94.0454 109.363 94.0668 109.438 94.0809 109.516C94.357 110.516 94.3818 111.581 94.1552 112.711C93.9229 113.827 93.5832 114.692 93.136 115.304C92.683 115.903 92.2457 116.285 91.8241 116.451C91.5043 116.577 91.1704 116.624 90.8223 116.593Z" fill="black"/>
</svg>
