<svg width="198" height="201" viewBox="0 0 198 201" fill="none" xmlns="http://www.w3.org/2000/svg">
<rect x="0.0287476" y="72.2876" width="142" height="149" rx="10" transform="rotate(-30.4675 0.0287476 72.2876)" fill="#56D6E5" fill-opacity="0.8"/>
<path d="M92.7185 187.431C91.9883 187.679 91.3242 187.782 90.7261 187.742C90.1279 187.701 89.5866 187.551 89.102 187.292C88.6174 187.033 88.1827 186.692 87.7978 186.269C87.4175 185.828 87.0722 185.344 86.7619 184.816C86.2535 183.952 85.8855 183.006 85.6577 181.976C85.4345 180.929 85.242 179.819 85.0802 178.645C84.9303 177.646 84.756 176.63 84.5572 175.599C84.3697 174.561 84.0809 173.492 83.6907 172.393C83.6055 172.171 83.4282 171.754 83.1588 171.142C82.8961 170.541 82.6693 170.04 82.4785 169.639C82.3775 169.441 82.2906 169.281 82.218 169.157C82.1566 169.027 82.1028 168.923 82.0566 168.844C81.9113 168.598 81.7988 168.445 81.7189 168.386C81.6522 168.35 81.5852 168.351 81.5179 168.391C81.4617 168.424 81.3941 168.501 81.3149 168.624C81.2403 168.728 81.1643 168.856 81.0871 169.007C81.0033 169.147 80.9148 169.305 80.8217 169.48C80.5603 170.012 80.2464 170.544 79.88 171.077C79.5249 171.603 79.1116 172.004 78.6403 172.282C78.5954 172.308 78.5505 172.335 78.5056 172.361C78.4607 172.387 78.4125 172.408 78.361 172.423C77.7734 172.709 77.0278 172.687 76.124 172.357C75.2809 171.977 74.6382 171.411 74.1958 170.659C74.0836 170.468 73.9849 170.262 73.8997 170.04C73.4514 168.944 73.5544 167.886 74.2086 166.867C74.7169 166.19 75.3863 165.608 76.2168 165.119C76.3403 165.047 76.467 164.98 76.5971 164.918C76.7317 164.839 76.8641 164.769 76.9942 164.707C77.5883 164.433 78.1587 164.196 78.7053 163.995C79.2632 163.788 79.8085 163.611 80.3412 163.463C80.9301 163.283 81.449 163.061 81.8979 162.797L82.1168 162.668C82.6806 162.291 83.2476 161.791 83.818 161.169C84.0907 160.888 84.3778 160.605 84.6795 160.322C84.9746 160.028 85.2965 159.74 85.645 159.459C85.9936 159.179 86.2983 158.939 86.559 158.741C86.831 158.535 87.0736 158.37 87.2869 158.244C87.7021 158 88.0731 157.835 88.3999 157.748C89.1783 157.608 89.7454 157.75 90.1012 158.175C90.2847 158.384 90.4349 158.575 90.5518 158.748C90.6733 158.903 90.7703 159.043 90.843 159.166C91.1202 159.638 91.3134 160.158 91.4223 160.729C91.5801 161.588 91.4587 162.331 91.058 162.96C90.9134 163.151 90.7177 163.319 90.4708 163.464C90.3136 163.556 90.141 163.635 89.9529 163.701C89.7132 163.781 89.4703 163.856 89.224 163.925C88.9712 163.984 88.7094 164.039 88.4387 164.093C87.9779 164.183 87.6076 164.272 87.3277 164.361C87.0477 164.45 86.8461 164.531 86.7226 164.604C86.5655 164.696 86.4496 164.795 86.375 164.899C85.7862 165.593 85.9658 167.285 86.9139 169.975C87.0295 170.3 87.1506 170.621 87.2774 170.94C87.4154 171.251 87.559 171.56 87.7082 171.865C88.0178 172.468 88.2486 172.899 88.4004 173.157C88.5919 173.482 88.7913 173.796 88.9986 174.097C89.1993 174.386 89.4145 174.675 89.6443 174.963C90.2939 175.759 90.9884 176.272 91.7278 176.502C92.0777 176.583 92.4154 176.656 92.7409 176.722C93.0776 176.78 93.3988 176.826 93.7044 176.857C94.568 176.938 95.3681 177.117 96.1049 177.394C96.8549 177.693 97.5811 178.286 98.2836 179.171L98.3826 179.34C98.924 180.26 98.9309 181.261 98.4035 182.341C97.8509 183.482 97.1472 184.417 96.2923 185.147C95.4374 185.876 94.7181 186.413 94.1346 186.756C93.6295 187.053 93.1575 187.278 92.7185 187.431ZM99.9066 178.194C99.1744 176.872 98.7191 175.418 98.5408 173.831C98.3691 172.255 98.3189 170.706 98.3902 169.184C98.4179 168.563 98.4136 168.029 98.3772 167.582C98.3521 167.129 98.295 166.762 98.2059 166.482C98.0164 165.929 97.8226 165.484 97.6246 165.147C97.3275 164.642 96.93 164.121 96.4322 163.583C95.6558 162.725 95.1257 162.055 94.8418 161.572C94.5579 161.09 94.406 160.832 94.3862 160.798C93.8448 159.878 93.5065 158.982 93.3711 158.109C93.2073 157.163 93.3212 156.266 93.7126 155.416C94.1153 154.56 94.8946 153.792 96.0506 153.111C97.0158 152.544 97.9489 152.32 98.8501 152.439C99.7803 152.556 100.504 152.849 101.02 153.315C101.536 153.782 101.926 154.24 102.19 154.689C102.388 155.025 102.558 155.417 102.699 155.862C103.02 157.049 103.424 158.057 103.913 158.887C104.21 159.393 104.549 159.828 104.93 160.193C105.82 161.089 106.788 161.721 107.834 162.087C108.366 162.272 108.897 162.443 109.428 162.6C109.951 162.745 110.485 162.869 111.029 162.972C111.845 163.127 112.637 163.318 113.405 163.545C114.174 163.773 114.909 164.111 115.611 164.559C116.359 165.086 116.944 165.709 117.367 166.427C117.459 166.584 117.544 166.753 117.62 166.935C117.701 167.099 117.777 167.266 117.847 167.436C118.266 168.61 118.335 169.793 118.054 170.985C117.76 172.155 117.073 173.118 115.992 173.875L115.875 173.944C115.033 174.439 114.121 174.674 113.138 174.647C112.109 174.618 111.21 174.309 110.44 173.72C110.118 173.456 109.882 173.194 109.73 172.936C109.644 172.79 109.561 172.636 109.479 172.472C109.409 172.302 109.329 172.114 109.24 171.91C109.011 171.29 108.507 170.317 107.727 168.993C107.353 168.382 107.051 167.895 106.822 167.531C106.593 167.168 106.41 166.883 106.274 166.676C106.137 166.469 106.031 166.328 105.956 166.251C105.892 166.168 105.826 166.108 105.76 166.072C105.293 165.818 104.863 165.806 104.47 166.037C104.324 166.123 104.197 166.228 104.089 166.352C103.611 166.875 103.403 167.625 103.463 168.601C103.514 168.995 103.624 169.337 103.796 169.629C103.882 169.775 103.988 169.916 104.114 170.054C104.302 170.245 104.532 170.443 104.802 170.646C105.084 170.843 105.396 171.052 105.738 171.274C105.945 171.394 106.165 171.537 106.398 171.702C107.323 172.35 107.994 173.028 108.41 173.735C108.806 174.409 108.967 175.107 108.894 175.83C108.736 177.282 107.736 178.611 105.892 179.817L105.757 179.896C104.478 180.649 103.369 180.87 102.432 180.561C101.488 180.24 100.672 179.496 99.9858 178.329L99.9066 178.194ZM98.8632 159.819C98.8896 160.12 98.9391 160.461 99.0118 160.841C99.0844 161.222 99.1646 161.499 99.2524 161.674C99.294 161.771 99.3313 161.847 99.3644 161.903C99.3974 161.959 99.4205 161.998 99.4337 162.021C99.5855 162.279 99.7638 162.454 99.9684 162.545C100.222 162.667 100.54 162.617 100.921 162.392C101.258 162.194 101.478 162.004 101.583 161.822C101.691 161.622 101.747 161.446 101.748 161.294C101.749 161.142 101.715 161.019 101.644 160.925C101.585 160.824 101.555 160.773 101.555 160.773C101.41 160.526 101.214 160.309 100.968 160.121C100.068 159.337 99.5376 158.923 99.3771 158.882C99.1989 158.835 99.0817 158.829 99.0256 158.862C98.8909 158.941 98.8368 159.26 98.8632 159.819ZM132.422 162.782C130.997 162.774 129.969 162.503 129.337 161.968C128.714 161.474 128.24 160.952 127.917 160.402C127.613 159.886 127.373 159.31 127.195 158.674C127.139 158.45 127.052 158.199 126.933 157.921C126.826 157.637 126.7 157.318 126.553 156.967C126.244 156.287 125.981 155.762 125.763 155.392C125.492 154.932 125.201 154.514 124.889 154.138C124.328 153.441 123.737 153.245 123.116 153.55C122.745 153.768 122.653 154.125 122.839 154.62C123.033 155.155 123.245 155.619 123.476 156.012C123.549 156.136 123.628 156.27 123.714 156.416C123.804 156.544 123.898 156.678 123.995 156.817C124.26 157.19 124.533 157.551 124.813 157.899C125.105 158.241 125.405 158.571 125.712 158.889C125.863 159.042 126 159.211 126.123 159.395C126.258 159.572 126.382 159.757 126.494 159.947C126.831 160.52 127.098 161.193 127.297 161.967C127.612 163.248 127.61 164.412 127.29 165.461C126.979 166.55 126.364 167.366 125.443 167.907C125.387 167.94 125.326 167.976 125.258 168.016C125.191 168.056 125.12 168.09 125.046 168.118C123.561 168.675 122.271 168.678 121.177 168.128C120.077 167.567 119.279 166.866 118.784 166.024C118.566 165.654 118.394 165.271 118.268 164.877C117.917 163.664 117.8 162.426 117.918 161.163C118.036 159.9 118.212 158.671 118.446 157.476C118.758 155.978 118.901 154.693 118.874 153.621C118.814 153.158 118.694 152.775 118.516 152.472C118.324 152.147 118.073 151.886 117.762 151.692C117.434 151.492 117.079 151.301 116.699 151.116C116.318 150.932 115.913 150.77 115.484 150.63C114.963 150.438 114.455 150.23 113.962 150.007C113.472 149.766 113.033 149.481 112.643 149.152C112.248 148.764 111.946 148.391 111.734 148.032C111.384 147.437 111.244 146.84 111.314 146.239C111.446 145.256 112.056 144.444 113.144 143.803C114.233 143.163 115.096 142.897 115.734 143.005C116.354 143.109 116.814 143.352 117.114 143.734C117.386 144.118 117.597 144.439 117.749 144.697C117.855 144.877 117.958 145.065 118.059 145.263C118.154 145.449 118.246 145.644 118.335 145.848C118.432 146.063 118.534 146.275 118.641 146.484C118.749 146.692 118.859 146.892 118.971 147.083C119.017 147.161 119.064 147.24 119.11 147.319C119.156 147.397 119.208 147.472 119.265 147.544C119.634 148.068 119.919 148.308 120.12 148.265C120.317 148.24 120.449 148.208 120.516 148.168C120.707 148.056 120.803 147.833 120.803 147.501C120.799 147.186 120.672 146.815 120.421 146.389C120.368 146.299 120.306 146.207 120.236 146.112C120.17 146 120.098 145.891 120.021 145.786C119.696 145.388 119.421 144.998 119.197 144.616C118.695 143.763 118.449 142.934 118.458 142.128C118.534 141.358 118.841 140.634 119.378 139.955C119.933 139.281 120.491 138.779 121.053 138.449C121.142 138.396 121.235 138.349 121.332 138.307C121.433 138.248 121.532 138.197 121.628 138.156C122.452 137.837 123.149 137.955 123.718 138.512C123.763 138.561 123.805 138.62 123.844 138.687C123.895 138.748 123.937 138.806 123.97 138.862C124.201 139.255 124.345 139.744 124.403 140.33C124.448 140.741 124.478 141.177 124.492 141.637C124.517 142.091 124.527 142.583 124.523 143.115C124.533 143.184 124.538 143.257 124.537 143.333C124.537 143.408 124.536 143.484 124.536 143.56C124.543 143.933 124.547 144.286 124.546 144.619C124.55 144.934 124.55 145.229 124.545 145.503C124.498 146.604 124.526 147.358 124.63 147.765C124.709 148.157 124.808 148.453 124.927 148.655C125.112 148.97 125.392 149.266 125.767 149.544C126.379 149.969 127.386 150.487 128.788 151.097C129.444 151.391 130.085 151.671 130.71 151.938C131.329 152.193 131.944 152.443 132.556 152.687C133.108 152.907 133.58 153.105 133.971 153.283C134.374 153.453 134.699 153.595 134.946 153.706C135.995 154.207 136.739 154.751 137.176 155.34C137.606 155.918 137.868 156.285 137.96 156.442C138.508 157.374 138.67 158.419 138.445 159.579C138.287 160.336 137.799 160.971 136.982 161.482L136.915 161.521C135.512 162.347 134.014 162.767 132.422 162.782Z" fill="black"/>
<path d="M78.2523 110.1C75.1536 110.083 72.9172 109.493 71.543 108.33C70.1875 107.254 69.1579 106.118 68.4542 104.922C67.7937 103.799 67.2703 102.547 66.884 101.164C66.7619 100.677 66.5723 100.131 66.3153 99.527C66.0827 98.9081 65.8069 98.216 65.4882 97.4507C64.8161 95.9732 64.2431 94.8317 63.7693 94.0261C63.1805 93.0253 62.5473 92.1164 61.8695 91.2994C60.6489 89.7832 59.3631 89.3567 58.0119 90.0202C57.2064 90.494 57.0054 91.2694 57.4089 92.3463C57.8311 93.5108 58.2935 94.5203 58.7961 95.3746C58.954 95.6431 59.1264 95.936 59.313 96.2534C59.5098 96.5319 59.7137 96.8227 59.9248 97.1256C60.5006 97.9369 61.0936 98.7216 61.7039 99.4797C62.3386 100.224 62.9905 100.941 63.6597 101.631C63.9871 101.964 64.285 102.331 64.5536 102.732C64.8465 103.118 65.115 103.519 65.3591 103.934C66.0915 105.179 66.6738 106.643 67.1061 108.328C67.7911 111.112 67.7861 113.645 67.0912 115.926C66.415 118.296 65.0761 120.069 63.0745 121.246C62.9524 121.318 62.8182 121.397 62.6717 121.483C62.5253 121.57 62.3716 121.643 62.2108 121.705C58.9801 122.916 56.1751 122.923 53.7957 121.727C51.4021 120.507 49.6667 118.981 48.5897 117.15C48.1159 116.345 47.7418 115.513 47.4675 114.656C46.7035 112.017 46.45 109.324 46.7069 106.577C46.9639 103.83 47.3464 101.157 47.8547 98.5583C48.5337 95.3003 48.8445 92.5053 48.787 90.1734C48.6549 89.1668 48.3949 88.334 48.0072 87.675C47.5908 86.9671 47.0444 86.4014 46.3681 85.9778C45.653 85.5442 44.8819 85.1271 44.0548 84.7265C43.2277 84.3259 42.3468 83.9734 41.412 83.669C40.2791 83.2512 39.1756 82.7997 38.1015 82.3144C37.0375 81.7903 36.0812 81.17 35.2325 80.4535C34.3753 79.6107 33.7169 78.7987 33.2574 78.0176C32.4963 76.7239 32.1918 75.4244 32.344 74.1192C32.6297 71.9797 33.9564 70.2135 36.3241 68.8206C38.6919 67.4277 40.5693 66.849 41.9564 67.0844C43.3047 67.3098 44.3055 67.8382 44.9589 68.6695C45.5491 69.5052 46.0093 70.2038 46.3396 70.7652C46.5693 71.1557 46.7941 71.5657 47.0138 71.995C47.2191 72.3999 47.4194 72.8242 47.6147 73.2679C47.8244 73.736 48.0463 74.1969 48.2803 74.6507C48.5144 75.1044 48.7535 75.5387 48.9976 75.9537C49.0981 76.1246 49.1986 76.2954 49.2992 76.4663C49.3997 76.6372 49.5124 76.8009 49.6373 76.9574C50.4386 78.096 51.0582 78.6187 51.4961 78.5253C51.924 78.4707 52.2112 78.4004 52.3577 78.3142C52.7726 78.0701 52.9808 77.5862 52.9822 76.8625C52.9736 76.1776 52.6964 75.3713 52.1508 74.4438C52.0359 74.2485 51.9016 74.0482 51.748 73.8428C51.6044 73.5987 51.4486 73.3618 51.2806 73.1321C50.5741 72.2663 49.9767 71.4184 49.4885 70.5885C48.3972 68.7333 47.8615 66.9291 47.8815 65.1759C48.0466 63.5016 48.7135 61.9264 49.8823 60.4503C51.0899 58.9842 52.3039 57.8922 53.5244 57.1742C53.7196 57.0593 53.9221 56.9566 54.1317 56.8662C54.3514 56.7369 54.5661 56.6271 54.7757 56.5366C56.5691 55.843 58.0847 56.1014 59.3225 57.3118C59.4187 57.4195 59.5099 57.5466 59.5961 57.6931C59.7066 57.8252 59.7978 57.9522 59.8696 58.0743C60.3722 58.9286 60.686 59.9926 60.8109 61.2662C60.9101 62.1608 60.9747 63.1085 61.0049 64.1093C61.0595 65.0958 61.0818 66.1669 61.0718 67.3228C61.0947 67.4736 61.1055 67.6316 61.1041 67.7967C61.1027 67.9618 61.1012 68.1269 61.0998 68.2921C61.1171 69.1034 61.125 69.8708 61.1236 70.5945C61.1322 71.2795 61.1315 71.9206 61.1215 72.5179C61.0182 74.9116 61.0793 76.5514 61.3047 77.4373C61.4771 78.2888 61.6925 78.9342 61.9509 79.3736C62.353 80.0571 62.9619 80.701 63.7775 81.3055C65.11 82.2302 67.3005 83.3566 70.349 84.6847C71.7763 85.3236 73.1698 85.9331 74.5296 86.5132C75.8751 87.0688 77.2134 87.6122 78.5445 88.1435C79.7449 88.6202 80.7708 89.0516 81.6223 89.4378C82.4982 89.8097 83.2047 90.117 83.7418 90.3596C86.0249 91.448 87.6417 92.6325 88.5923 93.9133C89.5286 95.1697 90.0972 95.9687 90.2983 96.3105C91.4901 98.3365 91.842 100.61 91.3539 103.132C91.0093 104.78 89.9482 106.16 88.1706 107.271L88.0242 107.358C84.9729 109.153 81.7156 110.067 78.2523 110.1ZM102.17 99.2328C100.13 99.8417 98.8319 99.7018 98.2762 98.813C97.9933 98.388 97.7679 98.0606 97.5998 97.8308C97.4562 97.5867 97.3701 97.4403 97.3414 97.3915C96.3793 95.756 95.7187 93.7953 95.3596 91.5094C94.9819 89.1359 94.7377 87.0452 94.6271 85.2374C94.6041 85.0866 94.5955 84.9603 94.6013 84.8583C94.5926 84.732 94.584 84.6056 94.5754 84.4793C94.3111 80.7904 94.125 77.3185 94.0172 74.0633C93.9195 70.7693 93.8957 67.629 93.9458 64.6424C93.9759 62.8504 93.9687 61.1625 93.9241 59.5787C93.8795 57.9949 93.8027 56.4958 93.6935 55.0815C93.5599 53.6815 93.3466 52.2298 93.0537 50.7264C92.7607 49.223 92.393 47.6486 91.9507 46.0031C91.5917 44.8342 91.3318 43.7222 91.1709 42.6668C91.0101 41.6114 90.9289 40.6077 90.9274 39.6557C90.9245 37.7517 91.5785 36.2663 92.8895 35.1993C93.046 35.0744 93.1974 34.9689 93.3439 34.8827C93.5004 34.7578 93.6641 34.6451 93.835 34.5445C95.5437 33.5394 97.0528 33.4237 98.3623 34.1976C98.9712 34.5623 99.491 35.1108 99.9218 35.8431C100.597 36.9904 101.066 38.5705 101.331 40.5837C101.704 44.0111 101.822 47.2275 101.684 50.2329C101.582 53.02 101.666 56.0102 101.934 59.2036C102.232 61.8873 102.548 64.576 102.884 67.2698C103.22 69.9635 103.592 72.7182 104 75.534C104.097 76.2003 104.186 76.8543 104.267 77.4962C104.349 78.138 104.443 78.7727 104.55 79.4002C104.696 80.4311 104.837 81.564 104.972 82.7989C105.117 83.995 105.251 85.3124 105.375 86.7512C105.632 89.59 105.559 92.1466 105.155 94.4211C104.791 96.7056 103.962 98.2284 102.668 98.9894C102.448 99.1187 102.282 99.1998 102.17 99.2328ZM81.0527 60.152C79.3096 60.0932 78.1091 59.6165 77.4515 58.722C77.1298 58.2869 76.8512 57.9251 76.6157 57.6365C76.4047 57.3335 76.2489 57.0966 76.1483 56.9257C75.4591 55.7541 75.0254 54.5142 74.8473 53.2061C74.7137 51.8061 74.8896 50.2898 75.3748 48.6571C75.84 47.1021 76.4208 45.939 77.1172 45.1679C77.7303 44.4786 78.2321 44.0191 78.6227 43.7893C79.3794 43.3442 80.2646 43.2013 81.2783 43.3606C82.664 43.7612 83.723 44.5839 84.4553 45.8288C84.5271 45.9509 84.6061 46.0851 84.6923 46.2316C84.7641 46.3537 84.8237 46.4829 84.8711 46.6193C85.6479 48.3309 85.9933 50.2305 85.9073 52.3183C85.8068 54.3817 85.4429 56.0251 84.8154 57.2485C84.198 58.4332 83.5354 59.2337 82.8275 59.6501C82.3393 59.9373 81.7477 60.1046 81.0527 60.152ZM118.309 89.0489C116.576 88.9513 115.38 88.4553 114.723 87.5607C114.387 87.1013 114.101 86.7272 113.865 86.4386C113.654 86.1356 113.491 85.8865 113.376 85.6912C112.701 84.544 112.294 83.3213 112.155 82.0233C112.021 80.6233 112.197 79.107 112.683 77.4744C113.168 75.8417 113.729 74.6736 114.367 73.97C115.019 73.2908 115.528 72.8435 115.894 72.6281C116.675 72.1686 117.567 72.0379 118.571 72.236C119.928 72.5878 120.98 73.3983 121.726 74.6676C121.798 74.7896 121.877 74.9239 121.963 75.0704C122.035 75.1924 122.095 75.3216 122.142 75.458C122.919 77.1696 123.264 79.0693 123.178 81.1571C123.078 83.2205 122.714 84.8639 122.087 86.0873C121.445 87.2863 120.77 88.094 120.062 88.5104C119.525 88.8263 118.941 89.0058 118.309 89.0489Z" fill="black"/>
</svg>
