<svg width="267" height="84" viewBox="0 0 267 84" fill="none" xmlns="http://www.w3.org/2000/svg">
<rect x="2.5" y="2.5" width="262" height="79" rx="17.5" fill="#FFC700" stroke="black" stroke-width="5"/>
<path d="M103.886 37.5908C104.195 37.4606 104.813 37.2897 105.741 37.0781C106.555 36.8991 107.45 36.6712 108.427 36.3945C110.771 35.7272 112.113 34.7751 112.455 33.5381C111.511 33.1475 110.429 32.9521 109.208 32.9521C107.792 32.9521 106.197 33.1068 104.423 33.416L103.983 33.5381C103.935 34.8402 103.902 36.1911 103.886 37.5908ZM105.058 49.1387C106.409 49.0573 107.084 48.5853 107.084 47.7227C107.068 46.8763 106.303 46.0381 104.789 45.208C104.594 45.1266 104.407 45.029 104.228 44.915C104.39 46.4775 104.667 47.8854 105.058 49.1387ZM104.472 56.8291C98.417 56.8291 95.3896 51.1325 95.3896 39.7393C95.3896 37.3467 95.4873 34.8239 95.6826 32.1709C95.7477 31.0153 95.7965 30.0225 95.8291 29.1924C95.8291 28.1507 96.236 27.2637 97.0498 26.5312C97.8636 25.7988 98.8402 25.4326 99.9795 25.4326C100.907 25.4326 101.737 25.6849 102.47 26.1895C104.927 25.75 107.304 25.5303 109.599 25.5303C111.601 25.5303 113.554 25.8314 115.458 26.4336C117.362 27.0358 118.876 28.2402 119.999 30.0469C120.731 31.3815 121.098 32.6266 121.098 33.7822C121.098 34.2705 120.951 35.0192 120.658 36.0283C120.382 37.0212 119.535 38.1198 118.119 39.3242C116.703 40.5124 115.059 41.5296 113.188 42.376C114.685 44.2314 115.434 46.1357 115.434 48.0889C115.434 49.863 114.84 51.4906 113.651 52.9717C112.463 54.4365 110.689 55.527 108.329 56.2432C106.913 56.6338 105.627 56.8291 104.472 56.8291ZM133.793 55.2178C131.824 55.2178 130.212 54.8109 128.959 53.9971C127.266 52.8903 126.046 51.3278 125.297 49.3096C124.564 47.2751 124.166 45.4766 124.101 43.9141C124.052 42.3516 124.027 41.2367 124.027 40.5693C124.027 37.249 124.394 33.4079 125.126 29.0459C125.305 27.9717 125.801 27.1497 126.615 26.5801C127.429 26.0104 128.308 25.7256 129.252 25.7256C130.652 25.7907 131.718 26.2627 132.45 27.1416C133.069 27.874 133.378 28.6715 133.378 29.5342C133.362 29.876 133.256 30.7956 133.061 32.293C132.654 35.418 132.45 38.2988 132.45 40.9355C132.45 44.1582 132.735 46.1357 133.305 46.8682C133.695 47.3727 134.062 47.625 134.403 47.625C134.908 47.625 135.535 47.2913 136.283 46.624C138.188 44.6872 139.14 41.5622 139.14 37.249C139.14 35.2959 139.066 33.4079 138.92 31.585C138.822 30.348 138.773 29.64 138.773 29.4609C138.773 28.5983 139.05 27.8252 139.604 27.1416C140.417 26.1325 141.524 25.6279 142.924 25.6279C143.852 25.6279 144.682 25.8802 145.414 26.3848C146.293 26.987 146.83 27.8252 147.025 28.8994C147.204 31.2106 147.294 33.709 147.294 36.3945C147.294 43.0352 145.894 48.0238 143.095 51.3604C141.451 53.3298 139.066 54.5667 135.941 55.0713C135.176 55.1689 134.46 55.2178 133.793 55.2178ZM160.941 56.585C159.656 56.585 158.598 56.0804 157.768 55.0713C157.133 54.3063 156.815 53.4111 156.815 52.3857L156.84 52.0195C157.605 48.6667 158.354 45.6963 159.086 43.1084C157.865 41.7412 156.62 40.252 155.351 38.6406C154.081 37.0293 152.982 35.361 152.055 33.6357C151.127 31.9105 150.557 30.1852 150.346 28.46C150.443 27.2881 150.907 26.3359 151.737 25.6035C152.519 24.9199 153.446 24.5781 154.521 24.5781C155.627 24.5781 156.571 24.9525 157.353 25.7012C158.052 26.3848 158.467 27.223 158.598 28.2158C159.9 30.4619 161.21 32.4476 162.528 34.1729C163.782 31.6989 165.458 28.9808 167.558 26.0186C168.323 25.4977 169.128 25.2373 169.975 25.2373C170.202 25.2373 170.642 25.2943 171.293 25.4082C171.96 25.5059 172.652 26.0267 173.368 26.9707C173.873 27.7357 174.125 28.5332 174.125 29.3633C174.125 29.6074 174.068 30.0632 173.954 30.7305C173.856 31.3815 173.336 32.057 172.392 32.7568C170.65 36.0609 169.21 39.3324 168.07 42.5713C166.947 45.8102 165.954 49.2363 165.092 52.8496C164.962 54.0052 164.465 54.9329 163.603 55.6328C162.838 56.2676 161.951 56.585 160.941 56.585Z" fill="black"/>
</svg>
