<svg width="262" height="127" viewBox="0 0 262 127" fill="none" xmlns="http://www.w3.org/2000/svg">
<rect x="11.4079" y="0.842285" width="252" height="97" rx="10" transform="rotate(6.59855 11.4079 0.842285)" fill="#B1A295"/>
<path d="M33.7577 89.8832C33.0254 89.6412 32.433 89.3236 31.9804 88.9304C31.5278 88.5373 31.1861 88.0914 30.9554 87.5929C30.7247 87.0943 30.5833 86.5602 30.5313 85.9905C30.4936 85.4094 30.51 84.8149 30.5803 84.207C30.6955 83.2111 30.9724 82.2338 31.411 81.2752C31.864 80.3052 32.3797 79.3032 32.9581 78.269C33.4409 77.3811 33.9138 76.4659 34.3767 75.5232C34.8526 74.5821 35.2663 73.5551 35.6179 72.4423C35.6836 72.214 35.7935 71.7745 35.9474 71.1238C36.0998 70.4861 36.2208 69.9495 36.3105 69.5143C36.3489 69.2959 36.3763 69.1155 36.3928 68.9732C36.4222 68.8325 36.4421 68.7168 36.4526 68.6263C36.4855 68.3417 36.4878 68.1519 36.4594 68.0569C36.4281 67.9877 36.3737 67.9486 36.2961 67.9397C36.2314 67.9322 36.1306 67.9533 35.9938 68.003C35.8714 68.0413 35.7338 68.0975 35.5811 68.1715C35.4298 68.2327 35.2641 68.3053 35.084 68.3893C34.5551 68.6558 33.9839 68.8912 33.3704 69.0955C32.7699 69.3013 32.198 69.3728 31.6547 69.3099C31.603 69.3039 31.5512 69.298 31.4995 69.292C31.4478 69.286 31.3968 69.2735 31.3465 69.2546C30.7058 69.1281 30.1241 68.661 29.6015 67.8534C29.1579 67.0418 28.9863 66.2028 29.0865 65.3361C29.112 65.1163 29.1576 64.8921 29.2233 64.6638C29.5261 63.5191 30.2457 62.7373 31.3821 62.3182C32.1956 62.0846 33.0809 62.0232 34.0381 62.1339C34.1804 62.1504 34.3219 62.1733 34.4627 62.2027C34.6179 62.2207 34.7659 62.2443 34.9067 62.2737C35.5459 62.4132 36.1441 62.5676 36.7013 62.7369C37.2714 62.9077 37.8133 63.0949 38.3272 63.2986C38.9057 63.5097 39.4537 63.6452 39.9711 63.705L40.2233 63.7342C40.9004 63.7732 41.6541 63.7162 42.4845 63.5632C42.8716 63.5031 43.2708 63.451 43.6823 63.4068C44.0952 63.3497 44.5253 63.3143 44.9726 63.3005C45.4198 63.2867 45.8074 63.2791 46.1352 63.2777C46.476 63.2778 46.7693 63.2921 47.015 63.3205C47.4936 63.3759 47.8894 63.4675 48.2022 63.5955C48.9081 63.9524 49.2749 64.4077 49.3026 64.9614C49.3229 65.239 49.3275 65.4821 49.3165 65.6905C49.32 65.8875 49.3134 66.0572 49.297 66.1994C49.2341 66.7427 49.0743 67.2747 48.8174 67.7955C48.4257 68.576 47.8805 69.0962 47.1819 69.3562C46.9516 69.4213 46.6941 69.4374 46.4096 69.4045C46.2285 69.3835 46.0432 69.3425 45.8536 69.2812C45.6139 69.201 45.3748 69.1144 45.1366 69.0213C44.8998 68.9153 44.6573 68.802 44.4091 68.6815C43.9873 68.4755 43.6378 68.3236 43.3607 68.226C43.0836 68.1284 42.874 68.0714 42.7317 68.055C42.5506 68.034 42.3989 68.0427 42.2765 68.0809C41.3884 68.2797 40.5118 69.7381 39.6469 72.4562C39.5433 72.785 39.4462 73.1146 39.3556 73.4449C39.2779 73.7767 39.2066 74.1093 39.1419 74.4426C39.0252 75.1107 38.9497 75.5935 38.9153 75.891C38.8719 76.2661 38.8422 76.6362 38.8262 77.0014C38.8117 77.3536 38.8093 77.7138 38.8192 78.0819C38.8577 79.1088 39.1027 79.9367 39.5543 80.5657C39.7845 80.8414 40.0098 81.1034 40.2301 81.3517C40.4634 81.6015 40.6924 81.8311 40.9172 82.0407C41.5573 82.6259 42.088 83.2509 42.5092 83.9157C42.9274 84.6064 43.1497 85.5168 43.1763 86.6472L43.1538 86.8412C43.0311 87.9018 42.4337 88.7044 41.3614 89.2488C40.2329 89.8261 39.1077 90.1482 37.9858 90.215C36.8639 90.2818 35.9667 90.2763 35.2941 90.1985C34.712 90.1312 34.1999 90.0261 33.7577 89.8832ZM62.6592 79.5224C62.4348 81.4626 62.1089 83.26 61.6816 84.9145C61.2672 86.5706 60.6971 87.9858 59.9714 89.1602C59.2457 90.3346 58.3365 91.2256 57.2438 91.8332C56.1656 92.4294 54.8504 92.6377 53.2982 92.4582C51.759 92.2801 50.5428 91.7462 49.6495 90.8564C48.7578 89.9537 48.1188 88.7918 47.7327 87.3709C47.348 85.937 47.1532 84.335 47.1483 82.5648C47.1433 80.7947 47.2545 78.9267 47.482 76.9606C47.7842 74.3478 48.4092 72.0607 49.3571 70.0994C50.3193 68.1266 51.4376 66.6175 52.712 65.5721C53.9864 64.5267 55.2703 64.0788 56.5638 64.2285C57.8702 64.3796 59.0428 65.1772 60.0817 66.6212C61.0962 68.0493 61.8578 69.907 62.3666 72.1941C62.8654 74.4539 62.963 76.8967 62.6592 79.5224ZM54.481 82.2334C55.1924 82.3157 55.7902 82.0768 56.2745 81.5168C56.7587 80.9567 57.1338 80.2071 57.3997 79.2679C57.4904 78.9376 57.5688 78.5993 57.6351 78.2531C57.7014 77.9068 57.7554 77.5526 57.7973 77.1904C57.8332 76.88 57.8707 76.3863 57.9097 75.7092C57.9631 75.0206 57.9231 74.1771 57.7895 73.1786C57.656 72.1801 57.4296 71.3609 57.1104 70.721C56.8056 70.0697 56.414 69.7163 55.9354 69.661C55.7284 69.637 55.5117 69.6972 55.2853 69.8414C55.0604 69.9727 54.8345 70.1694 54.6076 70.4315C54.3936 70.6951 54.1793 71.0177 53.9648 71.3992C53.7632 71.7822 53.57 72.2055 53.3853 72.6691C53.0303 73.5849 52.739 74.5736 52.5113 75.6352C52.4217 76.0705 52.3514 76.508 52.3005 76.9478C52.2332 77.5299 52.2136 78.2092 52.2417 78.9858C52.2455 79.7465 52.4321 80.4562 52.8015 81.115C53.1451 81.7708 53.7049 82.1436 54.481 82.2334ZM68.3318 93.8827C67.5995 93.6407 67.0071 93.3231 66.5545 92.9299C66.1019 92.5368 65.7602 92.0909 65.5295 91.5923C65.2988 91.0938 65.1575 90.5597 65.1054 89.99C65.0677 89.4089 65.0841 88.8144 65.1544 88.2065C65.2696 87.2105 65.5465 86.2333 65.9851 85.2747C66.4381 84.3047 66.9538 83.3027 67.5322 82.2685C68.015 81.3806 68.4879 80.4654 68.9509 79.5227C69.4267 78.5816 69.8405 77.5546 70.192 76.4418C70.2578 76.2135 70.3676 75.774 70.5215 75.1233C70.6739 74.4855 70.795 73.949 70.8846 73.5137C70.923 73.2953 70.9504 73.115 70.9669 72.9727C70.9963 72.8319 71.0162 72.7163 71.0267 72.6257C71.0596 72.3412 71.0619 72.1514 71.0336 72.0563C71.0023 71.9872 70.9478 71.9481 70.8702 71.9391C70.8055 71.9317 70.7048 71.9528 70.5679 72.0025C70.4455 72.0408 70.308 72.0969 70.1552 72.171C70.0039 72.2322 69.8383 72.3047 69.6581 72.3888C69.1292 72.6553 68.558 72.8907 67.9445 73.095C67.344 73.3008 66.7721 73.3722 66.2288 73.3094C66.1771 73.3034 66.1254 73.2974 66.0736 73.2914C66.0219 73.2855 65.9709 73.273 65.9207 73.2541C65.2799 73.1275 64.6982 72.6605 64.1756 71.8529C63.7321 71.0413 63.5604 70.2022 63.6607 69.3356C63.6861 69.1157 63.7317 68.8916 63.7974 68.6633C64.1002 67.5186 64.8198 66.7368 65.9563 66.3177C66.7697 66.0841 67.6551 66.0227 68.6122 66.1334C68.7545 66.1499 68.896 66.1728 69.0368 66.2022C69.192 66.2201 69.34 66.2438 69.4808 66.2732C70.1201 66.4127 70.7183 66.5671 71.2754 66.7364C71.8455 66.9072 72.3875 67.0944 72.9013 67.298C73.4799 67.5092 74.0278 67.6446 74.5452 67.7045L74.7974 67.7337C75.4745 67.7727 76.2282 67.7157 77.0586 67.5627C77.4457 67.5026 77.8449 67.4505 78.2564 67.4063C78.6693 67.3492 79.0994 67.3138 79.5467 67.3C79.9939 67.2862 80.3815 67.2786 80.7094 67.2772C81.0501 67.2773 81.3434 67.2915 81.5892 67.32C82.0678 67.3753 82.4635 67.467 82.7764 67.5949C83.4822 67.9518 83.849 68.4072 83.8767 68.9609C83.897 69.2385 83.9017 69.4815 83.8907 69.69C83.8941 69.887 83.8876 70.0566 83.8711 70.1989C83.8083 70.7422 83.6484 71.2742 83.3916 71.795C82.9998 72.5755 82.4546 73.0957 81.7561 73.3557C81.5257 73.4208 81.2683 73.4369 80.9837 73.404C80.8026 73.383 80.6173 73.3419 80.4278 73.2807C80.188 73.2005 79.949 73.1139 79.7107 73.0208C79.4739 72.9147 79.2314 72.8015 78.9832 72.681C78.5614 72.4749 78.2119 72.3231 77.9349 72.2255C77.6578 72.1279 77.4481 72.0709 77.3058 72.0544C77.1247 72.0335 76.973 72.0421 76.8506 72.0804C75.9625 72.2792 75.086 73.7376 74.221 76.4557C74.1175 76.7845 74.0203 77.1141 73.9297 77.4444C73.852 77.7762 73.7808 78.1087 73.716 78.442C73.5994 79.1102 73.5239 79.593 73.4895 79.8905C73.4461 80.2656 73.4164 80.6357 73.4003 81.0008C73.3858 81.3531 73.3835 81.7133 73.3933 82.0814C73.4318 83.1083 73.6768 83.9362 74.1284 84.5652C74.3586 84.8408 74.5839 85.1028 74.8043 85.3511C75.0375 85.601 75.2665 85.8306 75.4914 86.0401C76.1315 86.6254 76.6621 87.2504 77.0833 87.9152C77.5015 88.6058 77.7239 89.5163 77.7504 90.6467L77.728 90.8407C77.6053 91.9013 77.0078 92.7039 75.9355 93.2483C74.807 93.8256 73.6818 94.1476 72.56 94.2145C71.4381 94.2813 70.5408 94.2758 69.8682 94.198C69.2862 94.1307 68.774 94.0256 68.3318 93.8827ZM79.6346 90.845C79.847 89.349 80.3603 87.9141 81.1747 86.5403C81.9875 85.1794 82.8811 83.913 83.8555 82.7411C84.2517 82.2627 84.57 81.8342 84.8104 81.4556C85.0637 81.0786 85.2392 80.7515 85.3368 80.4745C85.519 79.9188 85.6326 79.447 85.6775 79.0589C85.7448 78.4769 85.742 77.8212 85.6691 77.0918C85.5664 75.9396 85.5473 75.0854 85.6116 74.5292C85.676 73.973 85.7104 73.6755 85.7149 73.6367C85.8375 72.576 86.1077 71.657 86.5253 70.8795C86.9649 70.0259 87.5969 69.3781 88.4214 68.9361C89.2588 68.4955 90.3436 68.3523 91.6759 68.5064C92.7883 68.6351 93.668 69.0187 94.3151 69.6572C94.9865 70.3116 95.3875 70.9806 95.5182 71.6642C95.6488 72.3478 95.6842 72.9483 95.6244 73.4657C95.5795 73.8537 95.4791 74.2681 95.3233 74.7088C94.8637 75.8485 94.5786 76.8969 94.4679 77.854C94.4006 78.4361 94.4089 78.9876 94.4928 79.5085C94.6626 80.7602 95.0545 81.8477 95.6687 82.7707C95.9815 83.2394 96.3022 83.696 96.6309 84.1403C96.9612 84.5718 97.3123 84.9925 97.6843 85.4026C98.2423 86.0176 98.7593 86.6476 99.2352 87.2925C99.7111 87.9374 100.094 88.6502 100.384 89.4309C100.663 90.3021 100.755 91.1516 100.659 91.9794C100.638 92.1605 100.604 92.3465 100.555 92.5375C100.521 92.7171 100.481 92.896 100.434 93.0741C100.061 94.263 99.4028 95.2486 98.4603 96.0309C97.5208 96.7873 96.3919 97.1417 95.0735 97.0941L94.9377 97.0783C93.9676 96.9661 93.0986 96.6034 92.3306 95.9903C91.5268 95.3468 90.9955 94.5579 90.7366 93.6235C90.6392 93.219 90.6077 92.868 90.6421 92.5705C90.6615 92.4023 90.6882 92.2285 90.7221 92.0489C90.7689 91.8708 90.818 91.6733 90.8693 91.4564C91.0605 90.8231 91.2444 89.7434 91.4209 88.2171C91.4903 87.5042 91.5432 86.9336 91.5796 86.5052C91.6161 86.0769 91.642 85.7391 91.6575 85.4919C91.673 85.2446 91.6738 85.0677 91.6599 84.9613C91.659 84.8563 91.6428 84.7692 91.6115 84.7001C91.3922 84.2159 91.0563 83.9477 90.6036 83.8953C90.4354 83.8759 90.2707 83.883 90.1095 83.9168C89.413 84.046 88.7947 84.5184 88.2547 85.3342C88.0576 85.6784 87.9396 86.0186 87.9007 86.3549C87.8812 86.5231 87.8804 86.6999 87.8983 86.8855C87.933 87.1517 87.9971 87.4475 88.0905 87.7729C88.1969 88.0997 88.3197 88.4547 88.4589 88.8379C88.5514 89.0583 88.6408 89.3046 88.7273 89.5767C89.0748 90.6524 89.2014 91.5977 89.1071 92.4126C89.0173 93.1887 88.7253 93.843 88.2312 94.3757C87.2299 95.4396 85.6303 95.8968 83.4324 95.7474L83.2772 95.7295C81.8026 95.5589 80.7846 95.0676 80.2232 94.2555C79.6632 93.4305 79.4611 92.3454 79.6167 91.0002L79.6346 90.845ZM89.8776 75.5535C89.7169 75.8102 89.5509 76.1121 89.3796 76.4593C89.2084 76.8065 89.1051 77.0764 89.0697 77.2689C89.0448 77.3709 89.0286 77.4542 89.0211 77.5189C89.0136 77.5836 89.0084 77.6288 89.0054 77.6547C88.971 77.9522 89.008 78.199 89.1164 78.395C89.2447 78.6458 89.5287 78.7966 89.9685 78.8475C90.3565 78.8924 90.647 78.8736 90.8401 78.791C91.0476 78.6971 91.1976 78.5899 91.2902 78.4695C91.3828 78.3492 91.4293 78.23 91.4298 78.1121C91.4433 77.9957 91.45 77.9375 91.45 77.9375C91.483 77.6529 91.4577 77.3616 91.3742 77.0636C91.1292 75.8949 90.9553 75.2456 90.8524 75.1157C90.738 74.9714 90.6484 74.8955 90.5838 74.8881C90.4286 74.8701 90.1932 75.0919 89.8776 75.5535ZM103.173 90.304C103.842 88.7167 104.26 87.1922 104.43 85.7306C104.593 84.3208 104.548 82.723 104.296 80.9374C104.219 80.4697 104.151 79.9769 104.093 79.459C104.048 78.9426 104.008 78.3874 103.971 77.7934C103.888 76.5909 103.901 75.5111 104.012 74.5539C104.024 74.4504 104.037 74.3405 104.05 74.2241C104.064 74.1077 104.083 73.9985 104.108 73.8965C104.3 72.6866 104.72 71.7718 105.369 71.1521C106.019 70.5195 106.926 70.2705 108.09 70.4052C108.18 70.4157 108.271 70.4261 108.362 70.4366C108.452 70.4471 108.548 70.4648 108.65 70.4897C109.274 70.6535 109.831 70.9932 110.322 71.5088C110.825 72.0258 111.227 72.6359 111.526 73.3389C111.916 74.3803 112.053 75.4055 111.937 76.4144C111.916 76.5955 111.882 76.775 111.835 76.9531C111.803 77.1198 111.763 77.2922 111.716 77.4702C111.506 78.1538 111.264 78.827 110.991 79.4901C110.732 80.1418 110.434 80.7889 110.098 81.4316C109.995 81.6425 109.892 81.8534 109.789 82.0644C109.687 82.2623 109.591 82.4675 109.501 82.6799C109.09 83.6285 108.793 84.4921 108.612 85.2707C108.443 86.0507 108.331 86.68 108.275 87.1586C108.262 87.275 108.249 87.3849 108.237 87.4884C108.225 87.5919 108.22 87.6961 108.221 87.8011C108.16 88.8951 108.517 89.4869 109.293 89.5767C109.539 89.6051 109.843 89.5289 110.204 89.3479C110.581 89.1555 110.987 88.9272 111.424 88.6632C112.276 88.0933 113.001 87.7184 113.599 87.5385C114.211 87.3471 114.659 87.2679 114.944 87.3008C115.487 87.3636 115.978 87.6498 116.417 88.1594C117.095 89.1029 117.409 89.9519 117.361 90.7066C117.331 91.0832 117.303 91.3815 117.278 91.6014C117.267 91.8098 117.258 91.9399 117.252 91.9917C117.102 93.2851 116.567 94.4553 115.647 95.5023C114.639 96.6179 113.135 97.2107 111.135 97.2808C110.079 97.3422 109.127 97.5334 108.277 97.8546C107.427 98.1757 106.576 98.3394 105.723 98.3456C104.391 98.1915 103.482 97.6604 102.997 96.7523C102.512 95.8443 102.297 95.046 102.35 94.3574C102.376 94.0196 102.395 93.7465 102.406 93.5381C102.431 93.3182 102.449 93.163 102.46 93.0724C102.57 92.1153 102.808 91.1925 103.173 90.304ZM132.855 89.5104C133.541 89.5897 134.226 90.0098 134.912 90.7707C135.842 91.6779 136.657 92.1719 137.355 92.2527C137.446 92.2632 137.557 92.263 137.69 92.252C138.393 92.1761 138.788 91.7631 138.875 91.0129C138.887 90.9094 138.889 90.831 138.882 90.7778C138.91 89.8634 138.357 88.6919 137.225 87.2632C136.788 86.7278 136.33 86.216 135.849 85.7278C135.474 85.3436 135.119 84.9552 134.784 84.5626C134.451 84.157 134.145 83.748 133.865 83.3355C133.303 82.5234 133 81.5773 132.954 80.4972C132.953 80.3923 132.952 80.2873 132.951 80.1823C132.963 80.0788 132.975 79.9754 132.987 79.8719C133.089 78.9923 133.399 78.1238 133.918 77.2662C134.228 76.7385 134.59 76.2692 135.005 75.8584C135.421 75.4346 135.89 75.0629 136.412 74.7431C137.456 74.1037 138.58 73.847 139.784 73.9732C140.987 74.1124 142 74.59 142.823 75.4062C143.647 76.2223 144.2 77.1055 144.483 78.0558C144.766 79.0062 144.862 79.8758 144.771 80.6648C144.755 80.8071 144.731 80.9551 144.7 81.1088C144.669 81.2625 144.633 81.409 144.59 81.5483C144.344 82.3194 143.925 82.9394 143.333 83.4084C142.715 83.8744 142.103 84.0722 141.495 84.0019C141.327 83.9824 141.135 83.9406 140.92 83.8763C140.203 83.6099 139.81 82.8698 139.741 81.6559C139.643 80.6877 139.483 80.1449 139.261 80.0274C139.037 79.9229 138.88 79.8654 138.789 79.8549C138.544 79.8265 138.296 79.9289 138.046 80.1621C137.705 80.5028 137.495 80.957 137.417 81.5246C137.286 82.6499 137.609 83.7686 138.385 84.8808C138.864 85.4998 139.334 86.0261 139.795 86.4595C140.27 86.8815 140.731 87.2625 141.177 87.6024C141.682 87.9886 142.166 88.3985 142.627 88.8319C144.279 90.5304 145.15 91.9485 145.241 93.0863C145.308 94.2082 145.316 94.989 145.265 95.4288C145.119 96.6964 144.632 97.846 143.805 98.8775C142.672 100.28 141.11 101.207 139.118 101.658C137.736 101.931 136.522 102.007 135.474 101.886C134.75 101.802 134.103 101.615 133.533 101.327C132.198 100.635 131.27 99.6428 130.751 98.3506C130.222 97.0311 129.996 95.989 130.071 95.2244C130.125 94.418 130.162 93.9307 130.181 93.7625C130.313 92.6243 130.603 91.6485 131.051 90.8352C131.581 89.8742 132.183 89.4326 132.855 89.5104ZM151.996 103.698C150.461 103.377 149.325 102.767 148.59 101.869C147.857 100.959 147.453 100.027 147.38 99.0748C147.308 98.1097 147.308 97.3167 147.38 96.6958C147.455 96.0491 147.589 95.3961 147.783 94.737C148.378 92.9969 148.739 91.5707 148.868 90.4583C148.892 90.2514 148.907 90.0631 148.914 89.8934C148.922 89.7108 148.922 89.5404 148.914 89.3822C148.856 88.1827 148.651 87.176 148.3 86.362C148.098 85.8405 147.922 85.2631 147.773 84.6298C147.636 83.9979 147.575 83.224 147.589 82.3081C147.587 82.2161 147.591 82.1248 147.601 82.0343C147.612 81.9437 147.622 81.8532 147.633 81.7626C147.772 80.5597 148.097 79.4504 148.607 78.4346C149.186 77.2826 149.913 76.495 150.788 76.0719C151.637 75.6458 152.514 75.4851 153.419 75.5898C153.833 75.6377 154.312 75.7456 154.857 75.9134C155.683 76.245 156.144 76.6784 156.24 77.2138C156.319 77.7735 156.337 78.2409 156.294 78.616C156.25 78.9911 156.149 79.4184 155.988 79.8979C155.714 80.7969 155.373 81.7077 154.964 82.6304C154.844 82.8786 154.736 83.1284 154.642 83.3796C154.549 83.6178 154.456 83.8561 154.362 84.0944C154.009 84.9973 153.674 86.0203 153.359 87.1634C153.201 87.735 153.067 88.27 152.957 88.7685C152.859 89.2685 152.787 89.7254 152.739 90.1393C152.705 90.4368 152.677 90.735 152.655 91.034C152.647 91.3345 152.638 91.635 152.63 91.9355C152.678 92.9897 152.963 93.7567 153.484 94.2364C153.968 94.6987 154.495 94.9628 155.064 95.0287C155.128 95.0361 155.187 95.0429 155.238 95.0489C155.29 95.0548 155.349 95.0551 155.415 95.0497C156.098 95.0369 156.621 94.8221 156.984 94.4053C157.347 93.9885 157.557 93.5344 157.613 93.0429C157.651 92.7195 157.645 92.378 157.594 92.0183C157.384 90.8929 157.226 89.9309 157.122 89.1324C157.018 88.3339 156.981 87.6874 157.012 87.1928C157.045 86.2267 157.079 85.5949 157.113 85.2974C157.286 83.8099 157.756 82.121 158.525 80.2308C159.057 78.8111 159.691 77.862 160.428 77.3836C161.15 76.9167 161.789 76.7154 162.346 76.7797C162.967 76.8515 163.635 77.1385 164.35 77.6407C165.084 78.2106 165.5 78.8552 165.601 79.5746C165.691 80.2667 165.706 80.8779 165.644 81.4082C165.619 81.6281 165.579 81.8594 165.525 82.1022C165.485 82.3335 165.425 82.569 165.345 82.8088C165.001 83.8569 164.552 84.7881 163.999 85.6024C163.407 86.4121 162.925 87.1232 162.553 87.7355C162.182 88.3349 161.92 88.842 161.767 89.2569C161.463 90.0737 161.281 90.7408 161.221 91.2581C161.103 92.28 161.192 93.4372 161.488 94.7298C161.77 95.9159 161.911 96.9152 161.908 97.7276C161.895 98.5256 161.873 99.0539 161.843 99.3126C161.728 100.309 161.442 101.193 160.985 101.966C160.397 102.973 159.382 103.648 157.939 103.993C157.364 104.097 156.632 104.13 155.745 104.093C155.303 104.068 154.893 104.04 154.516 104.01C154.153 103.981 153.822 103.949 153.525 103.915C153.266 103.885 153.008 103.848 152.751 103.805C152.505 103.777 152.254 103.741 151.996 103.698ZM166.693 105.32C165.419 105.002 164.708 104.573 164.561 104.031C164.412 103.503 164.362 103.032 164.41 102.618C164.464 102.152 164.604 101.677 164.83 101.192C165.257 100.219 165.786 99.2182 166.416 98.1901C167.177 96.9411 167.74 95.8134 168.105 94.8071C168.19 94.5285 168.263 94.2355 168.325 93.9281C168.388 93.6077 168.442 93.2599 168.485 92.8848C168.488 92.859 168.49 92.7871 168.49 92.6692C168.504 92.5528 168.522 92.3911 168.546 92.1841C168.596 91.7573 168.59 91.2978 168.529 90.8058C168.453 90.3252 168.358 89.8423 168.244 89.3572C168.144 88.8607 168.026 88.3555 167.889 87.8415C167.604 86.7862 167.393 85.8377 167.254 84.9959C167.13 84.1426 167.105 83.3991 167.178 82.7653C167.22 82.4031 167.284 82.0763 167.37 81.7848C167.626 80.8182 168.213 79.9423 169.129 79.157C170.282 78.2549 171.275 77.8323 172.107 77.8892C172.914 77.9432 173.381 77.9777 173.511 77.9926C174.817 78.1437 176.019 78.5712 177.118 79.275C178.56 80.2938 179.312 81.2721 179.374 82.2099C179.409 82.6989 179.427 83.1074 179.428 83.4353C179.443 83.7646 179.439 84.0198 179.418 84.2009C179.282 85.3779 178.783 86.5196 177.921 87.6258C177.496 88.1271 177.051 88.5213 176.585 88.8082C176.119 89.0951 175.665 89.3375 175.223 89.5354C174.589 89.8029 174.118 90.0826 173.809 90.3745C173.501 90.6535 173.326 90.9806 173.282 91.3557C173.252 91.6144 173.267 91.8848 173.326 92.1669C173.458 92.9554 173.949 94.0871 174.801 95.562C175.535 96.8134 175.963 97.9836 176.086 99.0727C176.217 100.202 176.25 101.051 176.184 101.62C176.093 102.409 175.871 103.137 175.519 103.805C174.9 104.965 173.754 105.632 172.083 105.806C171.753 105.82 171.225 105.798 170.498 105.74C169.782 105.697 169.055 105.632 168.318 105.547C167.943 105.504 167.619 105.466 167.348 105.435C167.091 105.392 166.872 105.354 166.693 105.32ZM172.509 82.5758C172.413 82.722 172.349 82.9374 172.316 83.222C172.31 83.2737 172.304 83.3255 172.298 83.3772C172.292 83.429 172.292 83.4879 172.297 83.5541C172.285 83.9983 172.32 84.4349 172.401 84.8638C172.483 85.2926 172.612 85.5959 172.788 85.7736C172.918 85.8935 173.054 85.9617 173.196 85.9782C173.403 86.0021 173.635 85.9305 173.89 85.7634C174.102 85.6307 174.297 85.4698 174.477 85.2808C174.669 85.0933 174.835 84.9028 174.975 84.7093C175.117 84.5029 175.226 84.2992 175.301 84.0982C175.392 83.8858 175.446 83.6955 175.466 83.5274C175.473 83.4627 175.474 83.4038 175.467 83.3505C175.473 83.2988 175.473 83.2398 175.467 83.1737C175.404 82.8125 175.213 82.5413 174.893 82.3601C174.598 82.1948 174.295 82.0942 173.984 82.0583C173.919 82.0509 173.848 82.0491 173.769 82.053C173.691 82.0441 173.619 82.0423 173.553 82.0478C173.12 82.0501 172.772 82.2261 172.509 82.5758ZM180.701 106.94C179.427 106.623 178.716 106.193 178.569 105.652C178.42 105.123 178.37 104.652 178.418 104.238C178.472 103.773 178.612 103.297 178.838 102.812C179.266 101.839 179.794 100.839 180.424 99.8105C181.185 98.5615 181.748 97.4338 182.113 96.4275C182.198 96.1489 182.271 95.8559 182.333 95.5485C182.396 95.2281 182.45 94.8804 182.493 94.5053C182.496 94.4794 182.498 94.4075 182.498 94.2896C182.512 94.1732 182.531 94.0115 182.554 93.8046C182.604 93.3777 182.598 92.9183 182.537 92.4262C182.461 91.9456 182.367 91.4628 182.252 90.9777C182.152 90.4811 182.034 89.9759 181.897 89.4619C181.612 88.4067 181.401 87.4581 181.263 86.6163C181.138 85.7631 181.113 85.0195 181.186 84.3857C181.228 84.0236 181.292 83.6967 181.378 83.4052C181.634 82.4387 182.221 81.5627 183.137 80.7774C184.29 79.8753 185.283 79.4527 186.115 79.5097C186.922 79.5636 187.39 79.5981 187.519 79.6131C188.825 79.7642 190.028 80.1916 191.126 80.8954C192.568 81.9142 193.32 82.8925 193.382 83.8303C193.417 84.3194 193.435 84.7278 193.437 85.0557C193.451 85.385 193.448 85.6403 193.427 85.8213C193.29 86.9984 192.791 88.14 191.929 89.2462C191.504 89.7476 191.059 90.1417 190.593 90.4286C190.128 90.7155 189.674 90.9579 189.231 91.1558C188.597 91.4233 188.126 91.703 187.817 91.9949C187.509 92.2739 187.334 92.601 187.29 92.9761C187.26 93.2348 187.275 93.5052 187.334 93.7873C187.466 94.5759 187.957 95.7076 188.809 97.1824C189.543 98.4338 189.971 99.6041 190.094 100.693C190.226 101.823 190.258 102.672 190.193 103.241C190.101 104.03 189.879 104.758 189.527 105.425C188.908 106.585 187.762 107.253 186.091 107.426C185.761 107.44 185.233 107.419 184.506 107.361C183.79 107.317 183.063 107.253 182.326 107.168C181.951 107.124 181.627 107.087 181.356 107.055C181.099 107.013 180.88 106.974 180.701 106.94ZM186.517 84.1962C186.421 84.3425 186.357 84.5579 186.324 84.8424C186.318 84.8942 186.312 84.9459 186.306 84.9977C186.3 85.0494 186.3 85.1083 186.305 85.1745C186.293 85.6188 186.328 86.0553 186.409 86.4842C186.491 86.9131 186.62 87.2164 186.796 87.394C186.926 87.5139 187.062 87.5821 187.205 87.5986C187.412 87.6225 187.643 87.551 187.898 87.3839C188.11 87.2511 188.306 87.0902 188.485 86.9012C188.677 86.7137 188.843 86.5232 188.983 86.3297C189.125 86.1233 189.234 85.9196 189.31 85.7187C189.4 85.5063 189.454 85.316 189.474 85.1478C189.481 85.0832 189.482 85.0242 189.475 84.971C189.481 84.9192 189.481 84.8603 189.476 84.7941C189.412 84.4329 189.221 84.1617 188.901 83.9805C188.606 83.8153 188.303 83.7147 187.992 83.6788C187.928 83.6713 187.856 83.6695 187.777 83.6735C187.699 83.6645 187.627 83.6627 187.561 83.6682C187.128 83.6706 186.78 83.8466 186.517 84.1962ZM194.168 100.83C194.836 99.2428 195.255 97.7184 195.424 96.2567C195.587 94.8469 195.543 93.2491 195.291 91.4635C195.214 90.9959 195.146 90.5031 195.088 89.9852C195.043 89.4687 195.002 88.9135 194.966 88.3195C194.882 87.117 194.896 86.0372 195.007 85.08C195.019 84.9766 195.031 84.8666 195.045 84.7502C195.058 84.6338 195.077 84.5246 195.102 84.4226C195.295 83.2127 195.715 82.298 196.364 81.6783C197.014 81.0456 197.921 80.7966 199.085 80.9313C199.175 80.9418 199.266 80.9523 199.356 80.9627C199.447 80.9732 199.543 80.9909 199.645 81.0158C200.268 81.1797 200.825 81.5194 201.316 82.0349C201.82 82.552 202.221 83.162 202.52 83.8651C202.911 84.9065 203.048 85.9316 202.931 86.9405C202.91 87.1216 202.876 87.3012 202.83 87.4793C202.797 87.6459 202.758 87.8183 202.711 87.9964C202.501 88.6799 202.259 89.3532 201.986 90.0163C201.727 90.6679 201.429 91.3151 201.093 91.9577C200.99 92.1687 200.887 92.3796 200.783 92.5905C200.682 92.7885 200.586 92.9936 200.496 93.2061C200.085 94.1547 199.788 95.0182 199.606 95.7968C199.438 96.5768 199.325 97.2061 199.27 97.6847C199.257 97.8011 199.244 97.911 199.232 98.0145C199.22 98.118 199.214 98.2222 199.215 98.3272C199.154 99.4212 199.512 100.013 200.288 100.103C200.534 100.131 200.838 100.055 201.199 99.874C201.575 99.6816 201.982 99.4533 202.419 99.1893C203.271 98.6194 203.996 98.2445 204.594 98.0646C205.206 97.8732 205.654 97.794 205.939 97.8269C206.482 97.8898 206.973 98.176 207.412 98.6855C208.089 99.629 208.404 100.478 208.356 101.233C208.326 101.609 208.298 101.908 208.272 102.127C208.261 102.336 208.253 102.466 208.247 102.518C208.097 103.811 207.562 104.981 206.641 106.028C205.634 107.144 204.13 107.737 202.13 107.807C201.074 107.868 200.121 108.06 199.271 108.381C198.422 108.702 197.57 108.866 196.718 108.872C195.385 108.718 194.477 108.187 193.992 107.278C193.507 106.37 193.292 105.572 193.345 104.884C193.371 104.546 193.389 104.273 193.4 104.064C193.426 103.844 193.444 103.689 193.454 103.599C193.565 102.641 193.803 101.719 194.168 100.83ZM213.233 100.716C214.57 100.149 215.392 99.5037 215.698 98.779C215.976 98.0771 216.14 97.5127 216.189 97.0859C216.261 96.465 216.215 95.8436 216.051 95.2217C215.758 94.1261 215.281 93.2059 214.62 92.4609C214.353 92.1678 214.09 91.8948 213.83 91.642C213.573 91.3763 213.32 91.1242 213.072 90.8859C212.573 90.4479 212.16 90.0463 211.836 89.6811C211.525 89.3044 211.277 88.9546 211.092 88.6316C210.908 88.2958 210.786 87.9868 210.727 87.7047C210.67 87.4096 210.656 87.1263 210.688 86.8547C210.749 86.3244 210.955 85.7386 211.304 85.0974C211.795 84.2498 212.372 83.6284 213.034 83.2331C213.708 82.8392 214.337 82.676 214.919 82.7433C215.1 82.7643 215.272 82.8039 215.436 82.8621C216.181 83.1056 216.812 83.8274 217.329 85.0275C217.559 85.644 217.702 86.1652 217.757 86.5911C217.826 87.0184 217.861 87.4485 217.864 87.8814C217.876 88.2236 217.906 88.6465 217.953 89.15C218.041 89.75 218.187 90.0685 218.393 90.1053C218.495 90.1302 218.572 90.1457 218.623 90.1517C218.688 90.1592 218.727 90.1636 218.74 90.1651C219.115 90.2085 219.418 89.9683 219.649 89.4445C219.706 89.2938 219.762 89.1431 219.819 88.9923C219.876 88.8416 219.933 88.6844 219.992 88.5208C220.327 87.5502 220.747 86.6355 221.253 85.7764C222.092 84.6414 223.061 84.1374 224.161 84.2646L224.296 84.2803C225.455 84.4667 226.33 85.2824 226.923 86.7273C227.16 87.397 227.251 87.9776 227.194 88.4691C227.155 88.8054 227.041 89.1133 226.851 89.3929C226.412 90.0107 225.661 90.6709 224.597 91.3735C224.525 91.4307 224.452 91.4879 224.38 91.5451C224.31 91.5894 224.238 91.6401 224.166 91.6973C222.231 93.125 221.081 94.2306 220.715 95.0141C220.336 95.7961 220.121 96.4134 220.068 96.8661C220.004 97.4223 220.079 97.9619 220.294 98.4848C220.671 99.4197 221.202 100.32 221.889 101.186C222.255 101.648 222.585 102.138 222.879 102.657C223.174 103.163 223.44 103.692 223.678 104.244C223.912 104.939 223.989 105.636 223.908 106.335C223.859 106.762 223.75 107.195 223.581 107.634C223.123 108.761 222.27 109.678 221.021 110.385C219.76 111.092 218.113 111.334 216.081 111.112C214.477 110.926 213.18 110.521 212.191 109.895C211.203 109.256 210.509 108.514 210.109 107.668C209.697 106.808 209.542 105.938 209.644 105.058L209.651 105C209.768 104.096 210.133 103.267 210.745 102.512C211.358 101.744 212.187 101.145 213.233 100.716Z" fill="white"/>
<path d="M45.8718 50.9037C44.7397 50.0387 44.0828 49.2025 43.9009 48.395C43.7017 47.6248 43.6387 46.9228 43.712 46.289C43.7808 45.694 43.936 45.0893 44.1774 44.475C44.2675 44.2626 44.3492 44.0099 44.4224 43.7169C44.5086 43.4254 44.5992 43.0951 44.6943 42.7259C44.8572 41.9976 44.9634 41.4201 45.0128 40.9932C45.0741 40.4629 45.0937 39.954 45.0714 39.4664C45.0438 38.5719 44.6902 38.0591 44.0107 37.9281C43.5838 37.8787 43.2952 38.1075 43.1448 38.6144C42.977 39.1586 42.8669 39.6571 42.8146 40.1098C42.7981 40.2521 42.7801 40.4073 42.7607 40.5754C42.7557 40.7321 42.7499 40.8953 42.7434 41.065C42.7298 41.5222 42.7299 41.9744 42.7437 42.4216C42.7705 42.8704 42.8109 43.3142 42.865 43.753C42.8928 43.9659 42.9004 44.1831 42.8879 44.4045C42.8884 44.6274 42.8759 44.8487 42.8504 45.0686C42.7741 45.7283 42.5819 46.427 42.2737 47.1647C41.7535 48.3759 41.0497 49.3038 40.1625 49.9483C39.2579 50.6301 38.2752 50.9097 37.2146 50.787C37.1499 50.7795 37.0788 50.7713 37.0012 50.7623C36.9236 50.7533 36.8467 50.7379 36.7706 50.716C35.2499 50.2648 34.2188 49.4901 33.6773 48.392C33.1373 47.2809 32.9235 46.2403 33.0357 45.2703C33.0851 44.8434 33.1782 44.4347 33.3151 44.0442C33.7662 42.8643 34.4195 41.8061 35.275 40.8695C36.1304 39.933 37.0115 39.0584 37.9182 38.2457C39.0702 37.2386 39.9588 36.2993 40.5839 35.4279C40.8143 35.022 40.9498 34.6444 40.9902 34.2952C41.0336 33.9201 40.9899 33.5612 40.8591 33.2183C40.717 32.8611 40.5497 32.4944 40.3572 32.1182C40.1648 31.7421 39.9393 31.3686 39.6807 30.9979C39.3808 30.5307 39.1011 30.0592 38.8416 29.5835C38.5965 29.0964 38.4175 28.6038 38.3047 28.1058C38.2238 27.559 38.2072 27.0787 38.2551 26.6648C38.3344 25.9792 38.5828 25.4181 39.0004 24.9814C39.6981 24.2757 40.6743 23.9954 41.9289 24.1405C43.1836 24.2856 44.0327 24.5936 44.4763 25.0644C44.9085 25.5207 45.1293 25.9919 45.1386 26.4779C45.1235 26.9481 45.0988 27.3319 45.0644 27.6294C45.0404 27.8363 45.0093 28.049 44.9709 28.2674C44.934 28.4729 44.89 28.684 44.8387 28.9009C44.7858 29.1308 44.7395 29.3613 44.6996 29.5927C44.6598 29.824 44.6271 30.0496 44.6017 30.2695C44.5912 30.36 44.5807 30.4506 44.5703 30.5411C44.5598 30.6317 44.5558 30.7229 44.5583 30.815C44.5367 31.4548 44.6192 31.8182 44.8057 31.9053C44.9778 32.0039 45.1027 32.0577 45.1803 32.0666C45.4002 32.0921 45.6106 31.9722 45.8117 31.7071C45.9983 31.4534 46.1201 31.0809 46.1769 30.5893C46.1889 30.4859 46.1952 30.3752 46.1957 30.2573C46.2107 30.1279 46.2191 29.9978 46.2212 29.867C46.2019 29.3536 46.2177 28.877 46.2686 28.4372C46.3823 27.4542 46.6858 26.6438 47.179 26.0062C47.7035 25.4377 48.3847 25.0446 49.2226 24.8269C50.0719 24.6237 50.8199 24.5595 51.4666 24.6343C51.5701 24.6463 51.6728 24.6647 51.7748 24.6896C51.8912 24.7031 52.0004 24.7223 52.1024 24.7472C52.9525 24.9897 53.4369 25.5045 53.5556 26.2916C53.5611 26.3578 53.5593 26.4296 53.5503 26.5072C53.5543 26.5864 53.5525 26.6582 53.545 26.7229C53.4927 27.1756 53.3129 27.6529 53.0058 28.1548C52.7943 28.5105 52.5554 28.8761 52.2891 29.2516C52.0358 29.6286 51.7471 30.0278 51.4231 30.4491C51.3898 30.5108 51.35 30.5717 51.3037 30.6319C51.2574 30.6921 51.2111 30.7522 51.1648 30.8124C50.9463 31.1148 50.7365 31.3986 50.5355 31.6637C50.3488 31.9174 50.1709 32.1524 50.0017 32.3688C49.3005 33.2183 48.8685 33.8368 48.7057 34.2243C48.5329 34.5845 48.4331 34.8809 48.4062 35.1138C48.3643 35.4759 48.4092 35.8809 48.5409 36.3287C48.7735 37.0372 49.265 38.0575 50.0153 39.3895C50.3619 40.0194 50.7043 40.6292 51.0424 41.2189C51.382 41.7956 51.7224 42.3658 52.0635 42.9296C52.3718 43.4371 52.6286 43.8797 52.834 44.2574C53.0523 44.6365 53.2263 44.945 53.3561 45.1829C53.8921 46.2148 54.157 47.0975 54.1509 47.8308C54.1462 48.5512 54.1333 49.0019 54.1124 49.183C53.9882 50.2566 53.4872 51.1882 52.6094 51.978C52.0262 52.4873 51.2545 52.6995 50.2943 52.6146L50.2167 52.6057C48.5999 52.4186 47.1516 51.8513 45.8718 50.9037ZM57.6581 53.5451C56.7408 53.2031 56.3033 52.792 56.3458 52.3119C56.3598 52.0776 56.3678 51.895 56.3698 51.7642C56.3848 51.6348 56.3937 51.5572 56.3967 51.5314C56.497 50.6647 56.798 49.7624 57.2997 48.8242C57.8189 47.8488 58.3087 47.0141 58.7691 46.3202C58.8024 46.2585 58.8343 46.2098 58.8647 46.174C58.8965 46.1252 58.9284 46.0765 58.9602 46.0278C59.8855 44.6012 60.7794 43.2759 61.6419 42.0518C62.5189 40.8162 63.3804 39.6575 64.2264 38.5757C64.7341 37.9266 65.1992 37.3054 65.6217 36.712C66.0443 36.1186 66.4315 35.5473 66.7834 34.9982C67.1223 34.4476 67.4464 33.8559 67.7555 33.2231C68.0646 32.5904 68.3661 31.9109 68.6598 31.1847C68.852 30.6564 69.0648 30.1763 69.2983 29.7446C69.5317 29.3128 69.7801 28.9221 70.0434 28.5724C70.5699 27.8731 71.2215 27.5094 71.9981 27.4812C72.0901 27.4788 72.175 27.482 72.2526 27.491C72.3446 27.4885 72.4359 27.4926 72.5265 27.503C73.4319 27.6078 74.0176 27.9835 74.2835 28.6304C74.4058 28.9329 74.4445 29.2782 74.3997 29.6662C74.3293 30.2741 74.0637 30.984 73.6028 31.7958C72.79 33.1567 71.9419 34.3694 71.0585 35.4338C70.2488 36.428 69.4507 37.5482 68.6643 38.7942C68.0297 39.8611 67.4008 40.9353 66.7776 42.0167C66.1544 43.0981 65.5275 44.2118 64.8968 45.3578C64.7475 45.6289 64.5989 45.8936 64.4511 46.1517C64.3033 46.4099 64.1619 46.6688 64.027 46.9285C63.795 47.3473 63.5327 47.8019 63.2401 48.2924C62.9618 48.7714 62.646 49.2919 62.2926 49.854C61.6003 50.9667 60.8649 51.8844 60.0866 52.607C59.3198 53.3441 58.5936 53.673 57.908 53.5937C57.7916 53.5802 57.7083 53.564 57.6581 53.5451ZM60.7407 33.3554C60.1175 32.8508 59.8092 32.3433 59.8158 31.8328C59.8184 31.5841 59.8164 31.3741 59.81 31.203C59.8165 31.0333 59.825 30.9032 59.8355 30.8127C59.9073 30.1918 60.0918 29.6168 60.389 29.0875C60.7279 28.5369 61.2126 28.0293 61.8431 27.5649C62.4447 27.1232 62.9801 26.8575 63.4493 26.7676C63.8652 26.6846 64.1766 26.6551 64.3836 26.679C64.7846 26.7254 65.1489 26.9183 65.4767 27.2577C65.874 27.7887 66.0346 28.384 65.9583 29.0436C65.9508 29.1083 65.9425 29.1794 65.9336 29.257C65.9261 29.3217 65.9121 29.3856 65.8917 29.4488C65.7024 30.292 65.3027 31.0847 64.6925 31.8268C64.0839 32.5559 63.495 33.058 62.9257 33.3329C62.3709 33.5965 61.906 33.7065 61.5309 33.6631C61.2722 33.6332 61.0088 33.5306 60.7407 33.3554ZM66.4009 54.2812C65.7921 53.7651 65.491 53.2519 65.4977 52.7414C65.5017 52.4797 65.5005 52.2633 65.4941 52.0922C65.5006 51.9225 65.5099 51.786 65.5218 51.6825C65.5922 51.0746 65.7816 50.5132 66.0902 49.9984C66.4292 49.4477 66.9139 48.9402 67.5444 48.4757C68.1748 48.0112 68.7045 47.7382 69.1334 47.6568C69.5607 47.5882 69.8714 47.5652 70.0655 47.5876C70.4794 47.6355 70.843 47.8349 71.1563 48.1857C71.5567 48.6908 71.7179 49.2796 71.6401 49.9522C71.6326 50.0169 71.6244 50.088 71.6154 50.1656C71.6079 50.2303 71.594 50.2942 71.5736 50.3574C71.3843 51.2006 70.9846 51.9933 70.3744 52.7354C69.7658 53.4645 69.1768 53.9666 68.6076 54.2415C68.0399 54.5036 67.5685 54.6129 67.1934 54.5695C66.9088 54.5366 66.6447 54.4405 66.4009 54.2812Z" fill="white"/>
</svg>
