<svg width="265" height="84" viewBox="0 0 265 84" fill="none" xmlns="http://www.w3.org/2000/svg">
<mask id="path-1-inside-1_40_851" fill="white">
<path fill-rule="evenodd" clip-rule="evenodd" d="M229.514 0H30C13.4315 0 0 13.4315 0 30V54C0 70.5685 13.4315 84 30 84H264.096C249.953 57.4338 238.321 29.3284 229.514 0Z"/>
</mask>
<path fill-rule="evenodd" clip-rule="evenodd" d="M229.514 0H30C13.4315 0 0 13.4315 0 30V54C0 70.5685 13.4315 84 30 84H264.096C249.953 57.4338 238.321 29.3284 229.514 0Z" fill="#56D6E5"/>
<path d="M229.514 0L234.303 -1.4379L233.234 -5H229.514V0ZM264.096 84V89H272.423L268.51 81.6504L264.096 84ZM30 5H229.514V-5H30V5ZM5 30C5 16.1929 16.1929 5 30 5V-5C10.67 -5 -5 10.67 -5 30H5ZM5 54V30H-5V54H5ZM30 79C16.1929 79 5 67.8071 5 54H-5C-5 73.33 10.67 89 30 89V79ZM264.096 79H30V89H264.096V79ZM268.51 81.6504C254.52 55.3717 243.014 27.5713 234.303 -1.4379L224.726 1.4379C233.628 31.0854 245.387 59.496 259.683 86.3496L268.51 81.6504Z" fill="black" mask="url(#path-1-inside-1_40_851)"/>
<path d="M87.8857 37.5908C88.195 37.4606 88.8135 37.2897 89.7412 37.0781C90.555 36.8991 91.4502 36.6712 92.4268 36.3945C94.7705 35.7272 96.1133 34.7751 96.4551 33.5381C95.5111 33.1475 94.4287 32.9521 93.208 32.9521C91.792 32.9521 90.1969 33.1068 88.4229 33.416L87.9834 33.5381C87.9346 34.8402 87.902 36.1911 87.8857 37.5908ZM89.0576 49.1387C90.4085 49.0573 91.084 48.5853 91.084 47.7227C91.0677 46.8763 90.3027 46.0381 88.7891 45.208C88.5938 45.1266 88.4066 45.029 88.2275 44.915C88.3903 46.4775 88.667 47.8854 89.0576 49.1387ZM88.4717 56.8291C82.417 56.8291 79.3896 51.1325 79.3896 39.7393C79.3896 37.3467 79.4873 34.8239 79.6826 32.1709C79.7477 31.0153 79.7965 30.0225 79.8291 29.1924C79.8291 28.1507 80.236 27.2637 81.0498 26.5312C81.8636 25.7988 82.8402 25.4326 83.9795 25.4326C84.9072 25.4326 85.7373 25.6849 86.4697 26.1895C88.9274 25.75 91.3037 25.5303 93.5986 25.5303C95.6006 25.5303 97.5537 25.8314 99.458 26.4336C101.362 27.0358 102.876 28.2402 103.999 30.0469C104.731 31.3815 105.098 32.6266 105.098 33.7822C105.098 34.2705 104.951 35.0192 104.658 36.0283C104.382 37.0212 103.535 38.1198 102.119 39.3242C100.703 40.5124 99.0592 41.5296 97.1875 42.376C98.6849 44.2314 99.4336 46.1357 99.4336 48.0889C99.4336 49.863 98.8395 51.4906 97.6514 52.9717C96.4632 54.4365 94.6891 55.527 92.3291 56.2432C90.9131 56.6338 89.6273 56.8291 88.4717 56.8291ZM117.793 55.2178C115.824 55.2178 114.212 54.8109 112.959 53.9971C111.266 52.8903 110.046 51.3278 109.297 49.3096C108.564 47.2751 108.166 45.4766 108.101 43.9141C108.052 42.3516 108.027 41.2367 108.027 40.5693C108.027 37.249 108.394 33.4079 109.126 29.0459C109.305 27.9717 109.801 27.1497 110.615 26.5801C111.429 26.0104 112.308 25.7256 113.252 25.7256C114.652 25.7907 115.718 26.2627 116.45 27.1416C117.069 27.874 117.378 28.6715 117.378 29.5342C117.362 29.876 117.256 30.7956 117.061 32.293C116.654 35.418 116.45 38.2988 116.45 40.9355C116.45 44.1582 116.735 46.1357 117.305 46.8682C117.695 47.3727 118.062 47.625 118.403 47.625C118.908 47.625 119.535 47.2913 120.283 46.624C122.188 44.6872 123.14 41.5622 123.14 37.249C123.14 35.2959 123.066 33.4079 122.92 31.585C122.822 30.348 122.773 29.64 122.773 29.4609C122.773 28.5983 123.05 27.8252 123.604 27.1416C124.417 26.1325 125.524 25.6279 126.924 25.6279C127.852 25.6279 128.682 25.8802 129.414 26.3848C130.293 26.987 130.83 27.8252 131.025 28.8994C131.204 31.2106 131.294 33.709 131.294 36.3945C131.294 43.0352 129.894 48.0238 127.095 51.3604C125.451 53.3298 123.066 54.5667 119.941 55.0713C119.176 55.1689 118.46 55.2178 117.793 55.2178ZM144.941 56.585C143.656 56.585 142.598 56.0804 141.768 55.0713C141.133 54.3063 140.815 53.4111 140.815 52.3857L140.84 52.0195C141.605 48.6667 142.354 45.6963 143.086 43.1084C141.865 41.7412 140.62 40.252 139.351 38.6406C138.081 37.0293 136.982 35.361 136.055 33.6357C135.127 31.9105 134.557 30.1852 134.346 28.46C134.443 27.2881 134.907 26.3359 135.737 25.6035C136.519 24.9199 137.446 24.5781 138.521 24.5781C139.627 24.5781 140.571 24.9525 141.353 25.7012C142.052 26.3848 142.467 27.223 142.598 28.2158C143.9 30.4619 145.21 32.4476 146.528 34.1729C147.782 31.6989 149.458 28.9808 151.558 26.0186C152.323 25.4977 153.128 25.2373 153.975 25.2373C154.202 25.2373 154.642 25.2943 155.293 25.4082C155.96 25.5059 156.652 26.0267 157.368 26.9707C157.873 27.7357 158.125 28.5332 158.125 29.3633C158.125 29.6074 158.068 30.0632 157.954 30.7305C157.856 31.3815 157.336 32.057 156.392 32.7568C154.65 36.0609 153.21 39.3324 152.07 42.5713C150.947 45.8102 149.954 49.2363 149.092 52.8496C148.962 54.0052 148.465 54.9329 147.603 55.6328C146.838 56.2676 145.951 56.585 144.941 56.585Z" fill="black"/>
</svg>
