<svg width="346" height="84" viewBox="0 0 346 84" fill="none" xmlns="http://www.w3.org/2000/svg">
<mask id="path-1-inside-1_40_911" fill="white">
<path fill-rule="evenodd" clip-rule="evenodd" d="M0.781494 83.7057C2.15985 83.8997 3.56824 84 5.00006 84H316C332.569 84 346 70.5685 346 54V30C346 13.4315 332.569 0 316 0H66.9612C48.143 30.4202 25.9041 58.501 0.781494 83.7057Z"/>
</mask>
<path fill-rule="evenodd" clip-rule="evenodd" d="M0.781494 83.7057C2.15985 83.8997 3.56824 84 5.00006 84H316C332.569 84 346 70.5685 346 54V30C346 13.4315 332.569 0 316 0H66.9612C48.143 30.4202 25.9041 58.501 0.781494 83.7057Z" fill="#EADB08"/>
<path d="M0.781494 83.7057L-2.7598 80.1759L-9.82333 87.2626L0.084706 88.6569L0.781494 83.7057ZM66.9612 0V-5H64.1749L62.7091 -2.63043L66.9612 0ZM5.00006 79C3.80206 79 2.6265 78.9161 1.47828 78.7545L0.084706 88.6569C1.6932 88.8833 3.33441 89 5.00006 89V79ZM316 79H5.00006V89H316V79ZM341 54C341 67.8071 329.807 79 316 79V89C335.33 89 351 73.33 351 54H341ZM341 30V54H351V30H341ZM316 5C329.807 5 341 16.1929 341 30H351C351 10.67 335.33 -5 316 -5V5ZM66.9612 5H316V-5H66.9612V5ZM62.7091 -2.63043C44.0937 27.4618 22.0937 55.2412 -2.7598 80.1759L4.32279 87.2355C29.7145 61.7608 52.1923 33.3785 71.2134 2.63043L62.7091 -2.63043Z" fill="black" mask="url(#path-1-inside-1_40_911)"/>
<path d="M122.85 60.7314C121.71 60.7314 120.734 60.3245 119.92 59.5107C119.106 58.6969 118.699 57.7204 118.699 56.5811C118.634 53.2445 118.602 50.4206 118.602 48.1094C118.602 44.2357 118.756 40.6468 119.065 37.3428L113.377 37.2207C112.221 37.2207 111.237 36.8219 110.423 36.0244C109.625 35.2106 109.227 34.2259 109.227 33.0703C109.227 31.931 109.625 30.9544 110.423 30.1406C111.237 29.3268 112.221 28.9199 113.377 28.9199L121.165 29.1152C121.946 28.4642 122.841 28.1387 123.851 28.1387C124.957 28.1387 125.901 28.5049 126.683 29.2373L130.711 29.335C131.867 29.335 132.843 29.7419 133.641 30.5557C134.454 31.3532 134.861 32.3298 134.861 33.4854C134.861 34.6247 134.454 35.6012 133.641 36.415C132.843 37.2288 131.867 37.6357 130.711 37.6357L127.366 37.5381C127.09 40.305 126.943 42.4697 126.927 44.0322C126.91 45.5785 126.902 46.6771 126.902 47.3281C126.902 48.793 126.935 51.8773 127 56.5811C127 57.7204 126.593 58.6969 125.779 59.5107C124.965 60.3245 123.989 60.7314 122.85 60.7314ZM159.764 59.877C158.559 59.877 157.339 59.4375 156.102 58.5586C154.279 57.2728 152.643 55.2546 151.194 52.5039C148.851 56.5241 146.23 58.5342 143.333 58.5342C142.601 58.5342 141.958 58.347 141.404 57.9727C140.118 57.0775 139.183 55.5557 138.597 53.4072C138.027 51.2588 137.701 49.2324 137.62 47.3281C137.539 45.4238 137.498 43.902 137.498 42.7627C137.498 40.1911 137.677 36.8952 138.035 32.875C138.263 31.7194 138.776 30.8568 139.573 30.2871C140.387 29.7012 141.233 29.4082 142.112 29.4082C142.34 29.4082 142.576 29.4245 142.82 29.457C143.976 29.6849 144.839 30.2057 145.408 31.0195C145.978 31.8333 146.263 32.6797 146.263 33.5586C146.263 33.7865 146.246 34.0143 146.214 34.2422C146.019 37.2207 145.921 40.2887 145.921 43.4463V44.6426C146.784 43.2103 147.736 41.957 148.777 40.8828C149.835 39.7923 150.665 39.2389 151.268 39.2227C151.87 39.1901 152.187 39.1738 152.22 39.1738C153.359 39.1738 154.531 39.9795 155.735 41.5908C156.305 42.486 156.777 43.6172 157.151 44.9844C157.526 46.3516 158.095 47.7839 158.86 49.2812C159.186 47.2956 159.349 45.1064 159.349 42.7139C159.349 39.9632 159.284 37.4567 159.153 35.1943C159.104 34.5596 159.08 34.0062 159.08 33.5342C159.08 32.3949 159.446 31.4264 160.179 30.6289C160.911 29.8151 161.888 29.3675 163.108 29.2861C164.264 29.2861 165.241 29.6605 166.038 30.4092C166.852 31.1416 167.299 32.0938 167.381 33.2656L167.698 41.9082C167.535 47.4421 166.868 51.6331 165.696 54.4814C164.541 57.3298 163.393 58.9411 162.254 59.3154C161.131 59.6898 160.301 59.877 159.764 59.877ZM178.001 60.6094C176.862 60.6094 175.885 60.2106 175.071 59.4131C174.257 58.5993 173.851 57.6146 173.851 56.459C173.851 52.1621 173.965 48.1338 174.192 44.374C174.42 40.598 174.705 36.5941 175.047 32.3623C175.047 31.2067 175.446 30.2301 176.243 29.4326C177.057 28.6188 178.034 28.2119 179.173 28.2119C180.328 28.2119 181.305 28.6188 182.103 29.4326C182.916 30.2301 183.323 31.2067 183.323 32.3623C182.933 37.7497 182.648 41.8512 182.469 44.667C182.257 48.2965 182.151 52.2272 182.151 56.459C182.151 57.6146 181.744 58.5993 180.931 59.4131C180.133 60.2106 179.157 60.6094 178.001 60.6094ZM199.998 60.7314C198.859 60.7314 197.882 60.3245 197.068 59.5107C196.255 58.6969 195.848 57.7204 195.848 56.5811C195.783 53.2445 195.75 50.4206 195.75 48.1094C195.75 44.2357 195.905 40.6468 196.214 37.3428L190.525 37.2207C189.37 37.2207 188.385 36.8219 187.571 36.0244C186.774 35.2106 186.375 34.2259 186.375 33.0703C186.375 31.931 186.774 30.9544 187.571 30.1406C188.385 29.3268 189.37 28.9199 190.525 28.9199L198.313 29.1152C199.095 28.4642 199.99 28.1387 200.999 28.1387C202.106 28.1387 203.05 28.5049 203.831 29.2373L207.859 29.335C209.015 29.335 209.992 29.7419 210.789 30.5557C211.603 31.3532 212.01 32.3298 212.01 33.4854C212.01 34.6247 211.603 35.6012 210.789 36.415C209.992 37.2288 209.015 37.6357 207.859 37.6357L204.515 37.5381C204.238 40.305 204.091 42.4697 204.075 44.0322C204.059 45.5785 204.051 46.6771 204.051 47.3281C204.051 48.793 204.083 51.8773 204.148 56.5811C204.148 57.7204 203.742 58.6969 202.928 59.5107C202.114 60.3245 201.137 60.7314 199.998 60.7314ZM228.514 60.7314C227.374 60.7314 226.398 60.3245 225.584 59.5107C224.77 58.6969 224.363 57.7204 224.363 56.5811C224.298 53.2445 224.266 50.4206 224.266 48.1094C224.266 44.2357 224.42 40.6468 224.729 37.3428L219.041 37.2207C217.885 37.2207 216.901 36.8219 216.087 36.0244C215.289 35.2106 214.891 34.2259 214.891 33.0703C214.891 31.931 215.289 30.9544 216.087 30.1406C216.901 29.3268 217.885 28.9199 219.041 28.9199L226.829 29.1152C227.61 28.4642 228.506 28.1387 229.515 28.1387C230.621 28.1387 231.565 28.5049 232.347 29.2373L236.375 29.335C237.531 29.335 238.507 29.7419 239.305 30.5557C240.118 31.3532 240.525 32.3298 240.525 33.4854C240.525 34.6247 240.118 35.6012 239.305 36.415C238.507 37.2288 237.531 37.6357 236.375 37.6357L233.03 37.5381C232.754 40.305 232.607 42.4697 232.591 44.0322C232.575 45.5785 232.566 46.6771 232.566 47.3281C232.566 48.793 232.599 51.8773 232.664 56.5811C232.664 57.7204 232.257 58.6969 231.443 59.5107C230.63 60.3245 229.653 60.7314 228.514 60.7314ZM250.169 60.7803C248.46 60.7803 246.954 60.3815 245.652 59.584C244.497 58.7702 243.683 57.3786 243.211 55.4092C242.706 53.3747 242.454 50.8031 242.454 47.6943C242.454 44.195 242.747 39.8574 243.333 34.6816L243.577 32.3379C243.789 31.3125 244.301 30.4987 245.115 29.8965C245.864 29.3431 246.718 29.0664 247.679 29.0664H247.996C248.419 28.9199 248.924 28.8467 249.51 28.8467C252.391 28.6514 255.239 28.4723 258.055 28.3096C259.21 28.3096 260.187 28.6921 260.984 29.457C261.798 30.222 262.205 31.1416 262.205 32.2158C262.205 33.3063 261.798 34.234 260.984 34.999C260.187 35.764 259.21 36.1465 258.055 36.1465C255.89 36.293 253.717 36.4313 251.536 36.5615L251.268 40.4434C252.911 39.9062 254.987 39.4587 257.493 39.1006C258.632 39.1006 259.609 39.4831 260.423 40.248C261.237 41.013 261.644 41.9408 261.644 43.0312C261.644 44.1055 261.237 45.0332 260.423 45.8145C259.609 46.5794 258.632 46.9619 257.493 46.9619C256.663 47.1735 255.988 47.3525 255.467 47.499C254.702 47.7269 254.026 47.9059 253.44 48.0361C252.871 48.1501 252.073 48.2477 251.048 48.3291C251.048 49.8265 251.08 51.332 251.146 52.8457C253.294 52.4876 256.834 51.4134 261.766 49.623C262.107 49.5579 262.441 49.5254 262.767 49.5254C263.532 49.5254 264.313 49.7533 265.11 50.209C265.908 50.6647 266.461 51.4297 266.771 52.5039C266.852 52.8457 266.893 53.1712 266.893 53.4805C266.893 54.1966 266.648 54.9372 266.16 55.7021C265.672 56.4508 264.858 56.9717 263.719 57.2646C263.23 57.4274 262.701 57.6146 262.132 57.8262C257.103 59.7956 253.115 60.7803 250.169 60.7803ZM273.582 60.3896C272.426 60.3896 271.442 59.9827 270.628 59.1689C269.83 58.3551 269.432 57.3786 269.432 56.2393L269.334 54.0176C269.139 50.5671 269.041 47.6699 269.041 45.3262C269.041 36.765 270.107 31.695 272.239 30.1162C273.688 29.1885 274.998 28.6839 276.17 28.6025C277.342 28.5049 278.115 28.4561 278.489 28.4561C280.084 28.4561 281.639 28.7165 283.152 29.2373C285.008 29.8883 286.432 30.8568 287.425 32.1426C288.418 33.4121 288.914 34.8607 288.914 36.4883C288.914 36.9115 288.882 37.359 288.816 37.8311C288.523 40.0446 287.205 42.6569 284.861 45.668C285.773 46.2214 286.66 46.791 287.522 47.377C288.776 48.2396 290.159 49.1104 291.673 49.9893C292.715 50.5589 293.349 51.21 293.577 51.9424C293.805 52.6748 293.919 53.2363 293.919 53.627C293.919 54.278 293.756 54.929 293.431 55.5801C292.861 56.6055 292.21 57.2402 291.478 57.4844C290.761 57.7122 290.2 57.8262 289.793 57.8262C289.142 57.8262 288.491 57.6634 287.84 57.3379C286.473 56.5404 285.162 55.7103 283.909 54.8477C282.347 53.7409 280.654 52.6911 278.831 51.6982C278.375 51.4704 277.952 51.2344 277.562 50.9902L277.732 56.2393C277.732 57.3786 277.326 58.3551 276.512 59.1689C275.698 59.9827 274.721 60.3896 273.582 60.3896ZM277.513 41.3467C278.701 40.0609 279.629 38.6367 280.296 37.0742C279.84 36.9928 279.376 36.9521 278.904 36.9521C278.546 36.9521 278.188 36.9766 277.83 37.0254C277.667 38.2135 277.562 39.654 277.513 41.3467Z" fill="black"/>
</svg>
