<svg width="526" height="575" viewBox="0 0 526 575" fill="none" xmlns="http://www.w3.org/2000/svg">
<rect x="177.408" y="0.842285" width="252" height="97" rx="10" transform="rotate(6.59855 177.408 0.842285)" fill="#B1A295"/>
<path d="M199.758 89.8832C199.025 89.6412 198.433 89.3236 197.98 88.9304C197.528 88.5373 197.186 88.0914 196.955 87.5929C196.725 87.0943 196.583 86.5602 196.531 85.9905C196.494 85.4094 196.51 84.8149 196.58 84.207C196.695 83.2111 196.972 82.2338 197.411 81.2752C197.864 80.3052 198.38 79.3032 198.958 78.269C199.441 77.3811 199.914 76.4659 200.377 75.5232C200.853 74.5821 201.266 73.5551 201.618 72.4423C201.684 72.214 201.793 71.7745 201.947 71.1238C202.1 70.4861 202.221 69.9495 202.311 69.5143C202.349 69.2959 202.376 69.1155 202.393 68.9732C202.422 68.8325 202.442 68.7168 202.453 68.6263C202.485 68.3417 202.488 68.1519 202.459 68.0569C202.428 67.9877 202.374 67.9486 202.296 67.9397C202.231 67.9322 202.131 67.9533 201.994 68.003C201.871 68.0413 201.734 68.0975 201.581 68.1715C201.43 68.2327 201.264 68.3053 201.084 68.3893C200.555 68.6558 199.984 68.8912 199.37 69.0955C198.77 69.3013 198.198 69.3728 197.655 69.3099C197.603 69.3039 197.551 69.298 197.5 69.292C197.448 69.286 197.397 69.2735 197.347 69.2546C196.706 69.1281 196.124 68.661 195.601 67.8534C195.158 67.0418 194.986 66.2028 195.087 65.3361C195.112 65.1163 195.158 64.8921 195.223 64.6638C195.526 63.5191 196.246 62.7373 197.382 62.3182C198.196 62.0846 199.081 62.0232 200.038 62.1339C200.18 62.1504 200.322 62.1733 200.463 62.2027C200.618 62.2207 200.766 62.2443 200.907 62.2737C201.546 62.4132 202.144 62.5676 202.701 62.7369C203.271 62.9077 203.813 63.0949 204.327 63.2986C204.906 63.5097 205.454 63.6452 205.971 63.705L206.223 63.7342C206.9 63.7732 207.654 63.7162 208.484 63.5632C208.872 63.5031 209.271 63.451 209.682 63.4068C210.095 63.3497 210.525 63.3143 210.973 63.3005C211.42 63.2867 211.807 63.2791 212.135 63.2777C212.476 63.2778 212.769 63.2921 213.015 63.3205C213.494 63.3759 213.889 63.4675 214.202 63.5955C214.908 63.9524 215.275 64.4077 215.303 64.9614C215.323 65.239 215.328 65.4821 215.317 65.6905C215.32 65.8875 215.313 66.0572 215.297 66.1994C215.234 66.7427 215.074 67.2747 214.817 67.7955C214.426 68.576 213.881 69.0962 213.182 69.3562C212.952 69.4213 212.694 69.4374 212.41 69.4045C212.228 69.3835 212.043 69.3425 211.854 69.2812C211.614 69.201 211.375 69.1144 211.137 69.0213C210.9 68.9153 210.657 68.802 210.409 68.6815C209.987 68.4755 209.638 68.3236 209.361 68.226C209.084 68.1284 208.874 68.0714 208.732 68.055C208.551 68.034 208.399 68.0427 208.276 68.0809C207.388 68.2797 206.512 69.7381 205.647 72.4562C205.543 72.785 205.446 73.1146 205.356 73.4449C205.278 73.7767 205.207 74.1093 205.142 74.4426C205.025 75.1107 204.95 75.5935 204.915 75.891C204.872 76.2661 204.842 76.6362 204.826 77.0014C204.812 77.3536 204.809 77.7138 204.819 78.0819C204.858 79.1088 205.103 79.9367 205.554 80.5657C205.785 80.8414 206.01 81.1034 206.23 81.3517C206.463 81.6015 206.692 81.8311 206.917 82.0407C207.557 82.6259 208.088 83.2509 208.509 83.9157C208.927 84.6064 209.15 85.5168 209.176 86.6472L209.154 86.8412C209.031 87.9018 208.434 88.7044 207.361 89.2488C206.233 89.8261 205.108 90.1482 203.986 90.215C202.864 90.2818 201.967 90.2763 201.294 90.1985C200.712 90.1312 200.2 90.0261 199.758 89.8832ZM228.659 79.5224C228.435 81.4626 228.109 83.26 227.682 84.9145C227.267 86.5706 226.697 87.9858 225.971 89.1602C225.246 90.3346 224.337 91.2256 223.244 91.8332C222.166 92.4294 220.85 92.6377 219.298 92.4582C217.759 92.2801 216.543 91.7462 215.65 90.8564C214.758 89.9537 214.119 88.7918 213.733 87.3709C213.348 85.937 213.153 84.335 213.148 82.5648C213.143 80.7947 213.255 78.9267 213.482 76.9606C213.784 74.3478 214.409 72.0607 215.357 70.0994C216.319 68.1266 217.438 66.6175 218.712 65.5721C219.986 64.5267 221.27 64.0788 222.564 64.2285C223.87 64.3796 225.043 65.1772 226.082 66.6212C227.096 68.0493 227.858 69.907 228.367 72.1941C228.865 74.4539 228.963 76.8967 228.659 79.5224ZM220.481 82.2334C221.192 82.3157 221.79 82.0768 222.274 81.5168C222.759 80.9567 223.134 80.2071 223.4 79.2679C223.49 78.9376 223.569 78.5993 223.635 78.2531C223.701 77.9068 223.755 77.5526 223.797 77.1904C223.833 76.88 223.871 76.3863 223.91 75.7092C223.963 75.0206 223.923 74.1771 223.79 73.1786C223.656 72.1801 223.43 71.3609 223.11 70.721C222.806 70.0697 222.414 69.7163 221.935 69.661C221.728 69.637 221.512 69.6972 221.285 69.8414C221.06 69.9727 220.835 70.1694 220.608 70.4315C220.394 70.6951 220.179 71.0177 219.965 71.3992C219.763 71.7822 219.57 72.2055 219.385 72.6691C219.03 73.5849 218.739 74.5736 218.511 75.6352C218.422 76.0705 218.351 76.508 218.301 76.9478C218.233 77.5299 218.214 78.2092 218.242 78.9858C218.245 79.7465 218.432 80.4562 218.802 81.115C219.145 81.7708 219.705 82.1436 220.481 82.2334ZM234.332 93.8827C233.6 93.6407 233.007 93.3231 232.554 92.9299C232.102 92.5368 231.76 92.0909 231.53 91.5923C231.299 91.0938 231.157 90.5597 231.105 89.99C231.068 89.4089 231.084 88.8144 231.154 88.2065C231.27 87.2105 231.547 86.2333 231.985 85.2747C232.438 84.3047 232.954 83.3027 233.532 82.2685C234.015 81.3806 234.488 80.4654 234.951 79.5227C235.427 78.5816 235.84 77.5546 236.192 76.4418C236.258 76.2135 236.368 75.774 236.522 75.1233C236.674 74.4855 236.795 73.949 236.885 73.5137C236.923 73.2953 236.95 73.115 236.967 72.9727C236.996 72.8319 237.016 72.7163 237.027 72.6257C237.06 72.3412 237.062 72.1514 237.034 72.0563C237.002 71.9872 236.948 71.9481 236.87 71.9391C236.806 71.9317 236.705 71.9528 236.568 72.0025C236.446 72.0408 236.308 72.0969 236.155 72.171C236.004 72.2322 235.838 72.3047 235.658 72.3888C235.129 72.6553 234.558 72.8907 233.945 73.095C233.344 73.3008 232.772 73.3722 232.229 73.3094C232.177 73.3034 232.125 73.2974 232.074 73.2914C232.022 73.2855 231.971 73.273 231.921 73.2541C231.28 73.1275 230.698 72.6605 230.176 71.8529C229.732 71.0413 229.56 70.2022 229.661 69.3356C229.686 69.1157 229.732 68.8916 229.797 68.6633C230.1 67.5186 230.82 66.7368 231.956 66.3177C232.77 66.0841 233.655 66.0227 234.612 66.1334C234.754 66.1499 234.896 66.1728 235.037 66.2022C235.192 66.2201 235.34 66.2438 235.481 66.2732C236.12 66.4127 236.718 66.5671 237.275 66.7364C237.845 66.9072 238.387 67.0944 238.901 67.298C239.48 67.5092 240.028 67.6446 240.545 67.7045L240.797 67.7337C241.475 67.7727 242.228 67.7157 243.059 67.5627C243.446 67.5026 243.845 67.4505 244.256 67.4063C244.669 67.3492 245.099 67.3138 245.547 67.3C245.994 67.2862 246.382 67.2786 246.709 67.2772C247.05 67.2773 247.343 67.2915 247.589 67.32C248.068 67.3753 248.463 67.467 248.776 67.5949C249.482 67.9518 249.849 68.4072 249.877 68.9609C249.897 69.2385 249.902 69.4815 249.891 69.69C249.894 69.887 249.888 70.0566 249.871 70.1989C249.808 70.7422 249.648 71.2742 249.392 71.795C249 72.5755 248.455 73.0957 247.756 73.3557C247.526 73.4208 247.268 73.4369 246.984 73.404C246.803 73.383 246.617 73.3419 246.428 73.2807C246.188 73.2005 245.949 73.1139 245.711 73.0208C245.474 72.9147 245.231 72.8015 244.983 72.681C244.561 72.4749 244.212 72.3231 243.935 72.2255C243.658 72.1279 243.448 72.0709 243.306 72.0544C243.125 72.0335 242.973 72.0421 242.851 72.0804C241.962 72.2792 241.086 73.7376 240.221 76.4557C240.117 76.7845 240.02 77.1141 239.93 77.4444C239.852 77.7762 239.781 78.1087 239.716 78.442C239.599 79.1102 239.524 79.593 239.489 79.8905C239.446 80.2656 239.416 80.6357 239.4 81.0008C239.386 81.3531 239.383 81.7133 239.393 82.0814C239.432 83.1083 239.677 83.9362 240.128 84.5652C240.359 84.8408 240.584 85.1028 240.804 85.3511C241.038 85.601 241.267 85.8306 241.491 86.0401C242.131 86.6254 242.662 87.2504 243.083 87.9152C243.502 88.6058 243.724 89.5163 243.75 90.6467L243.728 90.8407C243.605 91.9013 243.008 92.7039 241.936 93.2483C240.807 93.8256 239.682 94.1476 238.56 94.2145C237.438 94.2813 236.541 94.2758 235.868 94.198C235.286 94.1307 234.774 94.0256 234.332 93.8827ZM245.635 90.845C245.847 89.349 246.36 87.9141 247.175 86.5403C247.987 85.1794 248.881 83.913 249.856 82.7411C250.252 82.2627 250.57 81.8342 250.81 81.4556C251.064 81.0786 251.239 80.7515 251.337 80.4745C251.519 79.9188 251.633 79.447 251.677 79.0589C251.745 78.4769 251.742 77.8212 251.669 77.0918C251.566 75.9396 251.547 75.0854 251.612 74.5292C251.676 73.973 251.71 73.6755 251.715 73.6367C251.838 72.576 252.108 71.657 252.525 70.8795C252.965 70.0259 253.597 69.3781 254.421 68.9361C255.259 68.4955 256.344 68.3523 257.676 68.5064C258.788 68.6351 259.668 69.0187 260.315 69.6572C260.986 70.3116 261.388 70.9806 261.518 71.6642C261.649 72.3478 261.684 72.9483 261.624 73.4657C261.579 73.8537 261.479 74.2681 261.323 74.7088C260.864 75.8485 260.579 76.8969 260.468 77.854C260.401 78.4361 260.409 78.9876 260.493 79.5085C260.663 80.7602 261.055 81.8477 261.669 82.7707C261.981 83.2394 262.302 83.696 262.631 84.1403C262.961 84.5718 263.312 84.9925 263.684 85.4026C264.242 86.0176 264.759 86.6476 265.235 87.2925C265.711 87.9374 266.094 88.6502 266.384 89.4309C266.663 90.3021 266.755 91.1516 266.659 91.9794C266.638 92.1605 266.604 92.3465 266.555 92.5375C266.521 92.7171 266.481 92.896 266.434 93.0741C266.061 94.263 265.403 95.2486 264.46 96.0309C263.521 96.7873 262.392 97.1417 261.074 97.0941L260.938 97.0783C259.968 96.9661 259.099 96.6034 258.331 95.9903C257.527 95.3468 256.995 94.5579 256.737 93.6235C256.639 93.219 256.608 92.868 256.642 92.5705C256.662 92.4023 256.688 92.2285 256.722 92.0489C256.769 91.8708 256.818 91.6733 256.869 91.4564C257.06 90.8231 257.244 89.7434 257.421 88.2171C257.49 87.5042 257.543 86.9336 257.58 86.5052C257.616 86.0769 257.642 85.7391 257.658 85.4919C257.673 85.2446 257.674 85.0677 257.66 84.9613C257.659 84.8563 257.643 84.7692 257.612 84.7001C257.392 84.2159 257.056 83.9477 256.604 83.8953C256.435 83.8759 256.271 83.883 256.11 83.9168C255.413 84.046 254.795 84.5184 254.255 85.3342C254.058 85.6784 253.94 86.0186 253.901 86.3549C253.881 86.5231 253.88 86.6999 253.898 86.8855C253.933 87.1517 253.997 87.4475 254.091 87.7729C254.197 88.0997 254.32 88.4547 254.459 88.8379C254.551 89.0583 254.641 89.3046 254.727 89.5767C255.075 90.6524 255.201 91.5977 255.107 92.4126C255.017 93.1887 254.725 93.843 254.231 94.3757C253.23 95.4396 251.63 95.8968 249.432 95.7474L249.277 95.7295C247.803 95.5589 246.785 95.0676 246.223 94.2555C245.663 93.4305 245.461 92.3454 245.617 91.0002L245.635 90.845ZM255.878 75.5535C255.717 75.8102 255.551 76.1121 255.38 76.4593C255.208 76.8065 255.105 77.0764 255.07 77.2689C255.045 77.3709 255.029 77.4542 255.021 77.5189C255.014 77.5836 255.008 77.6288 255.005 77.6547C254.971 77.9522 255.008 78.199 255.116 78.395C255.245 78.6458 255.529 78.7966 255.968 78.8475C256.357 78.8924 256.647 78.8736 256.84 78.791C257.048 78.6971 257.198 78.5899 257.29 78.4695C257.383 78.3492 257.429 78.23 257.43 78.1121C257.443 77.9957 257.45 77.9375 257.45 77.9375C257.483 77.6529 257.458 77.3616 257.374 77.0636C257.129 75.8949 256.955 75.2456 256.852 75.1157C256.738 74.9714 256.648 74.8955 256.584 74.8881C256.429 74.8701 256.193 75.0919 255.878 75.5535ZM269.173 90.304C269.842 88.7167 270.26 87.1922 270.43 85.7306C270.593 84.3208 270.548 82.723 270.296 80.9374C270.219 80.4697 270.151 79.9769 270.093 79.459C270.048 78.9426 270.008 78.3874 269.971 77.7934C269.888 76.5909 269.901 75.5111 270.012 74.5539C270.024 74.4504 270.037 74.3405 270.05 74.2241C270.064 74.1077 270.083 73.9985 270.108 73.8965C270.3 72.6866 270.72 71.7718 271.369 71.1521C272.019 70.5195 272.926 70.2705 274.09 70.4052C274.18 70.4157 274.271 70.4261 274.362 70.4366C274.452 70.4471 274.548 70.4648 274.65 70.4897C275.274 70.6535 275.831 70.9932 276.322 71.5088C276.825 72.0258 277.227 72.6359 277.526 73.3389C277.916 74.3803 278.053 75.4055 277.937 76.4144C277.916 76.5955 277.882 76.775 277.835 76.9531C277.803 77.1198 277.763 77.2922 277.716 77.4702C277.506 78.1538 277.264 78.827 276.991 79.4901C276.732 80.1418 276.434 80.7889 276.098 81.4316C275.995 81.6425 275.892 81.8534 275.789 82.0644C275.687 82.2623 275.591 82.4675 275.501 82.6799C275.09 83.6285 274.793 84.4921 274.612 85.2707C274.443 86.0507 274.331 86.68 274.275 87.1586C274.262 87.275 274.249 87.3849 274.237 87.4884C274.225 87.5919 274.22 87.6961 274.221 87.8011C274.16 88.8951 274.517 89.4869 275.293 89.5767C275.539 89.6051 275.843 89.5289 276.204 89.3479C276.581 89.1555 276.987 88.9272 277.424 88.6632C278.276 88.0933 279.001 87.7184 279.599 87.5385C280.211 87.3471 280.659 87.2679 280.944 87.3008C281.487 87.3636 281.978 87.6498 282.417 88.1594C283.095 89.1029 283.409 89.9519 283.361 90.7066C283.331 91.0832 283.303 91.3815 283.278 91.6014C283.267 91.8098 283.258 91.9399 283.252 91.9917C283.102 93.2851 282.567 94.4553 281.647 95.5023C280.639 96.6179 279.135 97.2107 277.135 97.2808C276.079 97.3422 275.127 97.5334 274.277 97.8546C273.427 98.1757 272.576 98.3394 271.723 98.3456C270.391 98.1915 269.482 97.6604 268.997 96.7523C268.512 95.8443 268.297 95.046 268.35 94.3574C268.376 94.0196 268.395 93.7465 268.406 93.5381C268.431 93.3182 268.449 93.163 268.46 93.0724C268.57 92.1153 268.808 91.1925 269.173 90.304ZM298.855 89.5104C299.541 89.5897 300.226 90.0098 300.912 90.7707C301.842 91.6779 302.657 92.1719 303.355 92.2527C303.446 92.2632 303.557 92.263 303.69 92.252C304.393 92.1761 304.788 91.7631 304.875 91.0129C304.887 90.9094 304.889 90.831 304.882 90.7778C304.91 89.8634 304.357 88.6919 303.225 87.2632C302.788 86.7278 302.33 86.216 301.849 85.7278C301.474 85.3436 301.119 84.9552 300.784 84.5626C300.451 84.157 300.145 83.748 299.865 83.3355C299.303 82.5234 299 81.5773 298.954 80.4972C298.953 80.3923 298.952 80.2873 298.951 80.1823C298.963 80.0788 298.975 79.9754 298.987 79.8719C299.089 78.9923 299.399 78.1238 299.918 77.2662C300.228 76.7385 300.59 76.2692 301.005 75.8584C301.421 75.4346 301.89 75.0629 302.412 74.7431C303.456 74.1037 304.58 73.847 305.784 73.9732C306.987 74.1124 308 74.59 308.823 75.4062C309.647 76.2223 310.2 77.1055 310.483 78.0558C310.766 79.0062 310.862 79.8758 310.771 80.6648C310.755 80.8071 310.731 80.9551 310.7 81.1088C310.669 81.2625 310.633 81.409 310.59 81.5483C310.344 82.3194 309.925 82.9394 309.333 83.4084C308.715 83.8744 308.103 84.0722 307.495 84.0019C307.327 83.9824 307.135 83.9406 306.92 83.8763C306.203 83.6099 305.81 82.8698 305.741 81.6559C305.643 80.6877 305.483 80.1449 305.261 80.0274C305.037 79.9229 304.88 79.8654 304.789 79.8549C304.544 79.8265 304.296 79.9289 304.046 80.1621C303.705 80.5028 303.495 80.957 303.417 81.5246C303.286 82.6499 303.609 83.7686 304.385 84.8808C304.864 85.4998 305.334 86.0261 305.795 86.4595C306.27 86.8815 306.731 87.2625 307.177 87.6024C307.682 87.9886 308.166 88.3985 308.627 88.8319C310.279 90.5304 311.15 91.9485 311.241 93.0863C311.308 94.2082 311.316 94.989 311.265 95.4288C311.119 96.6964 310.632 97.846 309.805 98.8775C308.672 100.28 307.11 101.207 305.118 101.658C303.736 101.931 302.522 102.007 301.474 101.886C300.75 101.802 300.103 101.615 299.533 101.327C298.198 100.635 297.27 99.6428 296.751 98.3506C296.222 97.0311 295.996 95.989 296.071 95.2244C296.125 94.418 296.162 93.9307 296.181 93.7625C296.313 92.6243 296.603 91.6485 297.051 90.8352C297.581 89.8742 298.183 89.4326 298.855 89.5104ZM317.996 103.698C316.461 103.377 315.325 102.767 314.59 101.869C313.857 100.959 313.453 100.027 313.38 99.0748C313.308 98.1097 313.308 97.3167 313.38 96.6958C313.455 96.0491 313.589 95.3961 313.783 94.737C314.378 92.9969 314.739 91.5707 314.868 90.4583C314.892 90.2514 314.907 90.0631 314.914 89.8934C314.922 89.7108 314.922 89.5404 314.914 89.3822C314.856 88.1827 314.651 87.176 314.3 86.362C314.098 85.8405 313.922 85.2631 313.773 84.6298C313.636 83.9979 313.575 83.224 313.589 82.3081C313.587 82.2161 313.591 82.1248 313.601 82.0343C313.612 81.9437 313.622 81.8532 313.633 81.7626C313.772 80.5597 314.097 79.4504 314.607 78.4346C315.186 77.2826 315.913 76.495 316.788 76.0719C317.637 75.6458 318.514 75.4851 319.419 75.5898C319.833 75.6377 320.312 75.7456 320.857 75.9134C321.683 76.245 322.144 76.6784 322.24 77.2138C322.319 77.7735 322.337 78.2409 322.294 78.616C322.25 78.9911 322.149 79.4184 321.988 79.8979C321.714 80.7969 321.373 81.7077 320.964 82.6304C320.844 82.8786 320.736 83.1284 320.642 83.3796C320.549 83.6178 320.456 83.8561 320.362 84.0944C320.009 84.9973 319.674 86.0203 319.359 87.1634C319.201 87.735 319.067 88.27 318.957 88.7685C318.859 89.2685 318.787 89.7254 318.739 90.1393C318.705 90.4368 318.677 90.735 318.655 91.034C318.647 91.3345 318.638 91.635 318.63 91.9355C318.678 92.9897 318.963 93.7567 319.484 94.2364C319.968 94.6987 320.495 94.9628 321.064 95.0287C321.128 95.0361 321.187 95.0429 321.238 95.0489C321.29 95.0548 321.349 95.0551 321.415 95.0497C322.098 95.0369 322.621 94.8221 322.984 94.4053C323.347 93.9885 323.557 93.5344 323.613 93.0429C323.651 92.7195 323.645 92.378 323.594 92.0183C323.384 90.8929 323.226 89.9309 323.122 89.1324C323.018 88.3339 322.981 87.6874 323.012 87.1928C323.045 86.2267 323.079 85.5949 323.113 85.2974C323.286 83.8099 323.756 82.121 324.525 80.2308C325.057 78.8111 325.691 77.862 326.428 77.3836C327.15 76.9167 327.789 76.7154 328.346 76.7797C328.967 76.8515 329.635 77.1385 330.35 77.6407C331.084 78.2106 331.5 78.8552 331.601 79.5746C331.691 80.2667 331.706 80.8779 331.644 81.4082C331.619 81.6281 331.579 81.8594 331.525 82.1022C331.485 82.3335 331.425 82.569 331.345 82.8088C331.001 83.8569 330.552 84.7881 329.999 85.6024C329.407 86.4121 328.925 87.1232 328.553 87.7355C328.182 88.3349 327.92 88.842 327.767 89.2569C327.463 90.0737 327.281 90.7408 327.221 91.2581C327.103 92.28 327.192 93.4372 327.488 94.7298C327.77 95.9159 327.911 96.9152 327.908 97.7276C327.895 98.5256 327.873 99.0539 327.843 99.3126C327.728 100.309 327.442 101.193 326.985 101.966C326.397 102.973 325.382 103.648 323.939 103.993C323.364 104.097 322.632 104.13 321.745 104.093C321.303 104.068 320.893 104.04 320.516 104.01C320.153 103.981 319.822 103.949 319.525 103.915C319.266 103.885 319.008 103.848 318.751 103.805C318.505 103.777 318.254 103.741 317.996 103.698ZM332.693 105.32C331.419 105.002 330.708 104.573 330.561 104.031C330.412 103.503 330.362 103.032 330.41 102.618C330.464 102.152 330.604 101.677 330.83 101.192C331.257 100.219 331.786 99.2182 332.416 98.1901C333.177 96.9411 333.74 95.8134 334.105 94.8071C334.19 94.5285 334.263 94.2355 334.325 93.9281C334.388 93.6077 334.442 93.2599 334.485 92.8848C334.488 92.859 334.49 92.7871 334.49 92.6692C334.504 92.5528 334.522 92.3911 334.546 92.1841C334.596 91.7573 334.59 91.2978 334.529 90.8058C334.453 90.3252 334.358 89.8423 334.244 89.3572C334.144 88.8607 334.026 88.3555 333.889 87.8415C333.604 86.7862 333.393 85.8377 333.254 84.9959C333.13 84.1426 333.105 83.3991 333.178 82.7653C333.22 82.4031 333.284 82.0763 333.37 81.7848C333.626 80.8182 334.213 79.9423 335.129 79.157C336.282 78.2549 337.275 77.8323 338.107 77.8892C338.914 77.9432 339.381 77.9777 339.511 77.9926C340.817 78.1437 342.019 78.5712 343.118 79.275C344.56 80.2938 345.312 81.2721 345.374 82.2099C345.409 82.6989 345.427 83.1074 345.428 83.4353C345.443 83.7646 345.439 84.0198 345.418 84.2009C345.282 85.3779 344.783 86.5196 343.921 87.6258C343.496 88.1271 343.051 88.5213 342.585 88.8082C342.119 89.0951 341.665 89.3375 341.223 89.5354C340.589 89.8029 340.118 90.0826 339.809 90.3745C339.501 90.6535 339.326 90.9806 339.282 91.3557C339.252 91.6144 339.267 91.8848 339.326 92.1669C339.458 92.9554 339.949 94.0871 340.801 95.562C341.535 96.8134 341.963 97.9836 342.086 99.0727C342.217 100.202 342.25 101.051 342.184 101.62C342.093 102.409 341.871 103.137 341.519 103.805C340.9 104.965 339.754 105.632 338.083 105.806C337.753 105.82 337.225 105.798 336.498 105.74C335.782 105.697 335.055 105.632 334.318 105.547C333.943 105.504 333.619 105.466 333.348 105.435C333.091 105.392 332.872 105.354 332.693 105.32ZM338.509 82.5758C338.413 82.722 338.349 82.9374 338.316 83.222C338.31 83.2737 338.304 83.3255 338.298 83.3772C338.292 83.429 338.292 83.4879 338.297 83.5541C338.285 83.9983 338.32 84.4349 338.401 84.8638C338.483 85.2926 338.612 85.5959 338.788 85.7736C338.918 85.8935 339.054 85.9617 339.196 85.9782C339.403 86.0021 339.635 85.9305 339.89 85.7634C340.102 85.6307 340.297 85.4698 340.477 85.2808C340.669 85.0933 340.835 84.9028 340.975 84.7093C341.117 84.5029 341.226 84.2992 341.301 84.0982C341.392 83.8858 341.446 83.6955 341.466 83.5274C341.473 83.4627 341.474 83.4038 341.467 83.3505C341.473 83.2988 341.473 83.2398 341.467 83.1737C341.404 82.8125 341.213 82.5413 340.893 82.3601C340.598 82.1948 340.295 82.0942 339.984 82.0583C339.919 82.0509 339.848 82.0491 339.769 82.053C339.691 82.0441 339.619 82.0423 339.553 82.0478C339.12 82.0501 338.772 82.2261 338.509 82.5758ZM346.701 106.94C345.427 106.623 344.716 106.193 344.569 105.652C344.42 105.123 344.37 104.652 344.418 104.238C344.472 103.773 344.612 103.297 344.838 102.812C345.266 101.839 345.794 100.839 346.424 99.8105C347.185 98.5615 347.748 97.4338 348.113 96.4275C348.198 96.1489 348.271 95.8559 348.333 95.5485C348.396 95.2281 348.45 94.8804 348.493 94.5053C348.496 94.4794 348.498 94.4075 348.498 94.2896C348.512 94.1732 348.531 94.0115 348.554 93.8046C348.604 93.3777 348.598 92.9183 348.537 92.4262C348.461 91.9456 348.367 91.4628 348.252 90.9777C348.152 90.4811 348.034 89.9759 347.897 89.4619C347.612 88.4067 347.401 87.4581 347.263 86.6163C347.138 85.7631 347.113 85.0195 347.186 84.3857C347.228 84.0236 347.292 83.6967 347.378 83.4052C347.634 82.4387 348.221 81.5627 349.137 80.7774C350.29 79.8753 351.283 79.4527 352.115 79.5097C352.922 79.5636 353.39 79.5981 353.519 79.6131C354.825 79.7642 356.028 80.1916 357.126 80.8954C358.568 81.9142 359.32 82.8925 359.382 83.8303C359.417 84.3194 359.435 84.7278 359.437 85.0557C359.451 85.385 359.448 85.6403 359.427 85.8213C359.29 86.9984 358.791 88.14 357.929 89.2462C357.504 89.7476 357.059 90.1417 356.593 90.4286C356.128 90.7155 355.674 90.9579 355.231 91.1558C354.597 91.4233 354.126 91.703 353.817 91.9949C353.509 92.2739 353.334 92.601 353.29 92.9761C353.26 93.2348 353.275 93.5052 353.334 93.7873C353.466 94.5759 353.957 95.7076 354.809 97.1824C355.543 98.4338 355.971 99.6041 356.094 100.693C356.226 101.823 356.258 102.672 356.193 103.241C356.101 104.03 355.879 104.758 355.527 105.425C354.908 106.585 353.762 107.253 352.091 107.426C351.761 107.44 351.233 107.419 350.506 107.361C349.79 107.317 349.063 107.253 348.326 107.168C347.951 107.124 347.627 107.087 347.356 107.055C347.099 107.013 346.88 106.974 346.701 106.94ZM352.517 84.1962C352.421 84.3425 352.357 84.5579 352.324 84.8424C352.318 84.8942 352.312 84.9459 352.306 84.9977C352.3 85.0494 352.3 85.1083 352.305 85.1745C352.293 85.6188 352.328 86.0553 352.409 86.4842C352.491 86.9131 352.62 87.2164 352.796 87.394C352.926 87.5139 353.062 87.5821 353.205 87.5986C353.412 87.6225 353.643 87.551 353.898 87.3839C354.11 87.2511 354.306 87.0902 354.485 86.9012C354.677 86.7137 354.843 86.5232 354.983 86.3297C355.125 86.1233 355.234 85.9196 355.31 85.7187C355.4 85.5063 355.454 85.316 355.474 85.1478C355.481 85.0832 355.482 85.0242 355.475 84.971C355.481 84.9192 355.481 84.8603 355.476 84.7941C355.412 84.4329 355.221 84.1617 354.901 83.9805C354.606 83.8153 354.303 83.7147 353.992 83.6788C353.928 83.6713 353.856 83.6695 353.777 83.6735C353.699 83.6645 353.627 83.6627 353.561 83.6682C353.128 83.6706 352.78 83.8466 352.517 84.1962ZM360.168 100.83C360.836 99.2428 361.255 97.7184 361.424 96.2567C361.587 94.8469 361.543 93.2491 361.291 91.4635C361.214 90.9959 361.146 90.5031 361.088 89.9852C361.043 89.4687 361.002 88.9135 360.966 88.3195C360.882 87.117 360.896 86.0372 361.007 85.08C361.019 84.9766 361.031 84.8666 361.045 84.7502C361.058 84.6338 361.077 84.5246 361.102 84.4226C361.295 83.2127 361.715 82.298 362.364 81.6783C363.014 81.0456 363.921 80.7966 365.085 80.9313C365.175 80.9418 365.266 80.9523 365.356 80.9627C365.447 80.9732 365.543 80.9909 365.645 81.0158C366.268 81.1797 366.825 81.5194 367.316 82.0349C367.82 82.552 368.221 83.162 368.52 83.8651C368.911 84.9065 369.048 85.9316 368.931 86.9405C368.91 87.1216 368.876 87.3012 368.83 87.4793C368.797 87.6459 368.758 87.8183 368.711 87.9964C368.501 88.6799 368.259 89.3532 367.986 90.0163C367.727 90.6679 367.429 91.3151 367.093 91.9577C366.99 92.1687 366.887 92.3796 366.783 92.5905C366.682 92.7885 366.586 92.9936 366.496 93.2061C366.085 94.1547 365.788 95.0182 365.606 95.7968C365.438 96.5768 365.325 97.2061 365.27 97.6847C365.257 97.8011 365.244 97.911 365.232 98.0145C365.22 98.118 365.214 98.2222 365.215 98.3272C365.154 99.4212 365.512 100.013 366.288 100.103C366.534 100.131 366.838 100.055 367.199 99.874C367.575 99.6816 367.982 99.4533 368.419 99.1893C369.271 98.6194 369.996 98.2445 370.594 98.0646C371.206 97.8732 371.654 97.794 371.939 97.8269C372.482 97.8898 372.973 98.176 373.412 98.6855C374.089 99.629 374.404 100.478 374.356 101.233C374.326 101.609 374.298 101.908 374.272 102.127C374.261 102.336 374.253 102.466 374.247 102.518C374.097 103.811 373.562 104.981 372.641 106.028C371.634 107.144 370.13 107.737 368.13 107.807C367.074 107.868 366.121 108.06 365.271 108.381C364.422 108.702 363.57 108.866 362.718 108.872C361.385 108.718 360.477 108.187 359.992 107.278C359.507 106.37 359.292 105.572 359.345 104.884C359.371 104.546 359.389 104.273 359.4 104.064C359.426 103.844 359.444 103.689 359.454 103.599C359.565 102.641 359.803 101.719 360.168 100.83ZM379.233 100.716C380.57 100.149 381.392 99.5037 381.698 98.779C381.976 98.0771 382.14 97.5127 382.189 97.0859C382.261 96.465 382.215 95.8436 382.051 95.2217C381.758 94.1261 381.281 93.2059 380.62 92.4609C380.353 92.1678 380.09 91.8948 379.83 91.642C379.573 91.3763 379.32 91.1242 379.072 90.8859C378.573 90.4479 378.16 90.0463 377.836 89.6811C377.525 89.3044 377.277 88.9546 377.092 88.6316C376.908 88.2958 376.786 87.9868 376.727 87.7047C376.67 87.4096 376.656 87.1263 376.688 86.8547C376.749 86.3244 376.955 85.7386 377.304 85.0974C377.795 84.2498 378.372 83.6284 379.034 83.2331C379.708 82.8392 380.337 82.676 380.919 82.7433C381.1 82.7643 381.272 82.8039 381.436 82.8621C382.181 83.1056 382.812 83.8274 383.329 85.0275C383.559 85.644 383.702 86.1652 383.757 86.5911C383.826 87.0184 383.861 87.4485 383.864 87.8814C383.876 88.2236 383.906 88.6465 383.953 89.15C384.041 89.75 384.187 90.0685 384.393 90.1053C384.495 90.1302 384.572 90.1457 384.623 90.1517C384.688 90.1592 384.727 90.1636 384.74 90.1651C385.115 90.2085 385.418 89.9683 385.649 89.4445C385.706 89.2938 385.762 89.1431 385.819 88.9923C385.876 88.8416 385.933 88.6844 385.992 88.5208C386.327 87.5502 386.747 86.6355 387.253 85.7764C388.092 84.6414 389.061 84.1374 390.161 84.2646L390.296 84.2803C391.455 84.4667 392.33 85.2824 392.923 86.7273C393.16 87.397 393.251 87.9776 393.194 88.4691C393.155 88.8054 393.041 89.1133 392.851 89.3929C392.412 90.0107 391.661 90.6709 390.597 91.3735C390.525 91.4307 390.452 91.4879 390.38 91.5451C390.31 91.5894 390.238 91.6401 390.166 91.6973C388.231 93.125 387.081 94.2306 386.715 95.0141C386.336 95.7961 386.121 96.4134 386.068 96.8661C386.004 97.4223 386.079 97.9619 386.294 98.4848C386.671 99.4197 387.202 100.32 387.889 101.186C388.255 101.648 388.585 102.138 388.879 102.657C389.174 103.163 389.44 103.692 389.678 104.244C389.912 104.939 389.989 105.636 389.908 106.335C389.859 106.762 389.75 107.195 389.581 107.634C389.123 108.761 388.27 109.678 387.021 110.385C385.76 111.092 384.113 111.334 382.081 111.112C380.477 110.926 379.18 110.521 378.191 109.895C377.203 109.256 376.509 108.514 376.109 107.668C375.697 106.808 375.542 105.938 375.644 105.058L375.651 105C375.768 104.096 376.133 103.267 376.745 102.512C377.358 101.744 378.187 101.145 379.233 100.716Z" fill="white"/>
<path d="M211.872 50.9037C210.74 50.0387 210.083 49.2025 209.901 48.395C209.702 47.6248 209.639 46.9228 209.712 46.289C209.781 45.694 209.936 45.0893 210.177 44.475C210.268 44.2626 210.349 44.0099 210.422 43.7169C210.509 43.4254 210.599 43.0951 210.694 42.7259C210.857 41.9976 210.963 41.4201 211.013 40.9932C211.074 40.4629 211.094 39.954 211.071 39.4664C211.044 38.5719 210.69 38.0591 210.011 37.9281C209.584 37.8787 209.295 38.1075 209.145 38.6144C208.977 39.1586 208.867 39.6571 208.815 40.1098C208.798 40.2521 208.78 40.4073 208.761 40.5754C208.756 40.7321 208.75 40.8953 208.743 41.065C208.73 41.5222 208.73 41.9744 208.744 42.4216C208.77 42.8704 208.811 43.3142 208.865 43.753C208.893 43.9659 208.9 44.1831 208.888 44.4045C208.888 44.6274 208.876 44.8487 208.85 45.0686C208.774 45.7283 208.582 46.427 208.274 47.1647C207.753 48.3759 207.05 49.3038 206.163 49.9483C205.258 50.6301 204.275 50.9097 203.215 50.787C203.15 50.7795 203.079 50.7713 203.001 50.7623C202.924 50.7533 202.847 50.7379 202.771 50.716C201.25 50.2648 200.219 49.4901 199.677 48.392C199.137 47.2809 198.923 46.2403 199.036 45.2703C199.085 44.8434 199.178 44.4347 199.315 44.0442C199.766 42.8643 200.419 41.8061 201.275 40.8695C202.13 39.933 203.012 39.0584 203.918 38.2457C205.07 37.2386 205.959 36.2993 206.584 35.4279C206.814 35.022 206.95 34.6444 206.99 34.2952C207.034 33.9201 206.99 33.5612 206.859 33.2183C206.717 32.8611 206.55 32.4944 206.357 32.1182C206.165 31.7421 205.939 31.3686 205.681 30.9979C205.381 30.5307 205.101 30.0592 204.842 29.5835C204.596 29.0964 204.417 28.6038 204.305 28.1058C204.224 27.559 204.207 27.0787 204.255 26.6648C204.334 25.9792 204.583 25.4181 205 24.9814C205.698 24.2757 206.674 23.9954 207.929 24.1405C209.184 24.2856 210.033 24.5936 210.476 25.0644C210.909 25.5207 211.129 25.9919 211.139 26.4779C211.124 26.9481 211.099 27.3319 211.064 27.6294C211.04 27.8363 211.009 28.049 210.971 28.2674C210.934 28.4729 210.89 28.684 210.839 28.9009C210.786 29.1308 210.74 29.3613 210.7 29.5927C210.66 29.824 210.627 30.0496 210.602 30.2695C210.591 30.36 210.581 30.4506 210.57 30.5411C210.56 30.6317 210.556 30.7229 210.558 30.815C210.537 31.4548 210.619 31.8182 210.806 31.9053C210.978 32.0039 211.103 32.0577 211.18 32.0666C211.4 32.0921 211.611 31.9722 211.812 31.7071C211.998 31.4534 212.12 31.0809 212.177 30.5893C212.189 30.4859 212.195 30.3752 212.196 30.2573C212.211 30.1279 212.219 29.9978 212.221 29.867C212.202 29.3536 212.218 28.877 212.269 28.4372C212.382 27.4542 212.686 26.6438 213.179 26.0062C213.704 25.4377 214.385 25.0446 215.223 24.8269C216.072 24.6237 216.82 24.5595 217.467 24.6343C217.57 24.6463 217.673 24.6647 217.775 24.6896C217.891 24.7031 218 24.7223 218.102 24.7472C218.953 24.9897 219.437 25.5045 219.556 26.2916C219.561 26.3578 219.559 26.4296 219.55 26.5072C219.554 26.5864 219.553 26.6582 219.545 26.7229C219.493 27.1756 219.313 27.6529 219.006 28.1548C218.794 28.5105 218.555 28.8761 218.289 29.2516C218.036 29.6286 217.747 30.0278 217.423 30.4491C217.39 30.5108 217.35 30.5717 217.304 30.6319C217.257 30.6921 217.211 30.7522 217.165 30.8124C216.946 31.1148 216.737 31.3986 216.535 31.6637C216.349 31.9174 216.171 32.1524 216.002 32.3688C215.3 33.2183 214.868 33.8368 214.706 34.2243C214.533 34.5845 214.433 34.8809 214.406 35.1138C214.364 35.4759 214.409 35.8809 214.541 36.3287C214.774 37.0372 215.265 38.0575 216.015 39.3895C216.362 40.0194 216.704 40.6292 217.042 41.2189C217.382 41.7956 217.722 42.3658 218.064 42.9296C218.372 43.4371 218.629 43.8797 218.834 44.2574C219.052 44.6365 219.226 44.945 219.356 45.1829C219.892 46.2148 220.157 47.0975 220.151 47.8308C220.146 48.5512 220.133 49.0019 220.112 49.183C219.988 50.2566 219.487 51.1882 218.609 51.978C218.026 52.4873 217.254 52.6995 216.294 52.6146L216.217 52.6057C214.6 52.4186 213.152 51.8513 211.872 50.9037ZM223.658 53.5451C222.741 53.2031 222.303 52.792 222.346 52.3119C222.36 52.0776 222.368 51.895 222.37 51.7642C222.385 51.6348 222.394 51.5572 222.397 51.5314C222.497 50.6647 222.798 49.7624 223.3 48.8242C223.819 47.8488 224.309 47.0141 224.769 46.3202C224.802 46.2585 224.834 46.2098 224.865 46.174C224.897 46.1252 224.928 46.0765 224.96 46.0278C225.885 44.6012 226.779 43.2759 227.642 42.0518C228.519 40.8162 229.38 39.6575 230.226 38.5757C230.734 37.9266 231.199 37.3054 231.622 36.712C232.044 36.1186 232.431 35.5473 232.783 34.9982C233.122 34.4476 233.446 33.8559 233.756 33.2231C234.065 32.5904 234.366 31.9109 234.66 31.1847C234.852 30.6564 235.065 30.1763 235.298 29.7446C235.532 29.3128 235.78 28.9221 236.043 28.5724C236.57 27.8731 237.222 27.5094 237.998 27.4812C238.09 27.4788 238.175 27.482 238.253 27.491C238.345 27.4885 238.436 27.4926 238.526 27.503C239.432 27.6078 240.018 27.9835 240.284 28.6304C240.406 28.9329 240.445 29.2782 240.4 29.6662C240.329 30.2741 240.064 30.984 239.603 31.7958C238.79 33.1567 237.942 34.3694 237.059 35.4338C236.249 36.428 235.451 37.5482 234.664 38.7942C234.03 39.8611 233.401 40.9353 232.778 42.0167C232.154 43.0981 231.527 44.2118 230.897 45.3578C230.748 45.6289 230.599 45.8936 230.451 46.1517C230.303 46.4099 230.162 46.6688 230.027 46.9285C229.795 47.3473 229.533 47.8019 229.24 48.2924C228.962 48.7714 228.646 49.2919 228.293 49.854C227.6 50.9667 226.865 51.8844 226.087 52.607C225.32 53.3441 224.594 53.673 223.908 53.5937C223.792 53.5802 223.708 53.564 223.658 53.5451ZM226.741 33.3554C226.117 32.8508 225.809 32.3433 225.816 31.8328C225.818 31.5841 225.816 31.3741 225.81 31.203C225.817 31.0333 225.825 30.9032 225.835 30.8127C225.907 30.1918 226.092 29.6168 226.389 29.0875C226.728 28.5369 227.213 28.0293 227.843 27.5649C228.445 27.1232 228.98 26.8575 229.449 26.7676C229.865 26.6846 230.177 26.6551 230.384 26.679C230.785 26.7254 231.149 26.9183 231.477 27.2577C231.874 27.7887 232.035 28.384 231.958 29.0436C231.951 29.1083 231.943 29.1794 231.934 29.257C231.926 29.3217 231.912 29.3856 231.892 29.4488C231.702 30.292 231.303 31.0847 230.693 31.8268C230.084 32.5559 229.495 33.058 228.926 33.3329C228.371 33.5965 227.906 33.7065 227.531 33.6631C227.272 33.6332 227.009 33.5306 226.741 33.3554ZM232.401 54.2812C231.792 53.7651 231.491 53.2519 231.498 52.7414C231.502 52.4797 231.501 52.2633 231.494 52.0922C231.501 51.9225 231.51 51.786 231.522 51.6825C231.592 51.0746 231.782 50.5132 232.09 49.9984C232.429 49.4477 232.914 48.9402 233.544 48.4757C234.175 48.0112 234.705 47.7382 235.133 47.6568C235.561 47.5882 235.871 47.5652 236.065 47.5876C236.479 47.6355 236.843 47.8349 237.156 48.1857C237.557 48.6908 237.718 49.2796 237.64 49.9522C237.633 50.0169 237.624 50.088 237.615 50.1656C237.608 50.2303 237.594 50.2942 237.574 50.3574C237.384 51.2006 236.985 51.9933 236.374 52.7354C235.766 53.4645 235.177 53.9666 234.608 54.2415C234.04 54.5036 233.568 54.6129 233.193 54.5695C232.909 54.5366 232.645 54.4405 232.401 54.2812Z" fill="white"/>
<rect x="0.730591" y="452.7" width="252" height="131.419" rx="10" transform="rotate(-21.495 0.730591 452.7)" fill="white" fill-opacity="0.49"/>
<path d="M67.9398 538.139C68.7103 537.835 69.6733 537.893 70.8288 538.311C72.3265 538.745 73.4679 538.808 74.253 538.499C74.3548 538.459 74.4726 538.396 74.6066 538.309C75.3084 537.831 75.4933 537.171 75.1612 536.328C75.1154 536.211 75.0738 536.127 75.0363 536.074C74.5483 535.091 73.3013 534.163 71.2952 533.291C70.5309 532.97 69.7562 532.688 68.9712 532.443C68.3572 532.248 67.762 532.037 67.1858 531.811C66.6039 531.57 66.0482 531.31 65.5187 531.031C64.4655 530.489 63.6096 529.659 62.9511 528.541C62.8908 528.431 62.8304 528.32 62.7701 528.209C62.7243 528.093 62.6785 527.977 62.6327 527.861C62.2434 526.872 62.0809 525.777 62.1454 524.576C62.1754 523.842 62.2938 523.141 62.5005 522.472C62.7014 521.788 62.9879 521.129 63.3597 520.496C64.1035 519.229 65.1485 518.322 66.4949 517.775C67.8469 517.243 69.1893 517.176 70.5218 517.575C71.8544 517.974 72.9391 518.596 73.7761 519.442C74.613 520.288 75.2061 521.154 75.5553 522.041C75.6183 522.201 75.6769 522.371 75.731 522.551C75.7852 522.731 75.8292 522.907 75.8631 523.079C76.0379 524.034 75.9446 524.927 75.5833 525.758C75.1929 526.6 74.656 527.156 73.9728 527.425C73.7838 527.499 73.5571 527.564 73.2928 527.617C72.3839 527.74 71.5498 527.179 70.7905 525.933C70.1399 524.963 69.6638 524.479 69.362 524.48C69.066 524.496 68.8671 524.524 68.7653 524.564C68.4891 524.673 68.2846 524.921 68.152 525.309C67.9836 525.862 68.0182 526.462 68.2555 527.107C68.7536 528.372 69.7275 529.374 71.1773 530.113C72.0341 530.498 72.829 530.789 73.562 530.987C74.3038 531.165 75.0067 531.308 75.6706 531.416C76.4243 531.539 77.1677 531.7 77.9007 531.898C80.609 532.763 82.3329 533.772 83.0725 534.925C83.7772 536.075 84.2269 536.897 84.4215 537.391C84.9826 538.816 85.1168 540.308 84.8241 541.867C84.4182 543.992 83.2882 545.856 81.4343 547.459C80.1258 548.529 78.8827 549.295 77.7051 549.759C76.891 550.08 76.1008 550.248 75.3347 550.264C73.5299 550.287 71.9876 549.761 70.708 548.686C69.4024 547.588 68.5734 546.613 68.2211 545.761C67.8225 544.877 67.586 544.34 67.5115 544.151C67.0077 542.872 66.7631 541.675 66.7778 540.561C66.7964 539.244 67.1838 538.436 67.9398 538.139ZM95.3533 542.507C94.4414 542.665 93.6347 542.663 92.9334 542.503C92.2321 542.342 91.6185 542.063 91.0925 541.666C90.5666 541.269 90.1151 540.783 89.738 540.209C89.3698 539.615 89.0512 538.977 88.7821 538.294C88.3412 537.174 88.0821 535.983 88.0047 534.721C87.9361 533.438 87.9158 532.085 87.9437 530.664C87.9531 529.451 87.9365 528.215 87.8939 526.955C87.8659 525.69 87.7235 524.369 87.4668 522.993C87.4074 522.714 87.2753 522.186 87.0705 521.411C86.8715 520.649 86.6964 520.013 86.5454 519.501C86.4626 519.249 86.3897 519.042 86.3267 518.882C86.2783 518.717 86.234 518.583 86.194 518.481C86.068 518.161 85.9632 517.959 85.8795 517.875C85.8072 517.819 85.7275 517.808 85.6403 517.843C85.5676 517.871 85.4729 517.951 85.3561 518.081C85.2482 518.19 85.1343 518.328 85.0144 518.492C84.8889 518.642 84.7545 518.813 84.6113 519.004C84.202 519.585 83.7303 520.157 83.1963 520.72C82.6769 521.277 82.1118 521.676 81.5012 521.916C81.4431 521.939 81.3849 521.962 81.3268 521.985C81.2686 522.008 81.2076 522.023 81.1437 522.032C80.3939 522.26 79.5142 522.094 78.5045 521.535C77.5764 520.926 76.9205 520.135 76.5369 519.161C76.4396 518.914 76.3612 518.651 76.3018 518.372C75.9755 516.989 76.2955 515.754 77.2617 514.669C77.9908 513.962 78.8933 513.396 79.9692 512.973C80.1291 512.91 80.2919 512.854 80.4575 512.806C80.632 512.737 80.802 512.678 80.9677 512.63C81.7232 512.416 82.4437 512.242 83.1292 512.106C83.8292 511.965 84.5088 511.857 85.1678 511.782C85.8996 511.678 86.5562 511.512 87.1377 511.283L87.4212 511.172C88.16 510.83 88.9257 510.344 89.7183 509.713C90.0941 509.43 90.4873 509.15 90.898 508.87C91.3028 508.577 91.7381 508.296 92.2038 508.029C92.6695 507.761 93.0754 507.534 93.4217 507.347C93.7825 507.155 94.1011 507.004 94.3773 506.896C94.9152 506.684 95.3859 506.557 95.7895 506.516C96.7384 506.495 97.384 506.769 97.7262 507.34C97.9046 507.622 98.0468 507.877 98.153 508.104C98.2679 508.311 98.3569 508.494 98.4199 508.654C98.6603 509.264 98.7918 509.918 98.8142 510.614C98.8405 511.662 98.5573 512.521 97.9647 513.191C97.7577 513.39 97.4942 513.552 97.1744 513.678C96.9708 513.759 96.7514 513.82 96.5162 513.862C96.2171 513.913 95.9151 513.956 95.6102 513.992C95.2996 514.014 94.9789 514.031 94.6481 514.044C94.0851 514.064 93.6293 514.1 93.2809 514.154C92.9324 514.207 92.6782 514.265 92.5183 514.328C92.3148 514.408 92.159 514.503 92.0511 514.613C91.2232 515.325 91.1195 517.364 91.7398 520.73C91.816 521.137 91.8994 521.541 91.9901 521.942C92.0954 522.337 92.2079 522.729 92.3277 523.119C92.5818 523.892 92.7746 524.446 92.9063 524.78C93.0724 525.202 93.2501 525.61 93.4395 526.006C93.6231 526.387 93.8242 526.77 94.0426 527.154C94.6637 528.219 95.3909 528.957 96.2244 529.368C96.6239 529.529 97.0105 529.679 97.384 529.818C97.7721 529.95 98.1444 530.064 98.5007 530.159C99.5091 530.417 100.424 530.779 101.246 531.244C102.079 531.739 102.828 532.577 103.495 533.759L103.581 533.977C104.051 535.169 103.872 536.356 103.044 537.539C102.176 538.787 101.167 539.764 100.017 540.469C98.8669 541.174 97.914 541.675 97.158 541.973C96.5038 542.23 95.9022 542.408 95.3533 542.507ZM118.507 533.565C116.7 534.092 115.153 534.088 113.868 533.553C112.577 533.004 111.623 532.246 111.008 531.279C110.386 530.298 109.938 529.458 109.663 528.761C109.377 528.034 109.15 527.266 108.983 526.459C108.629 524.281 108.206 522.567 107.714 521.316C107.622 521.084 107.532 520.876 107.443 520.693C107.348 520.495 107.252 520.314 107.154 520.151C106.415 518.914 105.63 517.964 104.798 517.301C104.289 516.863 103.777 516.351 103.261 515.765C102.759 515.173 102.257 514.389 101.754 513.411C101.7 513.315 101.652 513.216 101.612 513.115C101.572 513.013 101.532 512.911 101.492 512.809C100.96 511.457 100.677 510.099 100.643 508.735C100.605 507.189 100.93 505.944 101.617 505.002C102.274 504.071 103.112 503.405 104.13 503.005C104.595 502.821 105.163 502.665 105.834 502.535C106.897 502.419 107.63 502.617 108.033 503.13C108.434 503.678 108.717 504.162 108.883 504.584C109.049 505.005 109.182 505.515 109.284 506.114C109.501 507.22 109.655 508.377 109.744 509.585C109.757 509.916 109.784 510.241 109.826 510.56C109.862 510.865 109.898 511.17 109.934 511.475C110.07 512.63 110.294 513.902 110.606 515.291C110.762 515.985 110.922 516.627 111.087 517.217C111.267 517.801 111.448 518.326 111.631 518.791C111.763 519.126 111.902 519.457 112.048 519.786C112.209 520.109 112.37 520.432 112.531 520.755C113.178 521.843 113.913 522.494 114.735 522.708C115.509 522.923 116.216 522.906 116.855 522.654C116.928 522.625 116.993 522.599 117.052 522.576C117.11 522.553 117.172 522.52 117.239 522.477C117.955 522.078 118.387 521.555 118.536 520.909C118.684 520.262 118.65 519.663 118.432 519.111C118.289 518.747 118.09 518.389 117.833 518.037C116.974 516.964 116.264 516.035 115.702 515.249C115.141 514.462 114.737 513.798 114.49 513.257C113.979 512.216 113.658 511.528 113.526 511.194C112.868 509.522 112.412 507.468 112.158 505.032C111.918 503.229 112.053 501.866 112.563 500.943C113.064 500.041 113.627 499.466 114.252 499.22C114.95 498.945 115.819 498.871 116.86 498.999C117.959 499.188 118.764 499.634 119.277 500.339C119.764 501.021 120.124 501.66 120.359 502.256C120.457 502.503 120.545 502.77 120.625 503.058C120.713 503.325 120.783 503.609 120.833 503.908C121.062 505.212 121.113 506.451 120.988 507.625C120.819 508.817 120.71 509.842 120.662 510.701C120.608 511.545 120.618 512.23 120.69 512.755C120.83 513.792 121.014 514.601 121.243 515.182C121.696 516.331 122.444 517.506 123.488 518.707C124.457 519.803 125.17 520.782 125.626 521.643C126.063 522.495 126.338 523.067 126.453 523.358C126.894 524.477 127.091 525.575 127.044 526.651C126.991 528.05 126.297 529.338 124.965 530.518C124.414 530.953 123.659 531.402 122.699 531.864C122.216 532.088 121.767 532.29 121.351 532.47C120.95 532.645 120.582 532.798 120.247 532.93C119.957 533.045 119.663 533.152 119.367 533.252C119.09 533.361 118.804 533.465 118.507 533.565ZM130.516 514.805C130.358 513.978 130.167 513.196 129.945 512.461C129.737 511.72 129.499 511.008 129.23 510.324C128.697 508.972 128.097 507.983 127.431 507.355C126.974 506.964 126.691 506.672 126.582 506.48C126.533 506.399 126.49 506.332 126.453 506.279C126.43 506.221 126.413 506.178 126.401 506.148C126.298 505.887 126.24 505.548 126.228 505.133C126.186 504.814 126.122 504.545 126.037 504.327C125.916 504.022 125.735 503.732 125.493 503.458C125.268 503.228 125.028 503.003 124.774 502.784C124.52 502.565 124.244 502.355 123.946 502.153C123.171 501.635 122.632 501.184 122.33 500.8C122.036 500.395 121.858 500.112 121.795 499.952C121.571 499.385 121.61 498.673 121.911 497.816C122.354 496.852 123.143 495.979 124.279 495.195C125.397 494.453 126.574 493.838 127.81 493.352L128.006 493.274C129.326 492.788 130.445 492.473 131.363 492.33C133.149 492.047 134.57 492.394 135.627 493.372C135.97 493.69 136.231 494.074 136.408 494.525C136.609 495.034 136.659 495.568 136.561 496.127C136.375 497.191 135.824 497.988 134.907 498.517L134.842 498.542C134.478 498.685 133.877 498.779 133.038 498.824C132.516 498.862 132.017 498.916 131.54 498.986C131.064 499.056 130.644 499.163 130.281 499.306L130.019 499.409C129.603 499.589 129.316 499.862 129.157 500.227C128.999 500.591 129.048 501.101 129.306 501.755C129.575 502.438 129.954 502.868 130.444 503.045C130.918 503.228 131.329 503.268 131.675 503.165C131.84 503.116 131.984 503.077 132.106 503.045C132.222 503 132.31 502.965 132.368 502.942C132.775 502.782 133.174 502.558 133.564 502.27C133.931 502.008 134.333 501.791 134.769 501.619C135.278 501.419 135.757 501.314 136.207 501.305C137.075 501.248 137.709 501.41 138.11 501.789C138.503 502.189 138.759 502.541 138.879 502.847C139.063 503.312 139.138 503.929 139.105 504.697C139.003 505.762 138.805 506.369 138.512 506.518C138.223 506.682 138.021 506.787 137.905 506.832C137.498 506.993 137.049 507.069 136.559 507.06C136.144 507.073 135.807 507.113 135.548 507.181C135.299 507.229 135.13 507.27 135.043 507.305C134.723 507.431 134.446 507.623 134.213 507.883C133.314 508.926 132.951 509.69 133.126 510.176C133.208 510.428 133.268 510.623 133.305 510.76C133.357 510.891 133.388 510.97 133.4 511C133.732 511.843 134.36 512.628 135.285 513.356C136.276 514.124 137.398 514.799 138.651 515.38C138.88 515.491 139.248 515.615 139.755 515.751C140.076 515.843 140.404 515.949 140.737 516.07C141.084 516.185 141.445 516.312 141.818 516.45C142.192 516.589 142.532 516.748 142.839 516.93C143.154 517.091 143.433 517.267 143.676 517.457C144.167 517.851 144.498 518.266 144.67 518.702C144.75 518.906 144.809 519.118 144.845 519.339C144.917 520.503 144.501 521.599 143.596 522.627C142.691 523.655 141.719 524.449 140.68 525.009C140.151 525.285 139.674 525.523 139.249 525.724C138.839 525.919 138.474 526.08 138.154 526.206C137.747 526.366 137.341 526.509 136.937 526.635C136.533 526.76 136.131 526.868 135.73 526.959C134.254 527.305 133.09 527.377 132.238 527.175C131.386 526.973 130.849 526.589 130.625 526.022C130.557 525.847 130.507 525.615 130.477 525.325C130.49 523.909 130.586 522.746 130.765 521.836C130.924 521.001 131.013 520.076 131.033 519.06C131.058 518.06 130.886 516.641 130.516 514.805ZM147.002 508.313C146.844 507.485 146.654 506.704 146.431 505.968C146.224 505.227 145.985 504.515 145.716 503.832C145.184 502.48 144.584 501.49 143.917 500.863C143.461 500.471 143.178 500.18 143.069 499.988C143.02 499.906 142.977 499.839 142.939 499.787C142.916 499.729 142.899 499.685 142.888 499.656C142.784 499.394 142.727 499.056 142.715 498.641C142.673 498.322 142.609 498.053 142.523 497.835C142.403 497.529 142.221 497.24 141.979 496.966C141.754 496.735 141.515 496.511 141.26 496.292C141.006 496.073 140.73 495.862 140.432 495.661C139.658 495.143 139.119 494.692 138.816 494.307C138.522 493.902 138.344 493.62 138.281 493.46C138.058 492.893 138.096 492.181 138.397 491.323C138.84 490.36 139.63 489.486 140.766 488.703C141.884 487.96 143.061 487.346 144.296 486.859L144.493 486.782C145.813 486.296 146.931 485.981 147.849 485.838C149.635 485.554 151.056 485.901 152.113 486.879C152.457 487.197 152.717 487.582 152.895 488.032C153.095 488.541 153.146 489.075 153.047 489.635C152.862 490.699 152.31 491.495 151.394 492.024L151.328 492.05C150.965 492.193 150.364 492.287 149.525 492.332C149.002 492.37 148.503 492.423 148.027 492.493C147.551 492.563 147.131 492.67 146.767 492.813L146.506 492.916C146.09 493.097 145.802 493.369 145.644 493.734C145.485 494.099 145.535 494.608 145.792 495.263C146.061 495.946 146.441 496.376 146.93 496.553C147.405 496.735 147.815 496.775 148.161 496.672C148.327 496.624 148.471 496.584 148.593 496.553C148.709 496.507 148.796 496.473 148.854 496.45C149.261 496.289 149.66 496.065 150.05 495.777C150.417 495.515 150.819 495.298 151.255 495.126C151.764 494.926 152.243 494.821 152.693 494.812C153.561 494.756 154.195 494.917 154.597 495.297C154.989 495.696 155.246 496.049 155.366 496.354C155.549 496.819 155.624 497.436 155.591 498.205C155.49 499.269 155.292 499.876 154.998 500.025C154.71 500.189 154.508 500.294 154.391 500.34C153.984 500.5 153.536 500.576 153.045 500.568C152.63 500.58 152.293 500.62 152.035 500.689C151.785 500.737 151.617 500.778 151.529 500.812C151.21 500.938 150.933 501.131 150.699 501.391C149.8 502.433 149.438 503.198 149.612 503.683C149.695 503.936 149.755 504.131 149.792 504.267C149.843 504.398 149.875 504.478 149.886 504.507C150.218 505.35 150.847 506.136 151.771 506.863C152.762 507.631 153.885 508.306 155.138 508.887C155.366 508.999 155.734 509.123 156.241 509.259C156.563 509.351 156.89 509.457 157.223 509.578C157.571 509.693 157.931 509.819 158.305 509.958C158.678 510.096 159.018 510.256 159.325 510.437C159.64 510.599 159.92 510.774 160.162 510.964C160.653 511.359 160.985 511.774 161.157 512.21C161.237 512.413 161.295 512.626 161.332 512.846C161.404 514.01 160.987 515.106 160.082 516.134C159.177 517.162 158.206 517.957 157.167 518.517C156.637 518.793 156.16 519.031 155.735 519.232C155.325 519.427 154.96 519.587 154.64 519.713C154.233 519.874 153.828 520.017 153.424 520.142C153.02 520.268 152.617 520.376 152.216 520.466C150.741 520.812 149.577 520.885 148.725 520.683C147.873 520.481 147.335 520.096 147.112 519.529C147.043 519.355 146.994 519.123 146.963 518.832C146.977 517.416 147.073 516.253 147.252 515.343C147.41 514.508 147.499 513.583 147.519 512.568C147.545 511.567 147.372 510.149 147.002 508.313Z" fill="black"/>
<path d="M67.1813 484.619C65.4941 484.343 64.326 483.829 63.6772 483.077C63.031 482.374 62.5677 481.666 62.2871 480.954C62.0238 480.285 61.8463 479.557 61.7548 478.771C61.7301 478.495 61.6738 478.181 61.5857 477.83C61.5122 477.472 61.4215 477.072 61.3136 476.627C61.0745 475.764 60.8604 475.093 60.6715 474.613C60.4368 474.017 60.1699 473.467 59.8708 472.963C59.3361 472.032 58.672 471.689 57.8786 471.934C57.3988 472.123 57.2226 472.528 57.3498 473.15C57.4797 473.821 57.6448 474.411 57.8452 474.92C57.9082 475.08 57.9769 475.254 58.0513 475.443C58.1346 475.612 58.2207 475.788 58.3097 475.971C58.5537 476.463 58.8093 476.941 59.0767 477.407C59.3586 477.867 59.6521 478.314 59.9574 478.748C60.1071 478.958 60.238 479.183 60.3498 479.425C60.4762 479.66 60.5881 479.902 60.6854 480.149C60.9774 480.89 61.1687 481.739 61.2594 482.694C61.3931 484.27 61.1725 485.65 60.5975 486.834C60.0251 488.067 59.1428 488.918 57.9507 489.387C57.878 489.416 57.798 489.447 57.7108 489.482C57.6236 489.516 57.5335 489.543 57.4405 489.563C55.5757 489.945 54.0464 489.707 52.8526 488.851C51.6532 487.98 50.8387 486.999 50.4093 485.909C50.2204 485.429 50.0881 484.944 50.0123 484.453C49.8231 482.949 49.9166 481.459 50.293 479.985C50.6694 478.51 51.1079 477.086 51.6085 475.713C52.2589 473.996 52.6688 472.5 52.8381 471.224C52.8527 470.664 52.7827 470.188 52.6281 469.795C52.4621 469.374 52.213 469.018 51.8809 468.729C51.5285 468.432 51.1441 468.138 50.7279 467.848C50.3116 467.559 49.8618 467.291 49.3786 467.045C48.7971 466.72 48.2346 466.378 47.691 466.022C47.1563 465.644 46.6885 465.224 46.2876 464.761C45.893 464.228 45.604 463.728 45.4208 463.263C45.1174 462.493 45.0633 461.758 45.2585 461.06C45.5983 459.919 46.4733 459.07 47.8835 458.515C49.2937 457.96 50.3667 457.806 51.1023 458.053C51.8177 458.292 52.3177 458.666 52.6022 459.176C52.8519 459.682 53.0426 460.102 53.1743 460.436C53.2659 460.669 53.3531 460.912 53.4359 461.165C53.513 461.403 53.5856 461.651 53.6539 461.91C53.7279 462.183 53.8091 462.454 53.8976 462.721C53.9862 462.988 54.0791 463.246 54.1764 463.493C54.2165 463.595 54.2566 463.696 54.2967 463.798C54.3367 463.9 54.3841 463.999 54.4387 464.095C54.7774 464.784 55.0701 465.122 55.3168 465.109C55.5547 465.116 55.7172 465.103 55.8045 465.068C56.0516 464.971 56.2067 464.725 56.2697 464.331C56.324 463.957 56.2423 463.494 56.0247 462.941C55.9789 462.825 55.923 462.704 55.8569 462.579C55.7997 462.434 55.7352 462.291 55.6634 462.152C55.3529 461.619 55.1003 461.105 54.9056 460.611C54.4705 459.506 54.3338 458.477 54.4956 457.523C54.7296 456.625 55.2286 455.824 55.9926 455.12C56.7768 454.425 57.5324 453.934 58.2593 453.648C58.3756 453.602 58.4948 453.564 58.6168 453.532C58.7476 453.481 58.8741 453.439 58.9961 453.408C60.0332 453.184 60.8369 453.456 61.4073 454.222C61.4505 454.289 61.4892 454.366 61.5236 454.453C61.5725 454.535 61.6112 454.612 61.6398 454.684C61.8402 455.193 61.9197 455.8 61.8782 456.505C61.8552 457.001 61.8089 457.523 61.7392 458.071C61.6841 458.613 61.6041 459.199 61.4992 459.828C61.4987 459.912 61.491 459.999 61.476 460.089C61.461 460.179 61.446 460.269 61.431 460.359C61.3706 460.802 61.3089 461.221 61.2459 461.616C61.1917 461.99 61.1361 462.339 61.0792 462.664C60.817 463.959 60.7092 464.858 60.7558 465.36C60.7765 465.839 60.8383 466.209 60.9414 466.471C61.1017 466.878 61.3781 467.282 61.7705 467.681C62.4172 468.3 63.514 469.102 65.0611 470.088C65.7839 470.559 66.4909 471.011 67.1821 471.444C67.8675 471.863 68.5501 472.274 69.2298 472.678C69.843 473.041 70.365 473.365 70.7958 473.649C71.2411 473.927 71.5997 474.155 71.8715 474.333C73.0221 475.123 73.8013 475.907 74.2091 476.687C74.6112 477.453 74.8524 477.937 74.9325 478.14C75.4077 479.347 75.4039 480.617 74.9209 481.949C74.5913 482.817 73.8943 483.478 72.8299 483.931L72.7426 483.965C70.9254 484.681 69.0716 484.899 67.1813 484.619ZM81.151 480.755C79.9867 480.911 79.2913 480.723 79.065 480.191C78.9474 479.935 78.8527 479.737 78.7809 479.597C78.7236 479.452 78.6893 479.365 78.6778 479.336C78.2942 478.362 78.1029 477.236 78.104 475.959C78.1024 474.633 78.1492 473.473 78.2444 472.478C78.2449 472.394 78.2511 472.325 78.263 472.27C78.2691 472.2 78.2753 472.13 78.2815 472.061C78.4549 470.028 78.6522 468.12 78.8736 466.336C79.1037 464.533 79.361 462.819 79.6453 461.196C79.8159 460.222 79.9572 459.302 80.0692 458.435C80.1812 457.568 80.2683 456.744 80.3305 455.964C80.3781 455.189 80.3868 454.38 80.3565 453.535C80.3262 452.691 80.2613 451.801 80.1619 450.866C80.0668 450.199 80.0208 449.57 80.024 448.981C80.0271 448.392 80.0693 447.838 80.1504 447.319C80.3126 446.281 80.7968 445.528 81.6031 445.059C81.6991 445.005 81.7907 444.96 81.878 444.926C81.974 444.871 82.0729 444.824 82.1747 444.784C83.1924 444.383 84.0248 444.45 84.6718 444.984C84.9723 445.236 85.2083 445.579 85.3801 446.015C85.6492 446.699 85.7691 447.6 85.7399 448.72C85.6485 450.62 85.436 452.383 85.1023 454.009C84.807 455.519 84.5951 457.156 84.4667 458.919C84.3979 460.408 84.3391 461.9 84.2905 463.397C84.2418 464.894 84.2075 466.427 84.1875 467.997C84.1826 468.368 84.1749 468.732 84.1643 469.089C84.1537 469.446 84.1503 469.8 84.1543 470.151C84.1454 470.726 84.1246 471.355 84.0919 472.04C84.0681 472.704 84.0279 473.433 83.9714 474.228C83.8673 475.797 83.6074 477.184 83.1919 478.389C82.7966 479.603 82.2137 480.361 81.4431 480.665C81.3123 480.716 81.2149 480.746 81.151 480.755ZM73.0053 457.64C72.0604 457.457 71.4472 457.094 71.1657 456.55C71.0279 456.286 70.9072 456.064 70.8037 455.887C70.7147 455.704 70.6502 455.561 70.6101 455.459C70.3353 454.761 70.2057 454.048 70.2212 453.32C70.2688 452.546 70.4951 451.735 70.9001 450.887C71.2874 450.079 71.704 449.495 72.1498 449.135C72.5433 448.812 72.8563 448.605 73.0889 448.513C73.5396 448.336 74.0343 448.334 74.5731 448.508C75.2937 448.846 75.8001 449.385 76.0921 450.127C76.1207 450.199 76.1522 450.279 76.1865 450.366C76.2152 450.439 76.2365 450.515 76.2506 450.593C76.5267 451.593 76.5515 452.658 76.3249 453.788C76.0926 454.904 75.7529 455.768 75.3057 456.381C74.8673 456.973 74.4373 457.353 74.0157 457.519C73.7249 457.633 73.3881 457.673 73.0053 457.64ZM90.8223 476.593C89.8862 476.391 89.2775 476.018 88.996 475.474C88.8524 475.194 88.7289 474.966 88.6254 474.788C88.5364 474.605 88.469 474.455 88.4232 474.339C88.1541 473.656 88.0375 472.954 88.0732 472.235C88.1209 471.461 88.3472 470.649 88.7521 469.801C89.1571 468.953 89.5636 468.365 89.9715 468.036C90.3852 467.722 90.7011 467.522 90.9192 467.437C91.3844 467.253 91.882 467.259 92.4119 467.453C93.1212 467.762 93.6246 468.294 93.9223 469.05C93.951 469.123 93.9825 469.203 94.0168 469.29C94.0454 469.363 94.0668 469.438 94.0809 469.516C94.357 470.516 94.3818 471.581 94.1552 472.711C93.9229 473.827 93.5832 474.692 93.136 475.304C92.683 475.903 92.2457 476.285 91.8241 476.451C91.5043 476.577 91.1704 476.624 90.8223 476.593Z" fill="black"/>
<rect x="14.0287" y="184.288" width="142" height="149" rx="10" transform="rotate(-30.4675 14.0287 184.288)" fill="#56D6E5" fill-opacity="0.8"/>
<path d="M106.718 299.431C105.988 299.679 105.324 299.782 104.726 299.742C104.128 299.701 103.587 299.551 103.102 299.292C102.617 299.033 102.183 298.692 101.798 298.269C101.417 297.828 101.072 297.344 100.762 296.816C100.254 295.952 99.8855 295.006 99.6577 293.976C99.4345 292.929 99.242 291.819 99.0802 290.645C98.9303 289.646 98.756 288.63 98.5572 287.599C98.3697 286.561 98.0809 285.492 97.6907 284.393C97.6055 284.171 97.4282 283.754 97.1588 283.142C96.8961 282.541 96.6693 282.04 96.4785 281.639C96.3775 281.441 96.2906 281.281 96.218 281.157C96.1566 281.027 96.1028 280.923 96.0566 280.844C95.9113 280.598 95.7988 280.445 95.7189 280.386C95.6522 280.35 95.5852 280.351 95.5179 280.391C95.4617 280.424 95.3941 280.501 95.3149 280.624C95.2403 280.728 95.1643 280.856 95.0871 281.007C95.0033 281.147 94.9148 281.305 94.8217 281.48C94.5603 282.012 94.2464 282.544 93.88 283.077C93.5249 283.603 93.1116 284.004 92.6403 284.282C92.5954 284.308 92.5505 284.335 92.5056 284.361C92.4607 284.387 92.4125 284.408 92.361 284.423C91.7734 284.709 91.0278 284.687 90.124 284.357C89.2809 283.977 88.6382 283.411 88.1958 282.659C88.0836 282.468 87.9849 282.262 87.8997 282.04C87.4514 280.944 87.5544 279.886 88.2086 278.867C88.7169 278.19 89.3863 277.608 90.2168 277.119C90.3403 277.047 90.467 276.98 90.5971 276.918C90.7317 276.839 90.8641 276.769 90.9942 276.707C91.5883 276.433 92.1587 276.196 92.7053 275.995C93.2632 275.788 93.8085 275.611 94.3412 275.463C94.9301 275.283 95.449 275.061 95.8979 274.797L96.1168 274.668C96.6806 274.291 97.2476 273.791 97.818 273.169C98.0907 272.888 98.3778 272.605 98.6795 272.322C98.9746 272.028 99.2965 271.74 99.645 271.459C99.9936 271.179 100.298 270.939 100.559 270.741C100.831 270.535 101.074 270.37 101.287 270.244C101.702 270 102.073 269.835 102.4 269.748C103.178 269.608 103.745 269.75 104.101 270.175C104.285 270.384 104.435 270.575 104.552 270.748C104.673 270.903 104.77 271.043 104.843 271.166C105.12 271.638 105.313 272.158 105.422 272.729C105.58 273.588 105.459 274.331 105.058 274.96C104.913 275.151 104.718 275.319 104.471 275.464C104.314 275.556 104.141 275.635 103.953 275.701C103.713 275.781 103.47 275.856 103.224 275.925C102.971 275.984 102.709 276.039 102.439 276.093C101.978 276.183 101.608 276.272 101.328 276.361C101.048 276.45 100.846 276.531 100.723 276.604C100.565 276.696 100.45 276.795 100.375 276.899C99.7862 277.593 99.9658 279.285 100.914 281.975C101.029 282.3 101.151 282.621 101.277 282.94C101.415 283.251 101.559 283.56 101.708 283.865C102.018 284.468 102.249 284.899 102.4 285.157C102.592 285.482 102.791 285.796 102.999 286.097C103.199 286.386 103.415 286.675 103.644 286.963C104.294 287.759 104.988 288.272 105.728 288.502C106.078 288.583 106.415 288.656 106.741 288.722C107.078 288.78 107.399 288.826 107.704 288.857C108.568 288.938 109.368 289.117 110.105 289.394C110.855 289.693 111.581 290.286 112.284 291.171L112.383 291.34C112.924 292.26 112.931 293.261 112.403 294.341C111.851 295.482 111.147 296.417 110.292 297.147C109.437 297.876 108.718 298.413 108.135 298.756C107.63 299.053 107.158 299.278 106.718 299.431ZM113.907 290.194C113.174 288.872 112.719 287.418 112.541 285.831C112.369 284.255 112.319 282.706 112.39 281.184C112.418 280.563 112.414 280.029 112.377 279.582C112.352 279.129 112.295 278.762 112.206 278.482C112.016 277.929 111.823 277.484 111.625 277.147C111.327 276.642 110.93 276.121 110.432 275.583C109.656 274.725 109.126 274.055 108.842 273.572C108.558 273.09 108.406 272.832 108.386 272.798C107.845 271.878 107.506 270.982 107.371 270.109C107.207 269.163 107.321 268.266 107.713 267.416C108.115 266.56 108.895 265.792 110.051 265.111C111.016 264.544 111.949 264.32 112.85 264.439C113.78 264.556 114.504 264.849 115.02 265.315C115.536 265.782 115.926 266.24 116.19 266.689C116.388 267.025 116.558 267.417 116.699 267.862C117.02 269.049 117.424 270.057 117.913 270.887C118.21 271.393 118.549 271.828 118.93 272.193C119.82 273.089 120.788 273.721 121.834 274.087C122.366 274.272 122.897 274.443 123.428 274.6C123.951 274.745 124.485 274.869 125.029 274.972C125.845 275.127 126.637 275.318 127.405 275.545C128.174 275.773 128.909 276.111 129.611 276.559C130.359 277.086 130.944 277.709 131.367 278.427C131.459 278.584 131.544 278.753 131.62 278.935C131.701 279.099 131.777 279.266 131.847 279.436C132.266 280.61 132.335 281.793 132.054 282.985C131.76 284.155 131.073 285.118 129.992 285.875L129.875 285.944C129.033 286.439 128.121 286.674 127.138 286.647C126.109 286.618 125.21 286.309 124.44 285.72C124.118 285.456 123.882 285.194 123.73 284.936C123.644 284.79 123.561 284.636 123.479 284.472C123.409 284.302 123.329 284.114 123.24 283.91C123.011 283.29 122.507 282.317 121.727 280.993C121.353 280.382 121.051 279.895 120.822 279.531C120.593 279.168 120.41 278.883 120.274 278.676C120.137 278.469 120.031 278.328 119.956 278.251C119.892 278.168 119.826 278.108 119.76 278.072C119.293 277.818 118.863 277.806 118.47 278.037C118.324 278.123 118.197 278.228 118.089 278.352C117.611 278.875 117.403 279.625 117.463 280.601C117.514 280.995 117.624 281.337 117.796 281.629C117.882 281.775 117.988 281.916 118.114 282.054C118.302 282.245 118.532 282.443 118.802 282.646C119.084 282.843 119.396 283.052 119.738 283.274C119.945 283.394 120.165 283.537 120.398 283.702C121.323 284.35 121.994 285.028 122.41 285.735C122.806 286.409 122.967 287.107 122.894 287.83C122.736 289.282 121.736 290.611 119.892 291.817L119.757 291.896C118.478 292.649 117.369 292.87 116.432 292.561C115.488 292.24 114.672 291.496 113.986 290.329L113.907 290.194ZM112.863 271.819C112.89 272.12 112.939 272.461 113.012 272.841C113.084 273.222 113.165 273.499 113.252 273.674C113.294 273.771 113.331 273.847 113.364 273.903C113.397 273.959 113.42 273.998 113.434 274.021C113.586 274.279 113.764 274.454 113.968 274.545C114.222 274.667 114.54 274.617 114.921 274.392C115.258 274.194 115.478 274.004 115.583 273.822C115.691 273.622 115.747 273.446 115.748 273.294C115.749 273.142 115.715 273.019 115.644 272.925C115.585 272.824 115.555 272.773 115.555 272.773C115.41 272.526 115.214 272.309 114.968 272.121C114.068 271.337 113.538 270.923 113.377 270.882C113.199 270.835 113.082 270.829 113.026 270.862C112.891 270.941 112.837 271.26 112.863 271.819ZM146.422 274.782C144.997 274.774 143.969 274.503 143.337 273.968C142.714 273.474 142.24 272.952 141.917 272.402C141.613 271.886 141.373 271.31 141.195 270.674C141.139 270.45 141.052 270.199 140.933 269.921C140.826 269.637 140.7 269.318 140.553 268.967C140.244 268.287 139.981 267.762 139.763 267.392C139.492 266.932 139.201 266.514 138.889 266.138C138.328 265.441 137.737 265.245 137.116 265.55C136.745 265.768 136.653 266.125 136.839 266.62C137.033 267.155 137.245 267.619 137.476 268.012C137.549 268.136 137.628 268.27 137.714 268.416C137.804 268.544 137.898 268.678 137.995 268.817C138.26 269.19 138.533 269.551 138.813 269.899C139.105 270.241 139.405 270.571 139.712 270.889C139.863 271.042 140 271.211 140.123 271.395C140.258 271.572 140.382 271.757 140.494 271.947C140.831 272.52 141.098 273.193 141.297 273.967C141.612 275.248 141.61 276.412 141.29 277.461C140.979 278.55 140.364 279.366 139.443 279.907C139.387 279.94 139.326 279.976 139.258 280.016C139.191 280.056 139.12 280.09 139.046 280.118C137.561 280.675 136.271 280.678 135.177 280.128C134.077 279.567 133.279 278.866 132.784 278.024C132.566 277.654 132.394 277.271 132.268 276.877C131.917 275.664 131.8 274.426 131.918 273.163C132.036 271.9 132.212 270.671 132.446 269.476C132.758 267.978 132.901 266.693 132.874 265.621C132.814 265.158 132.694 264.775 132.516 264.472C132.324 264.147 132.073 263.886 131.762 263.692C131.434 263.492 131.079 263.301 130.699 263.116C130.318 262.932 129.913 262.77 129.484 262.63C128.963 262.438 128.455 262.23 127.962 262.007C127.472 261.766 127.033 261.481 126.643 261.152C126.248 260.764 125.946 260.391 125.734 260.032C125.384 259.437 125.244 258.84 125.314 258.239C125.446 257.256 126.056 256.444 127.144 255.803C128.233 255.163 129.096 254.897 129.734 255.005C130.354 255.109 130.814 255.352 131.114 255.734C131.386 256.118 131.597 256.439 131.749 256.697C131.855 256.877 131.958 257.065 132.059 257.263C132.154 257.449 132.246 257.644 132.335 257.848C132.432 258.063 132.534 258.275 132.641 258.484C132.749 258.692 132.859 258.892 132.971 259.083C133.017 259.161 133.064 259.24 133.11 259.319C133.156 259.397 133.208 259.472 133.265 259.544C133.634 260.068 133.919 260.308 134.12 260.265C134.317 260.24 134.449 260.208 134.516 260.168C134.707 260.056 134.803 259.833 134.803 259.501C134.799 259.186 134.672 258.815 134.421 258.389C134.368 258.299 134.306 258.207 134.236 258.112C134.17 258 134.098 257.891 134.021 257.786C133.696 257.388 133.421 256.998 133.197 256.616C132.695 255.763 132.449 254.934 132.458 254.128C132.534 253.358 132.841 252.634 133.378 251.955C133.933 251.281 134.491 250.779 135.053 250.449C135.142 250.396 135.235 250.349 135.332 250.307C135.433 250.248 135.532 250.197 135.628 250.156C136.452 249.837 137.149 249.955 137.718 250.512C137.763 250.561 137.805 250.62 137.844 250.687C137.895 250.748 137.937 250.806 137.97 250.862C138.201 251.255 138.345 251.744 138.403 252.33C138.448 252.741 138.478 253.177 138.492 253.637C138.517 254.091 138.527 254.583 138.523 255.115C138.533 255.184 138.538 255.257 138.537 255.333C138.537 255.408 138.536 255.484 138.536 255.56C138.543 255.933 138.547 256.286 138.546 256.619C138.55 256.934 138.55 257.229 138.545 257.503C138.498 258.604 138.526 259.358 138.63 259.765C138.709 260.157 138.808 260.453 138.927 260.655C139.112 260.97 139.392 261.266 139.767 261.544C140.379 261.969 141.386 262.487 142.788 263.097C143.444 263.391 144.085 263.671 144.71 263.938C145.329 264.193 145.944 264.443 146.556 264.687C147.108 264.907 147.58 265.105 147.971 265.283C148.374 265.453 148.699 265.595 148.946 265.706C149.995 266.207 150.739 266.751 151.176 267.34C151.606 267.918 151.868 268.285 151.96 268.442C152.508 269.374 152.67 270.419 152.445 271.579C152.287 272.336 151.799 272.971 150.982 273.482L150.915 273.521C149.512 274.347 148.014 274.767 146.422 274.782Z" fill="black"/>
<path d="M92.2523 222.1C89.1536 222.083 86.9172 221.493 85.543 220.33C84.1875 219.254 83.1579 218.118 82.4542 216.922C81.7937 215.799 81.2703 214.547 80.884 213.164C80.7619 212.677 80.5723 212.131 80.3153 211.527C80.0827 210.908 79.8069 210.216 79.4882 209.451C78.8161 207.973 78.2431 206.832 77.7693 206.026C77.1805 205.025 76.5473 204.116 75.8695 203.299C74.6489 201.783 73.3631 201.357 72.0119 202.02C71.2064 202.494 71.0054 203.269 71.4089 204.346C71.8311 205.511 72.2935 206.52 72.7961 207.375C72.954 207.643 73.1264 207.936 73.313 208.253C73.5098 208.532 73.7137 208.823 73.9248 209.126C74.5006 209.937 75.0936 210.722 75.7039 211.48C76.3386 212.224 76.9905 212.941 77.6597 213.631C77.9871 213.964 78.285 214.331 78.5536 214.732C78.8465 215.118 79.115 215.519 79.3591 215.934C80.0915 217.179 80.6738 218.643 81.1061 220.328C81.7911 223.112 81.7861 225.645 81.0912 227.926C80.415 230.296 79.0761 232.069 77.0745 233.246C76.9524 233.318 76.8182 233.397 76.6717 233.483C76.5253 233.57 76.3716 233.643 76.2108 233.705C72.9801 234.916 70.1751 234.923 67.7957 233.727C65.4021 232.507 63.6667 230.981 62.5897 229.15C62.1159 228.345 61.7418 227.513 61.4675 226.656C60.7035 224.017 60.45 221.324 60.7069 218.577C60.9639 215.83 61.3464 213.157 61.8547 210.558C62.5337 207.3 62.8445 204.505 62.787 202.173C62.6549 201.167 62.3949 200.334 62.0072 199.675C61.5908 198.967 61.0444 198.401 60.3681 197.978C59.653 197.544 58.8819 197.127 58.0548 196.726C57.2277 196.326 56.3468 195.973 55.412 195.669C54.2791 195.251 53.1756 194.8 52.1015 194.314C51.0375 193.79 50.0812 193.17 49.2325 192.454C48.3753 191.611 47.7169 190.799 47.2574 190.018C46.4963 188.724 46.1918 187.424 46.344 186.119C46.6297 183.98 47.9564 182.213 50.3241 180.821C52.6919 179.428 54.5693 178.849 55.9564 179.084C57.3047 179.31 58.3055 179.838 58.9589 180.67C59.5491 181.505 60.0093 182.204 60.3396 182.765C60.5693 183.156 60.7941 183.566 61.0138 183.995C61.2191 184.4 61.4194 184.824 61.6147 185.268C61.8244 185.736 62.0463 186.197 62.2803 186.651C62.5144 187.104 62.7535 187.539 62.9976 187.954C63.0981 188.125 63.1986 188.295 63.2992 188.466C63.3997 188.637 63.5124 188.801 63.6373 188.957C64.4386 190.096 65.0582 190.619 65.4961 190.525C65.924 190.471 66.2112 190.4 66.3577 190.314C66.7726 190.07 66.9808 189.586 66.9822 188.862C66.9736 188.178 66.6964 187.371 66.1508 186.444C66.0359 186.248 65.9016 186.048 65.748 185.843C65.6044 185.599 65.4486 185.362 65.2806 185.132C64.5741 184.266 63.9767 183.418 63.4885 182.588C62.3972 180.733 61.8615 178.929 61.8815 177.176C62.0466 175.502 62.7135 173.926 63.8823 172.45C65.0899 170.984 66.3039 169.892 67.5244 169.174C67.7196 169.059 67.9221 168.957 68.1317 168.866C68.3514 168.737 68.5661 168.627 68.7757 168.537C70.5691 167.843 72.0847 168.101 73.3225 169.312C73.4187 169.42 73.5099 169.547 73.5961 169.693C73.7066 169.825 73.7978 169.952 73.8696 170.074C74.3722 170.929 74.686 171.993 74.8109 173.266C74.9101 174.161 74.9747 175.108 75.0049 176.109C75.0595 177.096 75.0818 178.167 75.0718 179.323C75.0947 179.474 75.1055 179.632 75.1041 179.797C75.1027 179.962 75.1012 180.127 75.0998 180.292C75.1171 181.103 75.125 181.871 75.1236 182.595C75.1322 183.279 75.1315 183.921 75.1215 184.518C75.0182 186.912 75.0793 188.551 75.3047 189.437C75.4771 190.289 75.6925 190.934 75.9509 191.374C76.353 192.057 76.9619 192.701 77.7775 193.306C79.11 194.23 81.3005 195.357 84.349 196.685C85.7763 197.324 87.1698 197.933 88.5296 198.513C89.8751 199.069 91.2134 199.612 92.5445 200.143C93.7449 200.62 94.7708 201.052 95.6223 201.438C96.4982 201.81 97.2047 202.117 97.7418 202.36C100.025 203.448 101.642 204.633 102.592 205.913C103.529 207.17 104.097 207.969 104.298 208.31C105.49 210.336 105.842 212.61 105.354 215.132C105.009 216.78 103.948 218.16 102.171 219.271L102.024 219.358C98.9729 221.153 95.7156 222.067 92.2523 222.1ZM116.17 211.233C114.13 211.842 112.832 211.702 112.276 210.813C111.993 210.388 111.768 210.061 111.6 209.831C111.456 209.587 111.37 209.44 111.341 209.391C110.379 207.756 109.719 205.795 109.36 203.509C108.982 201.136 108.738 199.045 108.627 197.237C108.604 197.087 108.596 196.96 108.601 196.858C108.593 196.732 108.584 196.606 108.575 196.479C108.311 192.79 108.125 189.318 108.017 186.063C107.919 182.769 107.896 179.629 107.946 176.642C107.976 174.85 107.969 173.162 107.924 171.579C107.88 169.995 107.803 168.496 107.693 167.081C107.56 165.681 107.347 164.23 107.054 162.726C106.761 161.223 106.393 159.649 105.951 158.003C105.592 156.834 105.332 155.722 105.171 154.667C105.01 153.611 104.929 152.608 104.927 151.656C104.925 149.752 105.579 148.266 106.889 147.199C107.046 147.074 107.197 146.969 107.344 146.883C107.5 146.758 107.664 146.645 107.835 146.545C109.544 145.539 111.053 145.424 112.362 146.198C112.971 146.562 113.491 147.111 113.922 147.843C114.597 148.99 115.066 150.571 115.331 152.584C115.704 156.011 115.822 159.228 115.684 162.233C115.582 165.02 115.666 168.01 115.934 171.204C116.232 173.887 116.548 176.576 116.884 179.27C117.22 181.963 117.592 184.718 118 187.534C118.097 188.2 118.186 188.854 118.267 189.496C118.349 190.138 118.443 190.773 118.55 191.4C118.696 192.431 118.837 193.564 118.972 194.799C119.117 195.995 119.251 197.312 119.375 198.751C119.632 201.59 119.559 204.147 119.155 206.421C118.791 208.706 117.962 210.228 116.668 210.989C116.448 211.119 116.282 211.2 116.17 211.233ZM95.0527 172.152C93.3096 172.093 92.1091 171.617 91.4515 170.722C91.1298 170.287 90.8512 169.925 90.6157 169.636C90.4047 169.334 90.2489 169.097 90.1483 168.926C89.4591 167.754 89.0254 166.514 88.8473 165.206C88.7137 163.806 88.8896 162.29 89.3748 160.657C89.84 159.102 90.4208 157.939 91.1172 157.168C91.7303 156.479 92.2321 156.019 92.6227 155.789C93.3794 155.344 94.2646 155.201 95.2783 155.361C96.664 155.761 97.723 156.584 98.4553 157.829C98.5271 157.951 98.6061 158.085 98.6923 158.232C98.7641 158.354 98.8237 158.483 98.8711 158.619C99.6479 160.331 99.9933 162.231 99.9073 164.318C99.8068 166.382 99.4429 168.025 98.8154 169.249C98.198 170.433 97.5354 171.234 96.8275 171.65C96.3393 171.937 95.7477 172.105 95.0527 172.152ZM132.309 201.049C130.576 200.951 129.38 200.455 128.723 199.561C128.387 199.101 128.101 198.727 127.865 198.439C127.654 198.136 127.491 197.887 127.376 197.691C126.701 196.544 126.294 195.321 126.155 194.023C126.021 192.623 126.197 191.107 126.683 189.474C127.168 187.842 127.729 186.674 128.367 185.97C129.019 185.291 129.528 184.843 129.894 184.628C130.675 184.169 131.567 184.038 132.571 184.236C133.928 184.588 134.98 185.398 135.726 186.668C135.798 186.79 135.877 186.924 135.963 187.07C136.035 187.192 136.095 187.322 136.142 187.458C136.919 189.17 137.264 191.069 137.178 193.157C137.078 195.22 136.714 196.864 136.087 198.087C135.445 199.286 134.77 200.094 134.062 200.51C133.525 200.826 132.941 201.006 132.309 201.049Z" fill="black"/>
<rect x="289.623" y="142.844" width="239" height="247" rx="10" transform="rotate(9.71837 289.623 142.844)" fill="#FFC700" fill-opacity="0.8"/>
<path d="M285.957 372.355C284.952 371.961 284.148 371.471 283.545 370.887C282.942 370.303 282.499 369.654 282.214 368.939C281.929 368.225 281.773 367.468 281.743 366.667C281.735 365.852 281.803 365.022 281.948 364.178C282.185 362.794 282.646 361.449 283.332 360.143C284.039 358.821 284.837 357.46 285.724 356.058C286.467 354.854 287.197 353.61 287.916 352.328C288.653 351.048 289.31 349.644 289.886 348.115C289.995 347.801 290.182 347.195 290.447 346.297C290.709 345.417 290.919 344.677 291.078 344.075C291.148 343.773 291.2 343.523 291.234 343.325C291.286 343.13 291.322 342.97 291.344 342.844C291.411 342.449 291.429 342.184 291.397 342.049C291.358 341.95 291.285 341.891 291.177 341.873C291.087 341.857 290.945 341.879 290.75 341.938C290.576 341.982 290.379 342.05 290.16 342.142C289.944 342.216 289.707 342.305 289.449 342.409C288.689 342.741 287.873 343.027 286.999 343.266C286.144 343.507 285.339 343.564 284.585 343.435C284.513 343.422 284.441 343.41 284.369 343.398C284.297 343.385 284.227 343.364 284.158 343.334C283.272 343.108 282.494 342.411 281.825 341.242C281.267 340.074 281.091 338.888 281.297 337.684C281.35 337.378 281.43 337.069 281.54 336.754C282.05 335.177 283.116 334.139 284.736 333.64C285.891 333.375 287.134 333.357 288.463 333.585C288.661 333.618 288.857 333.661 289.051 333.713C289.267 333.75 289.472 333.794 289.667 333.846C290.55 334.09 291.374 334.351 292.14 334.631C292.924 334.913 293.667 335.216 294.37 335.54C295.163 335.879 295.919 336.11 296.637 336.233L296.988 336.293C297.931 336.399 298.989 336.377 300.162 336.226C300.707 336.172 301.269 336.129 301.848 336.099C302.43 336.051 303.034 336.034 303.66 336.049C304.286 336.063 304.828 336.082 305.287 336.105C305.763 336.131 306.172 336.174 306.514 336.232C307.178 336.346 307.725 336.504 308.152 336.707C309.112 337.26 309.59 337.924 309.586 338.7C309.594 339.09 309.582 339.43 309.55 339.721C309.54 339.996 309.518 340.233 309.484 340.431C309.355 341.185 309.091 341.917 308.692 342.625C308.085 343.686 307.283 344.372 306.287 344.682C305.96 344.756 305.599 344.759 305.204 344.691C304.952 344.648 304.696 344.576 304.436 344.476C304.107 344.346 303.779 344.207 303.453 344.058C303.13 343.892 302.8 343.715 302.462 343.528C301.888 343.208 301.411 342.969 301.031 342.811C300.651 342.654 300.363 342.558 300.165 342.524C299.913 342.481 299.701 342.482 299.527 342.526C298.27 342.736 296.934 344.708 295.517 348.442C295.348 348.894 295.187 349.347 295.035 349.802C294.901 350.26 294.776 350.719 294.66 351.18C294.446 352.105 294.304 352.774 294.233 353.188C294.144 353.709 294.074 354.224 294.024 354.733C293.977 355.224 293.946 355.728 293.932 356.243C293.907 357.681 294.187 358.857 294.77 359.771C295.071 360.174 295.366 360.557 295.655 360.921C295.962 361.288 296.265 361.627 296.563 361.937C297.413 362.804 298.107 363.718 298.645 364.679C299.177 365.677 299.419 366.966 299.37 368.549L299.324 368.818C299.071 370.291 298.175 371.368 296.635 372.047C295.013 372.768 293.416 373.133 291.842 373.141C290.269 373.149 289.015 373.073 288.081 372.913C287.272 372.774 286.564 372.588 285.957 372.355ZM308.894 371.9C308.613 371.167 308.577 370.19 308.786 368.968C308.835 368.681 308.895 368.386 308.965 368.084C309.053 367.784 309.145 367.467 309.239 367.132C309.911 365.046 310.603 363.112 311.315 361.329C311.445 360.999 311.56 360.705 311.66 360.445C311.782 360.169 311.882 359.909 311.961 359.664C312.385 358.59 312.696 357.478 312.893 356.328L312.934 356.085C313.104 354.875 313.026 353.66 312.699 352.438C312.468 351.733 312.355 351.261 312.359 351.021C312.381 350.784 312.398 350.63 312.41 350.558C312.466 350.235 312.608 349.889 312.838 349.522C313.049 349.151 313.182 348.804 313.238 348.48C313.259 348.355 313.267 348.254 313.262 348.179C313.292 348 313.302 347.835 313.291 347.685C313.279 347.535 313.222 347.331 313.118 347.073C313.032 346.818 312.895 346.489 312.705 346.087C312.518 345.666 312.261 345.114 311.934 344.429C311.489 343.465 311.336 342.579 311.474 341.77C311.637 340.818 312.194 339.998 313.144 339.31C314.037 338.741 315.3 338.44 316.933 338.405C318.474 338.373 320.034 338.492 321.616 338.763L321.912 338.814C323.595 339.139 324.895 339.482 325.814 339.843C326.367 340.067 326.883 340.349 327.361 340.69C327.857 341.034 328.279 341.43 328.628 341.878C328.976 342.326 329.233 342.823 329.399 343.37C329.564 343.916 329.593 344.503 329.485 345.132C329.221 346.566 328.663 347.451 327.81 347.786C326.961 348.103 326.114 348.189 325.269 348.044C324.982 347.995 324.69 347.917 324.394 347.811C323.182 347.437 322.138 346.888 321.263 346.165C320.615 345.629 320.067 345.322 319.618 345.245C319.456 345.218 319.299 345.218 319.146 345.248C318.645 345.365 318.286 346.053 318.071 347.311L318.025 347.58C317.913 348.449 318.04 349.275 318.405 350.059C318.761 350.897 319.5 351.55 320.621 352.02C320.813 352.09 321.006 352.15 321.2 352.202C321.413 352.257 321.643 352.315 321.892 352.376C322.32 352.468 322.753 352.588 323.189 352.737C323.647 352.871 324.042 353.05 324.374 353.273C324.723 353.499 324.99 353.776 325.175 354.104C325.377 354.434 325.437 354.842 325.354 355.327C325.27 355.812 325.074 356.204 324.764 356.502C324.454 356.801 324.08 357.042 323.641 357.225C323.206 357.391 322.732 357.514 322.219 357.592C321.706 357.671 321.204 357.742 320.712 357.806C320.32 357.831 319.951 357.879 319.606 357.949C319.264 358.002 318.956 358.069 318.683 358.152C317.342 358.643 316.602 359.182 316.464 359.769C316.394 360.072 316.345 360.304 316.317 360.465C316.29 360.627 316.273 360.726 316.267 360.762C316.082 361.84 316.289 362.902 316.886 363.947C317.514 365.035 318.42 365.68 319.606 365.883C320.325 366.006 320.988 365.917 321.594 365.614C322.219 365.314 322.826 364.955 323.415 364.538C324.245 363.904 324.98 363.502 325.619 363.334C326.279 363.152 326.807 363.094 327.202 363.162C327.849 363.272 328.553 363.587 329.315 364.106C330.584 365.119 331.303 366.213 331.472 367.388C331.601 368.576 331.597 369.574 331.458 370.382C331.335 371.101 331.104 371.857 330.765 372.649C330.108 374.22 329.156 375.564 327.91 376.682C326.644 377.815 325.219 378.468 323.636 378.641C322.547 378.732 321.266 378.652 319.793 378.399C319.578 378.362 319.353 378.324 319.119 378.284C318.904 378.247 318.681 378.199 318.45 378.141C316.402 377.68 314.497 376.928 312.733 375.886C310.913 374.853 309.633 373.524 308.894 371.9ZM332.552 374.204C332.963 372.129 333.789 370.162 335.032 368.303C336.272 366.463 337.618 364.761 339.07 363.197C339.66 362.558 340.137 361.983 340.502 361.472C340.885 360.965 341.155 360.521 341.313 360.141C341.61 359.378 341.805 358.727 341.897 358.188C342.036 357.38 342.082 356.463 342.035 355.438C341.98 353.819 342.018 352.623 342.15 351.851C342.283 351.078 342.353 350.665 342.363 350.611C342.615 349.138 343.063 347.874 343.706 346.819C344.385 345.659 345.318 344.801 346.504 344.246C347.708 343.694 349.236 343.577 351.086 343.894C352.632 344.158 353.832 344.761 354.688 345.703C355.577 346.669 356.087 347.635 356.217 348.601C356.348 349.566 356.351 350.408 356.228 351.127C356.136 351.666 355.964 352.238 355.713 352.842C354.983 354.4 354.505 355.844 354.277 357.174C354.139 357.982 354.108 358.754 354.186 359.488C354.328 361.251 354.793 362.801 355.581 364.138C355.983 364.817 356.396 365.48 356.822 366.126C357.251 366.754 357.71 367.369 358.198 367.971C358.932 368.873 359.606 369.793 360.222 370.731C360.839 371.669 361.32 372.694 361.665 373.808C361.989 375.047 362.053 376.242 361.856 377.391C361.813 377.643 361.75 377.9 361.668 378.164C361.607 378.412 361.537 378.659 361.458 378.905C360.845 380.538 359.851 381.866 358.473 382.888C357.102 383.873 355.497 384.283 353.658 384.116L353.469 384.083C352.122 383.853 350.934 383.279 349.908 382.364C348.833 381.403 348.15 380.26 347.86 378.934C347.754 378.361 347.737 377.868 347.808 377.455C347.848 377.221 347.898 376.98 347.959 376.731C348.038 376.486 348.122 376.214 348.21 375.914C348.526 375.044 348.865 373.548 349.228 371.428C349.38 370.437 349.497 369.643 349.581 369.047C349.664 368.451 349.726 367.981 349.767 367.637C349.807 367.292 349.822 367.045 349.81 366.895C349.817 366.748 349.801 366.625 349.763 366.526C349.493 365.833 349.044 365.432 348.415 365.324C348.181 365.284 347.951 365.282 347.723 365.317C346.739 365.444 345.839 366.058 345.022 367.157C344.72 367.623 344.529 368.09 344.449 368.557C344.409 368.79 344.394 369.038 344.405 369.298C344.434 369.673 344.501 370.091 344.606 370.553C344.73 371.018 344.875 371.524 345.04 372.07C345.153 372.385 345.259 372.737 345.359 373.124C345.763 374.654 345.868 375.985 345.674 377.117C345.489 378.195 345.031 379.087 344.3 379.794C342.819 381.205 340.548 381.723 337.487 381.346L337.271 381.309C335.223 380.959 333.838 380.194 333.115 379.016C332.395 377.82 332.195 376.288 332.515 374.419L332.552 374.204ZM348.036 353.608C347.791 353.954 347.536 354.364 347.271 354.836C347.005 355.308 346.84 355.678 346.776 355.944C346.733 356.085 346.704 356.2 346.689 356.29C346.673 356.38 346.662 356.443 346.656 356.479C346.586 356.892 346.618 357.24 346.755 357.522C346.915 357.882 347.301 358.115 347.912 358.219C348.451 358.312 348.858 358.308 349.134 358.207C349.432 358.091 349.65 357.953 349.788 357.792C349.927 357.631 350.001 357.468 350.011 357.303C350.038 357.141 350.052 357.06 350.052 357.06C350.12 356.665 350.107 356.256 350.013 355.833C349.759 354.18 349.566 353.26 349.432 353.07C349.283 352.86 349.163 352.747 349.074 352.731C348.858 352.694 348.512 352.987 348.036 353.608ZM384.257 380.229C384.49 379.733 384.801 378.889 385.19 377.698C385.387 377.085 385.546 376.538 385.665 376.059C385.787 375.562 385.889 375.127 385.972 374.753L386.179 373.54C386.401 372.246 386.455 371.118 386.343 370.156C386.236 369.157 385.824 368.596 385.105 368.473L385.051 368.464C384.797 368.439 384.564 368.556 384.353 368.816C384.142 369.076 383.859 369.591 383.505 370.363C382.364 372.923 381.219 374.105 380.069 373.908C379.026 373.73 378.367 372.507 378.089 370.24C377.917 369.193 377.669 368.642 377.346 368.587C377.328 368.584 377.262 368.591 377.148 368.608C376.805 368.772 376.55 369.348 376.38 370.336C376.359 370.462 376.337 370.587 376.316 370.713C376.297 370.821 376.285 370.948 376.278 371.095C376.143 372.533 376.402 374.529 377.056 377.082C377.675 379.407 377.855 381.324 377.597 382.834C377.492 383.445 377.317 383.979 377.073 384.436C376.229 386.012 375.178 386.858 373.919 386.975C372.678 387.096 371.698 387.094 370.979 386.971C369.991 386.802 368.971 386.442 367.918 385.892C366.175 384.946 364.918 383.705 364.145 382.167C363.373 380.629 363.118 379.096 363.379 377.569C363.481 376.976 363.638 376.383 363.85 375.791C364.359 374.547 364.951 373.52 365.626 372.711C366.319 371.905 367.047 371.16 367.812 370.477C368.555 369.809 369.285 369.056 370.002 368.217C370.719 367.378 371.373 366.316 371.963 365.03C372.553 363.743 373.025 362.067 373.379 360.001C373.48 359.408 373.566 358.748 373.635 358.02C373.67 357.6 373.714 357.183 373.766 356.766C373.822 356.332 373.886 355.908 373.956 355.495C373.987 355.315 374.016 355.144 374.044 354.983C374.075 354.803 374.115 354.625 374.163 354.448C374.387 353.248 374.807 352.201 375.423 351.307C375.999 350.426 376.848 349.896 377.97 349.718C378.38 349.696 378.729 349.71 379.017 349.759C379.646 349.867 380.184 350.125 380.632 350.535C381.354 351.176 381.848 351.964 382.113 352.897C382.4 353.815 382.47 354.706 382.322 355.568L382.285 355.784C382.178 356.191 382.088 356.555 382.015 356.875C381.941 357.195 381.885 357.472 381.845 357.706C381.768 358.155 381.745 358.503 381.777 358.748C381.812 358.976 381.888 359.183 382.004 359.37C382.167 359.601 382.329 359.74 382.487 359.786C382.667 359.816 382.775 359.835 382.811 359.841C383.026 359.878 383.245 359.841 383.468 359.731C383.756 359.559 383.968 359.346 384.104 359.092C384.243 358.819 384.345 358.495 384.41 358.117C384.425 358.028 384.439 357.947 384.451 357.875C384.467 357.785 384.473 357.694 384.47 357.601L384.544 357.169C384.932 354.906 385.621 353.257 386.612 352.225C387.651 351.127 388.539 350.585 389.276 350.6C389.995 350.613 390.462 350.637 390.678 350.674C391.558 350.825 392.336 351.254 393.01 351.961C393.839 352.843 394.193 354.013 394.073 355.472L394.027 355.742C393.916 356.389 393.693 357.044 393.357 357.708C393.143 358.096 392.927 358.494 392.709 358.901C392.495 359.289 392.262 359.675 392.012 360.057C391.245 361.184 390.652 362.275 390.23 363.331C390.2 363.4 390.171 363.515 390.143 363.677C389.965 364.719 390.251 366.072 391.002 367.735C391.417 368.657 391.867 369.594 392.351 370.546C392.839 371.481 393.368 372.441 393.939 373.426C394.653 374.658 395.256 375.779 395.749 376.788C396.26 377.8 396.656 378.728 396.937 379.571C397.396 381.314 397.517 382.824 397.299 384.1C397.166 384.872 396.907 385.577 396.52 386.213C395.512 387.89 394.185 388.995 392.541 389.527C390.893 390.077 389.359 390.23 387.94 389.987C387.796 389.962 387.644 389.936 387.482 389.909C387.323 389.863 387.165 389.817 387.006 389.772C385.312 389.297 384.192 388.439 383.646 387.199C383.115 385.98 382.954 384.759 383.163 383.537C383.339 382.513 383.703 381.411 384.257 380.229Z" fill="black"/>
<path d="M331.249 233.495C328.892 231.483 327.565 229.589 327.265 227.814C326.924 226.117 326.87 224.585 327.104 223.218C327.324 221.934 327.733 220.639 328.33 219.333C328.551 218.882 328.758 218.343 328.952 217.716C329.173 217.093 329.409 216.386 329.659 215.596C330.099 214.033 330.398 212.792 330.556 211.87C330.752 210.726 330.855 209.623 330.864 208.561C330.91 206.615 330.203 205.46 328.743 205.095C327.821 204.937 327.168 205.4 326.781 206.483C326.352 207.645 326.054 208.715 325.887 209.691C325.834 209.999 325.777 210.334 325.715 210.696C325.685 211.036 325.653 211.39 325.619 211.758C325.535 212.749 325.482 213.731 325.459 214.704C325.464 215.682 325.499 216.65 325.565 217.61C325.6 218.075 325.591 218.548 325.538 219.027C325.512 219.511 325.459 219.991 325.378 220.465C325.134 221.889 324.634 223.383 323.877 224.949C322.604 227.518 320.966 229.45 318.962 230.745C316.917 232.118 314.75 232.609 312.461 232.217C312.321 232.193 312.168 232.167 312 232.138C311.833 232.11 311.668 232.067 311.505 232.01C308.256 230.85 306.108 229.046 305.062 226.597C304.021 224.12 303.68 221.835 304.038 219.741C304.196 218.82 304.447 217.944 304.79 217.112C305.91 214.603 307.454 212.382 309.422 210.449C311.391 208.516 313.408 206.721 315.474 205.064C318.095 203.013 320.136 201.078 321.596 199.259C322.145 198.405 322.484 197.601 322.613 196.848C322.751 196.038 322.699 195.253 322.456 194.493C322.189 193.701 321.869 192.884 321.496 192.045C321.123 191.205 320.677 190.367 320.159 189.532C319.563 188.481 319.012 187.424 318.504 186.36C318.03 185.274 317.699 184.183 317.513 183.088C317.402 181.891 317.423 180.845 317.576 179.952C317.83 178.473 318.435 177.284 319.394 176.385C320.993 174.934 323.146 174.441 325.854 174.905C328.561 175.369 330.369 176.138 331.277 177.213C332.161 178.255 332.585 179.305 332.548 180.361C332.459 181.381 332.36 182.211 332.25 182.853C332.174 183.3 332.081 183.758 331.972 184.228C331.867 184.67 331.746 185.123 331.609 185.588C331.467 186.081 331.34 186.576 331.226 187.074C331.112 187.571 331.014 188.058 330.933 188.532C330.899 188.728 330.866 188.923 330.832 189.118C330.799 189.314 330.779 189.512 330.774 189.712C330.651 191.099 330.787 191.898 331.182 192.109C331.544 192.343 331.809 192.475 331.977 192.504C332.451 192.585 332.922 192.35 333.39 191.798C333.826 191.269 334.134 190.474 334.316 189.413C334.354 189.19 334.381 188.95 334.396 188.694C334.444 188.415 334.478 188.134 334.498 187.85C334.517 186.732 334.607 185.699 334.77 184.75C335.133 182.629 335.888 180.905 337.035 179.578C338.241 178.406 339.767 177.633 341.612 177.259C343.481 176.918 345.113 176.867 346.509 177.106C346.732 177.145 346.953 177.197 347.172 177.263C347.423 177.306 347.658 177.361 347.876 177.427C349.694 178.054 350.685 179.23 350.85 180.953C350.854 181.097 350.841 181.253 350.813 181.421C350.812 181.593 350.799 181.749 350.776 181.888C350.608 182.865 350.161 183.881 349.435 184.934C348.933 185.682 348.371 186.447 347.749 187.231C347.154 188.02 346.48 188.853 345.726 189.73C345.646 189.86 345.553 189.987 345.445 190.112C345.337 190.238 345.23 190.363 345.122 190.488C344.612 191.119 344.123 191.711 343.655 192.262C343.219 192.791 342.805 193.281 342.412 193.731C340.788 195.492 339.777 196.785 339.378 197.607C338.96 198.369 338.708 199.001 338.622 199.503C338.488 200.285 338.538 201.17 338.771 202.158C339.192 203.724 340.139 205.998 341.61 208.98C342.289 210.389 342.96 211.754 343.624 213.074C344.294 214.367 344.965 215.645 345.64 216.91C346.249 218.049 346.754 219.041 347.156 219.885C347.585 220.734 347.926 221.425 348.18 221.957C349.222 224.262 349.693 226.21 349.593 227.802C349.497 229.366 349.416 230.343 349.349 230.734C348.952 233.051 347.754 235.015 345.754 236.626C344.427 237.663 342.726 238.033 340.651 237.735L340.483 237.706C336.994 237.108 333.916 235.705 331.249 233.495ZM356.533 240.627C354.581 239.776 353.68 238.831 353.829 237.794C353.887 237.286 353.926 236.891 353.946 236.607C353.994 236.328 354.023 236.16 354.032 236.104C354.352 234.234 355.113 232.31 356.314 230.332C357.557 228.275 358.719 226.52 359.801 225.068C359.881 224.938 359.956 224.836 360.026 224.761C360.101 224.659 360.176 224.557 360.251 224.455C362.429 221.467 364.527 218.694 366.546 216.138C368.596 213.558 370.605 211.144 372.57 208.894C373.749 207.545 374.833 206.251 375.821 205.012C376.809 203.773 377.717 202.578 378.547 201.428C379.348 200.272 380.122 199.025 380.868 197.688C381.614 196.35 382.349 194.91 383.073 193.367C383.553 192.243 384.072 191.226 384.63 190.316C385.188 189.405 385.774 188.586 386.387 187.858C387.614 186.402 389.072 185.689 390.762 185.72C390.962 185.725 391.146 185.742 391.313 185.771C391.513 185.777 391.711 185.796 391.907 185.83C393.861 186.164 395.088 187.05 395.589 188.486C395.819 189.157 395.862 189.912 395.719 190.749C395.494 192.061 394.833 193.571 393.736 195.28C391.81 198.139 389.824 200.672 387.78 202.88C385.904 204.943 384.038 207.281 382.182 209.894C380.678 212.136 379.185 214.395 377.703 216.669C376.222 218.944 374.729 221.289 373.223 223.703C372.867 224.274 372.513 224.831 372.161 225.374C371.81 225.918 371.472 226.463 371.148 227.011C370.595 227.893 369.971 228.85 369.278 229.88C368.617 230.887 367.869 231.981 367.035 233.159C365.4 235.494 363.694 237.4 361.918 238.877C360.166 240.387 358.55 241.016 357.07 240.762C356.819 240.719 356.64 240.674 356.533 240.627ZM365.618 197.145C364.324 195.975 363.715 194.836 363.789 193.728C363.824 193.188 363.845 192.732 363.851 192.36C363.886 191.992 363.919 191.711 363.953 191.515C364.182 190.175 364.651 188.948 365.359 187.834C366.16 186.678 367.273 185.633 368.697 184.699C370.056 183.811 371.25 183.298 372.28 183.158C373.193 183.027 373.873 183 374.32 183.076C375.185 183.224 375.953 183.686 376.625 184.462C377.425 185.662 377.703 186.974 377.46 188.398C377.436 188.537 377.409 188.691 377.381 188.858C377.357 188.998 377.319 189.135 377.267 189.27C376.756 191.079 375.794 192.753 374.381 194.292C372.973 195.804 371.635 196.825 370.366 197.354C369.13 197.861 368.107 198.045 367.297 197.906C366.739 197.811 366.179 197.557 365.618 197.145ZM375.433 243.261C374.172 242.068 373.579 240.917 373.654 239.81C373.694 239.242 373.717 238.772 373.723 238.399C373.757 238.032 373.794 237.736 373.832 237.513C374.057 236.201 374.535 235.004 375.266 233.923C376.067 232.767 377.18 231.722 378.604 230.788C380.028 229.854 381.211 229.323 382.152 229.197C383.088 229.099 383.766 229.086 384.184 229.158C385.078 229.311 385.844 229.786 386.483 230.586C387.292 231.73 387.573 233.028 387.324 234.479C387.3 234.619 387.274 234.772 387.245 234.94C387.221 235.079 387.184 235.217 387.132 235.351C386.621 237.16 385.659 238.834 384.246 240.374C382.838 241.885 381.499 242.906 380.231 243.436C378.967 243.938 377.93 244.119 377.12 243.981C376.506 243.875 375.944 243.635 375.433 243.261Z" fill="black"/>
</svg>
