<svg width="346" height="84" viewBox="0 0 346 84" fill="none" xmlns="http://www.w3.org/2000/svg">
<mask id="path-1-inside-1_41_931" fill="white">
<path fill-rule="evenodd" clip-rule="evenodd" d="M279.039 0L30 0C13.4315 0 0 13.4315 0 30V54C0 70.5685 13.4315 84 30 84H341C342.432 84 343.84 83.8997 345.219 83.7057C320.096 58.501 297.857 30.4202 279.039 0Z"/>
</mask>
<path fill-rule="evenodd" clip-rule="evenodd" d="M279.039 0L30 0C13.4315 0 0 13.4315 0 30V54C0 70.5685 13.4315 84 30 84H341C342.432 84 343.84 83.8997 345.219 83.7057C320.096 58.501 297.857 30.4202 279.039 0Z" fill="#EADB08"/>
<path d="M30 0V-5V0ZM279.039 0L283.291 -2.63043L281.825 -5L279.039 -5V0ZM345.219 83.7057L345.915 88.6569L355.823 87.2626L348.76 80.1759L345.219 83.7057ZM30 5L279.039 5V-5L30 -5L30 5ZM5 30C5 16.1929 16.1929 5 30 5V-5C10.67 -5 -5 10.67 -5 30H5ZM5 54V30H-5V54H5ZM30 79C16.1929 79 5 67.8071 5 54H-5C-5 73.33 10.67 89 30 89V79ZM341 79H30V89H341V79ZM344.522 78.7545C343.374 78.9161 342.198 79 341 79V89C342.666 89 344.307 88.8833 345.915 88.6569L344.522 78.7545ZM348.76 80.1759C323.906 55.2412 301.906 27.4618 283.291 -2.63043L274.787 2.63043C293.808 33.3785 316.286 61.7608 341.677 87.2355L348.76 80.1759Z" fill="black" mask="url(#path-1-inside-1_41_931)"/>
<path d="M48.2051 60.7314C47.0658 60.7314 46.0892 60.3245 45.2754 59.5107C44.4616 58.6969 44.0547 57.7204 44.0547 56.5811C43.9896 53.2445 43.957 50.4206 43.957 48.1094C43.957 44.2357 44.1117 40.6468 44.4209 37.3428L38.7324 37.2207C37.5768 37.2207 36.5921 36.8219 35.7783 36.0244C34.9808 35.2106 34.582 34.2259 34.582 33.0703C34.582 31.931 34.9808 30.9544 35.7783 30.1406C36.5921 29.3268 37.5768 28.9199 38.7324 28.9199L46.5205 29.1152C47.3018 28.4642 48.1969 28.1387 49.2061 28.1387C50.3128 28.1387 51.2568 28.5049 52.0381 29.2373L56.0664 29.335C57.222 29.335 58.1986 29.7419 58.9961 30.5557C59.8099 31.3532 60.2168 32.3298 60.2168 33.4854C60.2168 34.6247 59.8099 35.6012 58.9961 36.415C58.1986 37.2288 57.222 37.6357 56.0664 37.6357L52.7217 37.5381C52.445 40.305 52.2985 42.4697 52.2822 44.0322C52.266 45.5785 52.2578 46.6771 52.2578 47.3281C52.2578 48.793 52.2904 51.8773 52.3555 56.5811C52.3555 57.7204 51.9486 58.6969 51.1348 59.5107C50.321 60.3245 49.3444 60.7314 48.2051 60.7314ZM69.8604 60.7803C68.1514 60.7803 66.6458 60.3815 65.3438 59.584C64.1882 58.7702 63.3743 57.3786 62.9023 55.4092C62.3978 53.3747 62.1455 50.8031 62.1455 47.6943C62.1455 44.195 62.4385 39.8574 63.0244 34.6816L63.2686 32.3379C63.4801 31.3125 63.9928 30.4987 64.8066 29.8965C65.5553 29.3431 66.4098 29.0664 67.3701 29.0664H67.6875C68.1107 28.9199 68.6152 28.8467 69.2012 28.8467C72.082 28.6514 74.9303 28.4723 77.7461 28.3096C78.9017 28.3096 79.8783 28.6921 80.6758 29.457C81.4896 30.222 81.8965 31.1416 81.8965 32.2158C81.8965 33.3063 81.4896 34.234 80.6758 34.999C79.8783 35.764 78.9017 36.1465 77.7461 36.1465C75.5814 36.293 73.4085 36.4313 71.2275 36.5615L70.959 40.4434C72.6029 39.9062 74.6781 39.4587 77.1846 39.1006C78.3239 39.1006 79.3005 39.4831 80.1143 40.248C80.9281 41.013 81.335 41.9408 81.335 43.0312C81.335 44.1055 80.9281 45.0332 80.1143 45.8145C79.3005 46.5794 78.3239 46.9619 77.1846 46.9619C76.3545 47.1735 75.679 47.3525 75.1582 47.499C74.3932 47.7269 73.7178 47.9059 73.1318 48.0361C72.5622 48.1501 71.7646 48.2477 70.7393 48.3291C70.7393 49.8265 70.7718 51.332 70.8369 52.8457C72.9854 52.4876 76.5254 51.4134 81.457 49.623C81.7988 49.5579 82.1325 49.5254 82.458 49.5254C83.223 49.5254 84.0042 49.7533 84.8018 50.209C85.5993 50.6647 86.1527 51.4297 86.4619 52.5039C86.5433 52.8457 86.584 53.1712 86.584 53.4805C86.584 54.1966 86.3398 54.9372 85.8516 55.7021C85.3633 56.4508 84.5495 56.9717 83.4102 57.2646C82.9219 57.4274 82.3929 57.6146 81.8232 57.8262C76.7939 59.7956 72.8063 60.7803 69.8604 60.7803ZM96.9844 61.0732C95.5684 61.0732 94.2907 60.7152 93.1514 59.999C90.9704 58.4528 89.8799 54.3024 89.8799 47.5479C89.8799 44.0322 90.181 39.4505 90.7832 33.8027C90.8971 32.7936 90.9867 31.9391 91.0518 31.2393C91.2633 30.0837 91.8167 29.1885 92.7119 28.5537C93.4281 28.0329 94.2337 27.7725 95.1289 27.7725C96.5612 27.7725 97.6924 28.3503 98.5225 29.5059C99.027 30.222 99.2793 31.0195 99.2793 31.8984C99.2793 32.1263 99.263 32.3542 99.2305 32.582C98.7585 37.7253 98.5225 42.8522 98.5225 47.9629C98.5225 49.4766 98.5469 50.9902 98.5957 52.5039C100.142 52.097 102.095 51.3727 104.455 50.3311L105.554 49.8916C106.091 49.6963 106.62 49.5986 107.141 49.5986C108.915 49.5986 110.184 50.4613 110.949 52.1865C111.145 52.7236 111.242 53.2445 111.242 53.749C111.242 55.5719 110.371 56.8496 108.63 57.582C105.83 58.7702 103.82 59.5758 102.6 59.999C100.533 60.7152 98.6608 61.0732 96.9844 61.0732ZM122.106 60.7803C120.397 60.7803 118.892 60.3815 117.59 59.584C116.434 58.7702 115.62 57.3786 115.148 55.4092C114.644 53.3747 114.392 50.8031 114.392 47.6943C114.392 44.195 114.685 39.8574 115.271 34.6816L115.515 32.3379C115.726 31.3125 116.239 30.4987 117.053 29.8965C117.801 29.3431 118.656 29.0664 119.616 29.0664H119.934C120.357 28.9199 120.861 28.8467 121.447 28.8467C124.328 28.6514 127.176 28.4723 129.992 28.3096C131.148 28.3096 132.124 28.6921 132.922 29.457C133.736 30.222 134.143 31.1416 134.143 32.2158C134.143 33.3063 133.736 34.234 132.922 34.999C132.124 35.764 131.148 36.1465 129.992 36.1465C127.827 36.293 125.655 36.4313 123.474 36.5615L123.205 40.4434C124.849 39.9062 126.924 39.4587 129.431 39.1006C130.57 39.1006 131.547 39.4831 132.36 40.248C133.174 41.013 133.581 41.9408 133.581 43.0312C133.581 44.1055 133.174 45.0332 132.36 45.8145C131.547 46.5794 130.57 46.9619 129.431 46.9619C128.601 47.1735 127.925 47.3525 127.404 47.499C126.639 47.7269 125.964 47.9059 125.378 48.0361C124.808 48.1501 124.011 48.2477 122.985 48.3291C122.985 49.8265 123.018 51.332 123.083 52.8457C125.231 52.4876 128.771 51.4134 133.703 49.623C134.045 49.5579 134.379 49.5254 134.704 49.5254C135.469 49.5254 136.25 49.7533 137.048 50.209C137.845 50.6647 138.399 51.4297 138.708 52.5039C138.789 52.8457 138.83 53.1712 138.83 53.4805C138.83 54.1966 138.586 54.9372 138.098 55.7021C137.609 56.4508 136.796 56.9717 135.656 57.2646C135.168 57.4274 134.639 57.6146 134.069 57.8262C129.04 59.7956 125.052 60.7803 122.106 60.7803ZM164.392 63.8809C163.252 63.8809 162.276 63.474 161.462 62.6602C160.664 61.8464 160.266 60.8698 160.266 59.7305V59.3887C158.02 60.707 155.773 61.3662 153.527 61.3662C152.714 61.3662 151.509 61.1709 149.914 60.7803C148.319 60.3896 146.667 59.2422 144.958 57.3379C143.265 55.4173 142.085 53.1224 141.418 50.4531C141.076 49.0859 140.905 47.7025 140.905 46.3027C140.905 44.9193 141.149 43.1533 141.638 41.0049C142.126 38.8564 143.509 36.5208 145.788 33.998C148.083 31.4753 151.338 29.4163 155.554 27.8213C155.961 27.7236 156.351 27.6748 156.726 27.6748C157.425 27.6748 158.166 27.9027 158.947 28.3584C159.745 28.7979 160.314 29.5791 160.656 30.7021C160.754 31.0928 160.803 31.4671 160.803 31.8252C160.803 32.5413 160.575 33.2982 160.119 34.0957C159.68 34.8932 158.89 35.4629 157.751 35.8047C154.675 37.0254 152.486 38.653 151.184 40.6875C149.93 42.6569 149.304 44.6263 149.304 46.5957C149.304 46.6608 149.312 47.2223 149.328 48.2803C149.361 49.3382 149.857 50.4775 150.817 51.6982C151.501 52.5771 152.315 53.0166 153.259 53.0166C153.633 53.0166 154.276 52.8701 155.188 52.5771C156.099 52.2842 157.295 50.6729 158.776 47.7432C158.125 47.8896 157.621 47.9629 157.263 47.9629C156.449 47.9629 155.643 47.6943 154.846 47.1572C154.048 46.6201 153.519 45.7819 153.259 44.6426C153.21 44.3659 153.186 44.0892 153.186 43.8125C153.186 42.9824 153.454 42.1686 153.991 41.3711C154.528 40.5573 155.367 40.0202 156.506 39.7598C159.159 39.0762 160.754 38.6449 161.291 38.4658L165.246 37.2695C165.604 37.1882 165.962 37.1475 166.32 37.1475C167.053 37.1475 167.818 37.3835 168.615 37.8555C169.413 38.3275 169.974 39.125 170.3 40.248C170.381 40.6061 170.422 40.9561 170.422 41.2979C170.422 42.8766 169.73 44.0729 168.347 44.8867C168.509 45.7331 168.591 46.7422 168.591 47.9141L168.542 59.7305C168.542 60.8698 168.135 61.8464 167.321 62.6602C166.524 63.474 165.547 63.8809 164.392 63.8809ZM178.479 60.3896C177.323 60.3896 176.338 59.9827 175.524 59.1689C174.727 58.3551 174.328 57.3786 174.328 56.2393L174.23 54.0176C174.035 50.5671 173.938 47.6699 173.938 45.3262C173.938 36.765 175.004 31.695 177.136 30.1162C178.584 29.1885 179.895 28.6839 181.066 28.6025C182.238 28.5049 183.011 28.4561 183.386 28.4561C184.981 28.4561 186.535 28.7165 188.049 29.2373C189.904 29.8883 191.328 30.8568 192.321 32.1426C193.314 33.4121 193.811 34.8607 193.811 36.4883C193.811 36.9115 193.778 37.359 193.713 37.8311C193.42 40.0446 192.102 42.6569 189.758 45.668C190.669 46.2214 191.556 46.791 192.419 47.377C193.672 48.2396 195.056 49.1104 196.569 49.9893C197.611 50.5589 198.246 51.21 198.474 51.9424C198.701 52.6748 198.815 53.2363 198.815 53.627C198.815 54.278 198.653 54.929 198.327 55.5801C197.757 56.6055 197.106 57.2402 196.374 57.4844C195.658 57.7122 195.096 57.8262 194.689 57.8262C194.038 57.8262 193.387 57.6634 192.736 57.3379C191.369 56.5404 190.059 55.7103 188.806 54.8477C187.243 53.7409 185.55 52.6911 183.728 51.6982C183.272 51.4704 182.849 51.2344 182.458 50.9902L182.629 56.2393C182.629 57.3786 182.222 58.3551 181.408 59.1689C180.594 59.9827 179.618 60.3896 178.479 60.3896ZM182.409 41.3467C183.597 40.0609 184.525 38.6367 185.192 37.0742C184.737 36.9928 184.273 36.9521 183.801 36.9521C183.443 36.9521 183.085 36.9766 182.727 37.0254C182.564 38.2135 182.458 39.654 182.409 41.3467ZM223.498 62.2207L223.083 62.1963C221.911 62.0335 220.975 61.5127 220.275 60.6338C219.657 59.8525 219.348 58.9411 219.348 57.8994L219.372 57.46L218.859 54.6279C217.655 54.7744 214.839 55.0186 210.412 55.3604C210.266 55.8486 210.119 56.3125 209.973 56.752C209.826 57.1914 209.696 57.5902 209.582 57.9482C209.175 59.0876 208.475 59.9095 207.482 60.4141C206.913 60.707 206.319 60.8535 205.7 60.8535C205.244 60.8535 204.781 60.7721 204.309 60.6094C203.202 60.1862 202.412 59.4619 201.94 58.4365C201.664 57.8506 201.525 57.2321 201.525 56.5811C201.525 56.109 201.599 55.6289 201.745 55.1406C203.552 49.5742 204.927 45.4564 205.871 42.7871C208.817 34.5189 211.674 29.8314 214.44 28.7246C214.782 28.5781 215.132 28.5049 215.49 28.5049C216.743 28.5049 218.135 29.5303 219.665 31.5811C221.211 33.6156 222.912 37.7415 224.768 43.959C225.939 47.8652 226.631 50.5101 226.843 51.8936L227.624 58.3633C227.478 59.5677 226.973 60.528 226.11 61.2441C225.362 61.8952 224.491 62.2207 223.498 62.2207ZM213.293 46.8398L216.882 46.5225C216.394 44.8786 215.856 43.2428 215.271 41.6152C214.603 43.2591 213.944 45.0007 213.293 46.8398ZM235.729 60.5361C234.981 60.5361 234.2 60.3001 233.386 59.8281C232.588 59.3398 232.035 58.526 231.726 57.3867C231.628 56.4915 231.538 54.807 231.457 52.333C231.424 51.4541 231.408 50.5345 231.408 49.5742C231.408 47.8327 231.465 45.7005 231.579 43.1777C231.709 40.6549 232.084 38.0508 232.702 35.3652C233.337 32.6797 234.313 30.6777 235.632 29.3594C236.364 28.627 237.235 28.2607 238.244 28.2607C239.058 28.2607 239.961 28.4967 240.954 28.9688C242.565 29.8477 244.266 32.5007 246.057 36.9277C247.701 35.3815 249.442 34.0062 251.281 32.8018C253.137 31.5811 254.903 30.7754 256.579 30.3848C257.1 30.2708 257.588 30.2139 258.044 30.2139C259.118 30.2139 260.144 30.5964 261.12 31.3613C262.097 32.1263 262.707 33.8597 262.951 36.5615C263.195 40.1585 263.317 43.8206 263.317 47.5479C263.334 49.2568 263.358 50.9495 263.391 52.626C263.391 53.6676 263.049 54.5954 262.365 55.4092C261.568 56.3206 260.534 56.7764 259.265 56.7764C258.223 56.7764 257.295 56.4346 256.481 55.751C255.684 55.0511 255.228 54.1152 255.114 52.9434C255.082 51.5599 255.065 49.8346 255.065 47.7676C255.065 45.0169 255.017 42.4779 254.919 40.1504C252.543 41.6803 250.524 43.6416 248.864 46.0342C247.399 48.1012 246 49.1348 244.665 49.1348C242.842 49.1348 241.125 47.3932 239.514 43.9102C239.449 45.0658 239.416 46.2214 239.416 47.377C239.416 49.4277 239.538 52.1133 239.782 55.4336C239.864 55.7917 239.904 56.1335 239.904 56.459C239.904 57.224 239.66 58.0052 239.172 58.8027C238.684 59.584 237.87 60.1292 236.73 60.4385C236.389 60.5036 236.055 60.5361 235.729 60.5361Z" fill="black"/>
</svg>
