<svg width="121" height="51" viewBox="0 0 121 51" fill="none" xmlns="http://www.w3.org/2000/svg">
<rect x="0.5" y="0.5" width="120" height="50" rx="25" fill="black" stroke="black"/>
<path d="M49.7357 25.075C51.0607 26.35 51.5607 27.45 51.5607 29.05C51.5607 30.5 50.9857 31.775 49.8857 32.775C48.8107 33.775 48.0357 34 45.8857 34H41.5107C40.3107 34 39.7607 33.825 39.1607 33.175C38.8357 32.825 38.5857 32.325 38.4857 31.875C38.4607 31.675 38.4357 31.475 38.4357 30.4V20.95V20.15C38.4607 18.5 39.6357 17.325 41.2607 17.325H43.6107C45.3857 17.325 45.9857 17.375 46.6607 17.525C48.9607 18.075 50.5107 20.075 50.5107 22.525C50.5107 23.475 50.3357 24.05 49.7357 25.075ZM43.9107 22.5V23.775H44.5607C45.3357 23.775 45.5857 23.6 45.5857 23.15C45.5857 22.675 45.2857 22.5 44.5107 22.5H43.9107ZM43.9107 27.525V28.875H44.8357C45.7857 28.875 46.0357 28.725 46.0357 28.225C46.0357 27.725 45.6857 27.525 44.8107 27.525H43.9107ZM59.191 20.45V27.025C59.191 28.225 59.741 28.95 60.691 28.95C61.641 28.95 62.191 28.25 62.191 27.1V20.45C62.191 19.225 62.291 18.85 62.791 18.25C63.316 17.6 64.091 17.2 64.916 17.2C65.716 17.2 66.566 17.6 67.066 18.2C67.591 18.825 67.716 19.325 67.716 20.825V26.75C67.716 29 67.166 30.625 65.966 31.975C64.616 33.525 62.666 34.425 60.691 34.425C58.466 34.425 56.341 33.325 55.016 31.525C53.991 30.125 53.666 28.95 53.666 26.75V20.875C53.666 19.3 53.766 18.9 54.241 18.275C54.766 17.625 55.616 17.2 56.416 17.2C57.166 17.2 57.941 17.55 58.441 18.075C58.991 18.65 59.191 19.275 59.191 20.45ZM79.0746 27.1V30.725C79.0746 31.75 78.9496 32.275 78.5996 32.825C78.1246 33.625 77.1996 34.125 76.2996 34.125C75.3996 34.125 74.4996 33.625 73.9996 32.85C73.6496 32.275 73.5246 31.8 73.5246 30.725V27.025L69.8246 21.55C69.4496 21.025 69.2746 20.45 69.2746 19.875C69.2746 18.4 70.4996 17.2 71.9996 17.2C72.9496 17.2 73.8246 17.675 74.4246 18.5L76.3496 21.075L78.3746 18.425C78.9996 17.65 79.8246 17.2 80.6996 17.2C82.1996 17.2 83.4496 18.45 83.4496 19.925C83.4496 20.475 83.2746 21.025 82.9496 21.525L79.0746 27.1Z" fill="#56D6E5"/>
</svg>
