<svg width="283" height="285" viewBox="0 0 283 285" fill="none" xmlns="http://www.w3.org/2000/svg">
<rect x="46.6232" y="0.843994" width="239" height="247" rx="10" transform="rotate(9.71837 46.6232 0.843994)" fill="#FFC700" fill-opacity="0.8"/>
<path d="M42.9568 230.355C41.9516 229.961 41.1477 229.471 40.5449 228.887C39.9421 228.303 39.4985 227.654 39.214 226.939C38.9295 226.225 38.7725 225.468 38.7432 224.667C38.7348 223.852 38.803 223.022 38.9476 222.178C39.1845 220.794 39.6461 219.449 40.3322 218.143C41.0394 216.821 41.8366 215.46 42.724 214.058C43.4666 212.854 44.1974 211.61 44.9164 210.328C45.6534 209.048 46.3099 207.644 46.8862 206.115C46.9955 205.801 47.1825 205.195 47.4472 204.297C47.7089 203.417 47.919 202.677 48.0775 202.075C48.1478 201.773 48.1999 201.523 48.2337 201.325C48.2855 201.13 48.3222 200.97 48.3438 200.844C48.4115 200.449 48.4291 200.184 48.3968 200.049C48.3582 199.95 48.2851 199.891 48.1773 199.873C48.0874 199.857 47.945 199.879 47.7499 199.938C47.5759 199.982 47.3793 200.05 47.1601 200.142C46.944 200.216 46.7069 200.305 46.4487 200.409C45.689 200.741 44.8725 201.027 43.9994 201.266C43.1442 201.507 42.3393 201.564 41.5846 201.435C41.5128 201.422 41.4409 201.41 41.369 201.398C41.2972 201.385 41.2268 201.364 41.158 201.334C40.272 201.108 39.4944 200.411 38.8253 199.242C38.2671 198.074 38.0911 196.888 38.2973 195.684C38.3496 195.378 38.4304 195.069 38.5397 194.754C39.0502 193.177 40.1157 192.139 41.7363 191.64C42.8913 191.375 44.1336 191.357 45.4632 191.585C45.6608 191.618 45.8569 191.661 46.0515 191.713C46.2671 191.75 46.4722 191.794 46.6668 191.846C47.5497 192.09 48.3742 192.351 49.1402 192.631C49.9241 192.913 50.6675 193.216 51.3703 193.54C52.163 193.879 52.9186 194.11 53.6373 194.233L53.9877 194.293C54.9312 194.399 55.9892 194.377 57.1617 194.226C57.7074 194.172 58.2695 194.129 58.848 194.099C59.4296 194.051 60.0336 194.034 60.6599 194.049C61.2861 194.063 61.8285 194.082 62.2869 194.105C62.7633 194.131 63.1722 194.174 63.5136 194.232C64.1784 194.346 64.7246 194.504 65.1523 194.707C66.1118 195.26 66.5898 195.924 66.5863 196.7C66.5936 197.09 66.5816 197.43 66.5503 197.721C66.5401 197.996 66.5181 198.233 66.4842 198.431C66.355 199.185 66.091 199.917 65.6922 200.625C65.0851 201.686 64.2834 202.372 63.287 202.682C62.96 202.756 62.5989 202.759 62.2036 202.691C61.9521 202.648 61.6961 202.576 61.4359 202.476C61.1068 202.346 60.7792 202.207 60.4532 202.058C60.1303 201.892 59.8 201.715 59.4621 201.528C58.8882 201.208 58.4112 200.969 58.0313 200.811C57.6514 200.654 57.3627 200.558 57.165 200.524C56.9135 200.481 56.7007 200.482 56.5267 200.526C55.27 200.736 53.9336 202.708 52.5174 206.442C52.3475 206.894 52.1867 207.347 52.0348 207.802C51.9009 208.26 51.776 208.719 51.66 209.18C51.4461 210.105 51.3038 210.774 51.233 211.188C51.1437 211.709 51.074 212.224 51.0238 212.733C50.9766 213.224 50.9459 213.728 50.9316 214.243C50.9072 215.681 51.1867 216.857 51.77 217.771C52.0709 218.174 52.3658 218.557 52.6549 218.921C52.9619 219.288 53.2646 219.627 53.5629 219.937C54.4132 220.804 55.1073 221.718 55.6455 222.679C56.1775 223.677 56.419 224.966 56.3699 226.549L56.3238 226.818C56.0714 228.291 55.1751 229.368 53.6346 230.047C52.0131 230.768 50.4156 231.133 48.8422 231.141C47.2688 231.149 46.0149 231.073 45.0806 230.913C44.2721 230.774 43.5642 230.588 42.9568 230.355ZM65.894 229.9C65.6126 229.167 65.5765 228.19 65.7858 226.968C65.835 226.681 65.8948 226.386 65.965 226.084C66.0533 225.784 66.1446 225.467 66.239 225.132C66.9106 223.046 67.6026 221.112 68.3148 219.329C68.4452 218.999 68.5604 218.705 68.6604 218.445C68.7815 218.169 68.8816 217.909 68.9606 217.664C69.385 216.59 69.6956 215.478 69.8925 214.328L69.9341 214.085C70.1043 212.875 70.0258 211.66 69.6987 210.438C69.468 209.733 69.3548 209.261 69.3588 209.021C69.3809 208.784 69.3981 208.63 69.4104 208.558C69.4658 208.235 69.6081 207.889 69.8376 207.522C70.049 207.151 70.1824 206.804 70.2378 206.48C70.2593 206.355 70.2673 206.254 70.2616 206.179C70.2924 206 70.3021 205.835 70.2908 205.685C70.2795 205.535 70.222 205.331 70.1182 205.073C70.0324 204.818 69.8946 204.489 69.7046 204.087C69.5176 203.666 69.2609 203.114 68.9343 202.429C68.4891 201.465 68.3357 200.579 68.4741 199.77C68.6372 198.818 69.1938 197.998 70.1439 197.31C71.0365 196.741 72.2996 196.44 73.933 196.405C75.4736 196.373 77.0344 196.492 78.6156 196.763L78.912 196.814C80.5948 197.139 81.8954 197.482 82.8139 197.843C83.3673 198.067 83.883 198.349 84.361 198.69C84.8569 199.034 85.2792 199.43 85.6278 199.878C85.9765 200.326 86.2335 200.823 86.3989 201.37C86.5643 201.916 86.5931 202.503 86.4854 203.132C86.2213 204.566 85.6629 205.451 84.8103 205.786C83.9607 206.103 83.1137 206.189 82.2692 206.044C81.9818 205.995 81.6899 205.917 81.3937 205.811C80.1816 205.437 79.1382 204.888 78.2633 204.165C77.6154 203.629 77.0668 203.322 76.6176 203.245C76.4559 203.218 76.2986 203.218 76.1456 203.248C75.6446 203.365 75.2864 204.053 75.071 205.311L75.0249 205.58C74.9131 206.449 75.0398 207.275 75.4049 208.059C75.7608 208.897 76.4996 209.55 77.6213 210.02C77.8128 210.09 78.0058 210.15 78.2004 210.202C78.4129 210.257 78.6434 210.315 78.8919 210.376C79.32 210.468 79.7525 210.588 80.1894 210.737C80.6473 210.871 81.0421 211.05 81.3738 211.273C81.7234 211.499 81.9904 211.776 82.1747 212.104C82.3771 212.434 82.4367 212.842 82.3536 213.327C82.2705 213.812 82.0739 214.204 81.7639 214.502C81.4539 214.801 81.0797 215.042 80.6414 215.225C80.2061 215.391 79.732 215.514 79.2192 215.592C78.7064 215.671 78.2041 215.742 77.7123 215.806C77.3196 215.831 76.9508 215.879 76.6058 215.949C76.2639 216.002 75.9565 216.069 75.6834 216.152C74.3416 216.643 73.6019 217.182 73.4644 217.769C73.3942 218.072 73.3452 218.304 73.3175 218.465C73.2898 218.627 73.2729 218.726 73.2667 218.762C73.0821 219.84 73.2886 220.902 73.8863 221.947C74.5138 223.035 75.4205 223.68 76.6063 223.883C77.325 224.006 77.9877 223.917 78.5945 223.614C79.2192 223.314 79.8261 222.955 80.4154 222.538C81.2454 221.904 81.9799 221.502 82.619 221.334C83.2791 221.152 83.8068 221.094 84.2021 221.162C84.8489 221.272 85.5533 221.587 86.3152 222.106C87.5843 223.119 88.3032 224.213 88.4718 225.388C88.6013 226.576 88.5969 227.574 88.4584 228.382C88.3353 229.101 88.1042 229.857 87.765 230.649C87.1076 232.22 86.1561 233.564 84.9104 234.682C83.6436 235.815 82.2187 236.468 80.6356 236.641C79.5473 236.732 78.2665 236.652 76.7931 236.399C76.5775 236.362 76.3529 236.324 76.1194 236.284C75.9037 236.247 75.6807 236.199 75.4502 236.141C73.4024 235.68 71.4967 234.928 69.7332 233.886C67.9127 232.853 66.633 231.524 65.894 229.9ZM89.5517 232.204C89.9625 230.129 90.7895 228.162 92.0325 226.303C93.2724 224.463 94.6181 222.761 96.0696 221.197C96.6599 220.558 97.1374 219.983 97.5024 219.472C97.8852 218.965 98.1554 218.521 98.313 218.141C98.6101 217.378 98.8048 216.727 98.8971 216.188C99.0356 215.38 99.0816 214.463 99.0353 213.438C98.9796 211.819 99.0179 210.623 99.1502 209.851C99.2825 209.078 99.3533 208.665 99.3625 208.611C99.6148 207.138 100.063 205.874 100.706 204.819C101.385 203.659 102.318 202.801 103.504 202.246C104.708 201.694 106.236 201.577 108.086 201.894C109.632 202.158 110.832 202.761 111.688 203.703C112.577 204.669 113.087 205.635 113.217 206.601C113.348 207.566 113.351 208.408 113.228 209.127C113.136 209.666 112.964 210.238 112.713 210.842C111.983 212.4 111.505 213.844 111.277 215.174C111.139 215.982 111.108 216.754 111.186 217.488C111.328 219.251 111.793 220.801 112.581 222.138C112.983 222.817 113.396 223.48 113.822 224.126C114.251 224.754 114.71 225.369 115.198 225.971C115.932 226.873 116.606 227.793 117.222 228.731C117.839 229.669 118.32 230.694 118.665 231.808C118.989 233.047 119.053 234.242 118.856 235.391C118.813 235.643 118.75 235.9 118.668 236.164C118.607 236.412 118.537 236.659 118.458 236.905C117.845 238.538 116.851 239.866 115.473 240.888C114.102 241.873 112.497 242.283 110.658 242.116L110.469 242.083C109.122 241.853 107.934 241.279 106.908 240.364C105.833 239.403 105.15 238.26 104.86 236.934C104.754 236.361 104.737 235.868 104.808 235.455C104.848 235.221 104.898 234.98 104.959 234.731C105.038 234.486 105.122 234.214 105.21 233.914C105.526 233.044 105.865 231.548 106.228 229.428C106.38 228.437 106.497 227.643 106.581 227.047C106.664 226.451 106.726 225.981 106.767 225.637C106.807 225.292 106.822 225.045 106.81 224.895C106.817 224.748 106.801 224.625 106.763 224.526C106.493 223.833 106.044 223.432 105.415 223.324C105.181 223.284 104.951 223.282 104.723 223.317C103.739 223.444 102.839 224.058 102.022 225.157C101.72 225.623 101.529 226.09 101.449 226.557C101.409 226.79 101.394 227.038 101.405 227.298C101.434 227.673 101.501 228.091 101.606 228.553C101.73 229.018 101.875 229.524 102.04 230.07C102.153 230.385 102.259 230.737 102.359 231.124C102.763 232.654 102.868 233.985 102.674 235.117C102.489 236.195 102.031 237.087 101.3 237.794C99.8192 239.205 97.5482 239.723 94.4871 239.346L94.2715 239.309C92.2232 238.959 90.8375 238.194 90.1145 237.016C89.3946 235.82 89.1947 234.288 89.5147 232.419L89.5517 232.204ZM105.036 211.608C104.791 211.954 104.536 212.364 104.271 212.836C104.005 213.308 103.84 213.678 103.776 213.944C103.733 214.085 103.704 214.2 103.689 214.29C103.673 214.38 103.662 214.443 103.656 214.479C103.586 214.892 103.618 215.24 103.755 215.522C103.915 215.882 104.301 216.115 104.912 216.219C105.451 216.312 105.858 216.308 106.134 216.207C106.432 216.091 106.65 215.953 106.788 215.792C106.927 215.631 107.001 215.468 107.011 215.303C107.038 215.141 107.052 215.06 107.052 215.06C107.12 214.665 107.107 214.256 107.013 213.833C106.759 212.18 106.566 211.26 106.432 211.07C106.283 210.86 106.163 210.747 106.074 210.731C105.858 210.694 105.512 210.987 105.036 211.608ZM141.257 238.229C141.49 237.733 141.801 236.889 142.19 235.698C142.387 235.085 142.546 234.538 142.665 234.059C142.787 233.562 142.889 233.127 142.972 232.753L143.179 231.54C143.401 230.246 143.455 229.118 143.343 228.156C143.236 227.157 142.824 226.596 142.105 226.473L142.051 226.464C141.797 226.439 141.564 226.556 141.353 226.816C141.142 227.076 140.859 227.591 140.505 228.363C139.364 230.923 138.219 232.105 137.069 231.908C136.026 231.73 135.367 230.507 135.089 228.24C134.917 227.193 134.669 226.642 134.346 226.587C134.328 226.584 134.262 226.591 134.148 226.608C133.805 226.772 133.55 227.348 133.38 228.336C133.359 228.462 133.337 228.587 133.316 228.713C133.297 228.821 133.285 228.948 133.278 229.095C133.143 230.533 133.402 232.529 134.056 235.082C134.675 237.407 134.855 239.324 134.597 240.834C134.492 241.445 134.317 241.979 134.073 242.436C133.229 244.012 132.178 244.858 130.919 244.975C129.678 245.096 128.698 245.094 127.979 244.971C126.991 244.802 125.971 244.442 124.918 243.892C123.175 242.946 121.918 241.705 121.145 240.167C120.373 238.629 120.118 237.096 120.379 235.569C120.481 234.976 120.638 234.383 120.85 233.791C121.359 232.547 121.951 231.52 122.626 230.711C123.319 229.905 124.047 229.16 124.812 228.477C125.555 227.809 126.285 227.056 127.002 226.217C127.719 225.378 128.373 224.316 128.963 223.03C129.553 221.743 130.025 220.067 130.379 218.001C130.48 217.408 130.566 216.748 130.635 216.02C130.67 215.6 130.714 215.183 130.766 214.766C130.822 214.332 130.886 213.908 130.956 213.495C130.987 213.315 131.016 213.144 131.044 212.983C131.075 212.803 131.115 212.625 131.163 212.448C131.387 211.248 131.807 210.201 132.423 209.307C132.999 208.426 133.848 207.896 134.97 207.718C135.38 207.696 135.729 207.71 136.017 207.759C136.646 207.867 137.184 208.125 137.632 208.535C138.354 209.176 138.848 209.964 139.113 210.897C139.4 211.815 139.47 212.706 139.322 213.568L139.285 213.784C139.178 214.191 139.088 214.555 139.015 214.875C138.941 215.195 138.885 215.472 138.845 215.706C138.768 216.155 138.745 216.503 138.777 216.748C138.812 216.976 138.888 217.183 139.004 217.37C139.167 217.601 139.329 217.74 139.487 217.786C139.667 217.816 139.775 217.835 139.811 217.841C140.026 217.878 140.245 217.841 140.468 217.731C140.756 217.559 140.968 217.346 141.104 217.092C141.243 216.819 141.345 216.495 141.41 216.117C141.425 216.028 141.439 215.947 141.451 215.875C141.467 215.785 141.473 215.694 141.47 215.601L141.544 215.169C141.932 212.906 142.621 211.257 143.612 210.225C144.651 209.127 145.539 208.585 146.276 208.6C146.995 208.613 147.462 208.637 147.678 208.674C148.558 208.825 149.336 209.254 150.01 209.961C150.839 210.843 151.193 212.013 151.073 213.472L151.027 213.742C150.916 214.389 150.693 215.044 150.357 215.708C150.143 216.096 149.927 216.494 149.709 216.901C149.495 217.289 149.262 217.675 149.012 218.057C148.245 219.184 147.652 220.275 147.23 221.331C147.2 221.4 147.171 221.515 147.143 221.677C146.965 222.719 147.251 224.072 148.002 225.735C148.417 226.657 148.867 227.594 149.351 228.546C149.839 229.481 150.368 230.441 150.939 231.426C151.653 232.658 152.256 233.779 152.749 234.788C153.26 235.8 153.656 236.728 153.937 237.571C154.396 239.314 154.517 240.824 154.299 242.1C154.166 242.872 153.907 243.577 153.52 244.213C152.512 245.89 151.185 246.995 149.541 247.527C147.893 248.077 146.359 248.23 144.94 247.987C144.796 247.962 144.644 247.936 144.482 247.909C144.323 247.863 144.165 247.817 144.006 247.772C142.312 247.297 141.192 246.439 140.646 245.199C140.115 243.98 139.954 242.759 140.163 241.537C140.339 240.513 140.703 239.411 141.257 238.229Z" fill="black"/>
<path d="M88.2486 91.4954C85.8924 89.4828 84.5646 87.5889 84.2653 85.8137C83.9237 84.1174 83.87 82.5854 84.1043 81.2176C84.3242 79.9336 84.7327 78.6387 85.3298 77.3331C85.5507 76.8825 85.7579 76.3433 85.9516 75.7156C86.1732 75.0927 86.4092 74.3861 86.6595 73.5957C87.0995 72.0333 87.3983 70.7915 87.5561 69.8704C87.7521 68.7259 87.8548 67.6229 87.8642 66.5614C87.9101 64.6155 87.2029 63.46 85.7426 63.0949C84.8215 62.9372 84.1676 63.3998 83.781 64.4829C83.3521 65.645 83.054 66.7145 82.8867 67.6915C82.8341 67.9986 82.7767 68.3335 82.7146 68.6964C82.6851 69.0361 82.6533 69.3898 82.619 69.7575C82.5354 70.7488 82.4822 71.731 82.4592 72.704C82.4641 73.6817 82.4994 74.6503 82.5649 75.6097C82.6001 76.0755 82.591 76.548 82.5377 77.0273C82.5122 77.5114 82.4589 77.9907 82.3776 78.4653C82.1338 79.8889 81.6336 81.3835 80.877 82.9491C79.6038 85.5181 77.9656 87.45 75.9624 88.7447C73.917 90.1183 71.7498 90.6092 69.4609 90.2172C69.3213 90.1933 69.1678 90.167 69.0003 90.1383C68.8328 90.1096 68.6677 90.067 68.505 90.0104C65.2557 88.8505 63.1081 87.0461 62.0622 84.597C61.021 82.1201 60.6797 79.8349 61.0383 77.7413C61.196 76.8202 61.4467 75.9437 61.7903 75.1118C62.9096 72.6026 64.4537 70.3817 66.4224 68.449C68.3912 66.5163 70.4082 64.7212 72.4735 63.0636C75.0946 61.0127 77.1356 59.078 78.5963 57.2595C79.1449 56.4052 79.4837 55.6013 79.6128 54.8476C79.7514 54.0381 79.6991 53.2533 79.4557 52.4933C79.1892 51.7007 78.8693 50.8845 78.4959 50.0447C78.1225 49.205 77.677 48.3673 77.1592 47.5316C76.5633 46.4813 76.0117 45.4243 75.5043 44.3605C75.0296 43.2736 74.6992 42.1826 74.5132 41.0876C74.4022 39.8906 74.4232 38.8454 74.5761 37.9522C74.8295 36.4728 75.4354 35.2836 76.3939 34.3846C77.9927 32.9345 80.1459 32.4412 82.8536 32.905C85.5612 33.3687 87.3689 34.138 88.2767 35.2129C89.1613 36.2551 89.5849 37.3046 89.5476 38.3613C89.4592 39.3805 89.3601 40.2112 89.2501 40.8532C89.1736 41.2998 89.0808 41.758 88.9716 42.2278C88.8672 42.6696 88.7465 43.123 88.6094 43.588C88.4675 44.0809 88.3396 44.5762 88.2256 45.0738C88.1116 45.5715 88.014 46.0576 87.9327 46.5321C87.8993 46.7275 87.8658 46.9229 87.8324 47.1183C87.7989 47.3137 87.7794 47.5115 87.7738 47.7117C87.6512 49.0986 87.7873 49.8977 88.1821 50.109C88.5443 50.3434 88.8091 50.4749 88.9765 50.5036C89.4511 50.5849 89.9224 50.3495 90.3904 49.7976C90.8258 49.2688 91.1343 48.474 91.316 47.4132C91.3542 47.1899 91.3809 46.9503 91.396 46.6943C91.4438 46.4151 91.4777 46.1336 91.4975 45.8497C91.5165 44.7324 91.6073 43.6992 91.7698 42.7501C92.1331 40.6286 92.8881 38.9047 94.0347 37.5782C95.2412 36.4057 96.7671 35.6326 98.6125 35.2591C100.481 34.9183 102.113 34.8674 103.509 35.1064C103.732 35.1446 103.953 35.1968 104.172 35.263C104.423 35.306 104.658 35.3606 104.876 35.4268C106.694 36.0541 107.685 37.2295 107.85 38.9529C107.854 39.0973 107.841 39.2532 107.813 39.4207C107.812 39.5929 107.799 39.7488 107.776 39.8884C107.608 40.8654 107.161 41.8807 106.435 42.9343C105.933 43.6817 105.371 44.4474 104.749 45.2315C104.154 46.0203 103.48 46.853 102.726 47.7296C102.646 47.8596 102.553 47.9873 102.445 48.1125C102.337 48.2377 102.23 48.3629 102.122 48.4882C101.612 49.1191 101.123 49.7105 100.655 50.2625C100.219 50.7913 99.805 51.2806 99.4119 51.7305C97.7884 53.4925 96.777 54.7846 96.3775 55.6069C95.9598 56.3686 95.7078 57.0007 95.6218 57.5032C95.4879 58.2847 95.5375 59.1696 95.7706 60.1577C96.1919 61.7239 97.1385 63.9979 98.6104 66.9796C99.2885 68.3887 99.9599 69.7535 100.624 71.0741C101.294 72.3668 101.965 73.6455 102.64 74.9102C103.249 76.049 103.754 77.0406 104.156 77.8851C104.585 78.7344 104.926 79.425 105.18 79.9569C106.222 82.2616 106.693 84.2099 106.593 85.8017C106.497 87.3657 106.416 88.343 106.349 88.7338C105.952 91.0507 104.754 93.0148 102.754 94.6261C101.427 95.6631 99.726 96.0326 97.6508 95.7346L97.4834 95.706C93.9941 95.1084 90.9159 93.7048 88.2486 91.4954ZM113.533 98.6271C111.581 97.7756 110.68 96.8311 110.829 95.7935C110.887 95.2863 110.926 94.8907 110.946 94.6068C110.994 94.3277 111.023 94.1602 111.032 94.1044C111.352 92.2341 112.113 90.31 113.314 88.332C114.557 86.275 115.719 84.5202 116.801 83.0678C116.881 82.9378 116.956 82.8357 117.026 82.7615C117.101 82.6594 117.176 82.5573 117.251 82.4552C119.429 79.4666 121.527 76.6941 123.546 74.1377C125.596 71.5582 127.605 69.1438 129.57 66.8945C130.749 65.5449 131.833 64.2507 132.821 63.012C133.809 61.7733 134.717 60.5785 135.547 59.4275C136.348 58.2718 137.122 57.0252 137.868 55.6876C138.614 54.35 139.349 52.91 140.073 51.3675C140.553 50.2429 141.072 49.2256 141.63 48.3155C142.188 47.4055 142.774 46.5863 143.387 45.8581C144.614 44.4016 146.072 43.6888 147.762 43.7196C147.962 43.7252 148.146 43.7423 148.313 43.771C148.513 43.7765 148.711 43.7961 148.907 43.8295C150.861 44.1642 152.088 45.0496 152.589 46.4859C152.819 47.1573 152.862 47.9118 152.719 48.7492C152.494 50.0611 151.833 51.5714 150.736 53.2798C148.81 56.1392 146.824 58.6725 144.78 60.8795C142.904 62.943 141.038 65.2812 139.182 67.8942C137.678 70.1363 136.185 72.3947 134.703 74.6694C133.222 76.9442 131.729 79.2887 130.223 81.7031C129.867 82.2741 129.513 82.8313 129.161 83.3744C128.81 83.9176 128.472 84.4632 128.148 85.0111C127.595 85.8932 126.971 86.8496 126.278 87.8801C125.617 88.8874 124.869 89.9806 124.035 91.1594C122.4 93.494 120.694 95.4 118.918 96.8773C117.166 98.3872 115.55 99.0155 114.07 98.7622C113.819 98.7192 113.64 98.6741 113.533 98.6271ZM122.618 55.1445C121.324 53.9748 120.715 52.836 120.789 51.7283C120.824 51.1883 120.845 50.7322 120.851 50.3597C120.886 49.9921 120.919 49.7105 120.953 49.5151C121.182 48.1753 121.651 46.9482 122.359 45.834C123.16 44.6782 124.273 43.6333 125.697 42.6992C127.056 41.8113 128.25 41.2975 129.28 41.1578C130.193 41.0269 130.873 40.9996 131.32 41.0761C132.185 41.2243 132.953 41.6864 133.625 42.4622C134.425 43.6624 134.703 44.9742 134.46 46.3979C134.436 46.5374 134.409 46.691 134.381 46.8584C134.357 46.998 134.319 47.1352 134.267 47.27C133.756 49.0788 132.794 50.753 131.381 52.2924C129.973 53.8039 128.635 54.8246 127.366 55.3543C126.13 55.8609 125.107 56.0449 124.297 55.9063C123.739 55.8107 123.179 55.5568 122.618 55.1445ZM132.433 101.261C131.172 100.068 130.579 98.9174 130.654 97.8097C130.694 97.2418 130.717 96.7717 130.723 96.3992C130.757 96.0316 130.794 95.7361 130.832 95.5128C131.057 94.2008 131.535 93.0041 132.266 91.9225C133.067 90.7668 134.18 89.7219 135.604 88.7877C137.028 87.8536 138.211 87.3235 139.152 87.1973C140.088 87.0991 140.766 87.0858 141.184 87.1575C142.078 87.3105 142.844 87.7865 143.483 88.5855C144.292 89.7298 144.573 91.0277 144.324 92.4793C144.3 92.6188 144.274 92.7724 144.245 92.9398C144.221 93.0794 144.184 93.2166 144.132 93.3514C143.621 95.1602 142.659 96.8344 141.246 98.3738C139.838 99.8853 138.499 100.906 137.231 101.436C135.967 101.938 134.93 102.119 134.12 101.981C133.506 101.875 132.944 101.635 132.433 101.261Z" fill="black"/>
</svg>
