<svg width="70" height="19" viewBox="0 0 70 19" fill="none" xmlns="http://www.w3.org/2000/svg">
<path d="M6.14434 12.225V14.575C6.11934 15.95 6.04434 16.3 5.66934 16.9C5.16934 17.675 4.31934 18.125 3.39434 18.125C2.44434 18.125 1.59434 17.675 1.09434 16.9C0.719336 16.3 0.619336 15.825 0.619336 14.575V4.525C0.619336 3.35 0.744336 2.85 1.19434 2.275C1.71934 1.6 2.51934 1.2 3.36934 1.2C4.21934 1.2 5.09434 1.625 5.59434 2.275C6.04434 2.875 6.14434 3.225 6.14434 4.65V7H9.49434V4.725C9.49434 3.4 9.59434 2.9 10.0693 2.275C10.5693 1.6 11.3443 1.2 12.1943 1.2C13.0443 1.2 13.8943 1.6 14.3943 2.25C14.8193 2.8 14.9943 3.45 14.9943 4.525V14.625C14.9943 15.775 14.8943 16.225 14.5443 16.8C14.0443 17.625 13.1693 18.125 12.2193 18.125C11.3443 18.125 10.5193 17.725 10.0193 17.025C9.59434 16.425 9.49434 15.95 9.49434 14.625V12.225H6.14434ZM17.1121 9.575C17.1121 4.775 21.0121 0.924999 25.8871 0.924999C30.7621 0.924999 34.6871 4.825 34.6871 9.65C34.6871 14.475 30.7371 18.425 25.9121 18.425C21.0121 18.425 17.1121 14.5 17.1121 9.575ZM22.6371 9.65C22.6371 11.475 24.1121 12.975 25.9121 12.975C27.7121 12.975 29.1871 11.475 29.1871 9.675C29.1871 7.9 27.7121 6.45 25.9121 6.45C24.1121 6.45 22.6371 7.875 22.6371 9.65ZM45.976 8.575L48.751 2.675C49.176 1.8 50.151 1.2 51.176 1.2C51.851 1.2 52.601 1.5 53.076 1.95C53.551 2.4 53.776 2.875 53.926 3.775L55.826 14.525C55.901 14.875 55.926 15.2 55.926 15.45C55.926 16.95 54.726 18.125 53.226 18.125C51.826 18.125 50.726 17.275 50.501 16.025L49.876 12.9L48.801 15.85C48.251 17.35 47.276 18.125 45.976 18.125C44.626 18.125 43.751 17.425 43.176 15.875L42.076 12.9L41.626 15.55C41.351 17.15 40.301 18.125 38.876 18.125C37.251 18.125 36.101 16.875 36.101 15.125C36.101 14.9 36.126 14.675 36.151 14.45L38.051 3.775C38.326 2.175 39.326 1.2 40.751 1.2C41.926 1.2 43.026 1.925 43.501 3.05L45.976 8.575ZM63.2965 12.85H65.8215C67.0215 12.85 67.5465 13 68.1215 13.475C68.6965 13.975 69.0215 14.675 69.0215 15.425C69.0215 16.2 68.6715 16.95 68.1215 17.425C67.5715 17.875 67.0965 18 65.8465 18H61.5715C60.2965 18 59.9465 17.95 59.4715 17.775C58.6215 17.425 58.0715 16.75 57.8965 15.775C57.8215 15.425 57.7965 15.275 57.7965 14.125V5.075C57.7965 3.675 57.8215 3.5 58.0465 2.975C58.2715 2.35 58.7965 1.85 59.3715 1.6C59.9965 1.35 60.1215 1.325 61.7465 1.325H65.0465C66.6215 1.325 66.7715 1.35 67.1465 1.45C68.2965 1.75 69.0465 2.7 69.0465 3.85C69.0465 4.65 68.7215 5.4 68.1465 5.875C67.6465 6.3 67.0715 6.475 66.0465 6.475H63.2965V7.625H65.4715C66.8215 7.625 67.6965 8.425 67.6965 9.6C67.6965 10.225 67.4215 10.8 66.9715 11.175C66.5465 11.5 66.1465 11.6 65.2715 11.6H63.2965V12.85Z" fill="black"/>
</svg>
