<svg width="161" height="19" viewBox="0 0 161 19" fill="none" xmlns="http://www.w3.org/2000/svg">
<path d="M5.20859 6.45H3.73359C2.78359 6.45 2.15859 6.225 1.65859 5.725C1.15859 5.2 0.883594 4.575 0.883594 3.9C0.883594 2.95 1.50859 1.95 2.30859 1.6C2.88359 1.35 3.10859 1.325 5.28359 1.325H10.8336C12.3836 1.325 12.3836 1.325 12.7086 1.375C14.0336 1.55 14.9586 2.575 14.9586 3.875C14.9586 4.6 14.6086 5.35 14.0586 5.85C13.6336 6.25 12.9336 6.45 11.9336 6.45H10.7086V14.75C10.7086 15.75 10.5836 16.3 10.2336 16.875C9.73359 17.675 8.90859 18.125 7.95859 18.125C7.03359 18.125 6.20859 17.7 5.68359 16.975C5.30859 16.4 5.20859 15.925 5.20859 14.8V6.45ZM16.2244 9.575C16.2244 4.775 20.1244 0.924999 24.9994 0.924999C29.8744 0.924999 33.7994 4.825 33.7994 9.65C33.7994 14.475 29.8494 18.425 25.0244 18.425C20.1244 18.425 16.2244 14.5 16.2244 9.575ZM21.7494 9.65C21.7494 11.475 23.2244 12.975 25.0244 12.975C26.8244 12.975 28.2994 11.475 28.2994 9.675C28.2994 7.9 26.8244 6.45 25.0244 6.45C23.2244 6.45 21.7494 7.875 21.7494 9.65ZM41.4633 6.975L44.5133 2.475C45.0633 1.65 45.8633 1.2 46.7883 1.2C48.2883 1.2 49.5633 2.475 49.5633 3.95C49.5633 4.475 49.4133 5 49.1383 5.4L46.3383 9.475L49.7383 13.825C50.0883 14.25 50.2633 14.75 50.2633 15.325C50.2633 16.85 49.0133 18.125 47.5133 18.125C46.7383 18.125 45.9883 17.8 45.5883 17.3L41.4633 12.075V14.95C41.4633 16.875 40.3633 18.125 38.7133 18.125C36.9883 18.125 35.9133 16.9 35.9133 14.975V4.275C35.9133 2.45 37.0133 1.2 38.6633 1.2C39.4633 1.2 40.2383 1.55 40.7383 2.125C41.2633 2.675 41.4633 3.3 41.4633 4.3V6.975ZM57.4527 12.85H59.9777C61.1777 12.85 61.7027 13 62.2777 13.475C62.8527 13.975 63.1777 14.675 63.1777 15.425C63.1777 16.2 62.8277 16.95 62.2777 17.425C61.7277 17.875 61.2527 18 60.0027 18H55.7277C54.4527 18 54.1027 17.95 53.6277 17.775C52.7777 17.425 52.2277 16.75 52.0527 15.775C51.9777 15.425 51.9527 15.275 51.9527 14.125V5.075C51.9527 3.675 51.9777 3.5 52.2027 2.975C52.4277 2.35 52.9527 1.85 53.5277 1.6C54.1527 1.35 54.2777 1.325 55.9027 1.325H59.2027C60.7777 1.325 60.9277 1.35 61.3027 1.45C62.4527 1.75 63.2027 2.7 63.2027 3.85C63.2027 4.65 62.8777 5.4 62.3027 5.875C61.8027 6.3 61.2277 6.475 60.2027 6.475H57.4527V7.625H59.6277C60.9777 7.625 61.8527 8.425 61.8527 9.6C61.8527 10.225 61.5777 10.8 61.1277 11.175C60.7027 11.5 60.3027 11.6 59.4277 11.6H57.4527V12.85ZM74.4369 7.675V4.575C74.4369 3.475 74.5369 2.975 74.9369 2.4C75.4119 1.675 76.2869 1.2 77.1869 1.2C78.0119 1.2 78.7619 1.575 79.2869 2.2C79.7619 2.8 79.9369 3.375 79.9369 4.4V14.6C79.9369 15.925 79.8119 16.475 79.3369 17.1C78.8369 17.75 78.0369 18.125 77.1869 18.125C76.3119 18.125 75.5869 17.75 75.0119 17L70.6619 11.425V14.925C70.6619 16.025 70.5119 16.525 70.0369 17.125C69.5119 17.75 68.7369 18.125 67.9119 18.125C67.0619 18.125 66.2369 17.725 65.7119 17.05C65.2619 16.425 65.1369 15.925 65.1369 14.7V4.15C65.1369 2.375 66.2869 1.2 68.0119 1.2C68.8119 1.2 69.4369 1.525 70.0619 2.3L74.4369 7.675ZM82.0691 9.575C82.0691 4.775 85.9691 0.924999 90.8441 0.924999C95.7191 0.924999 99.6441 4.825 99.6441 9.65C99.6441 14.475 95.6941 18.425 90.8691 18.425C85.9691 18.425 82.0691 14.5 82.0691 9.575ZM87.5941 9.65C87.5941 11.475 89.0691 12.975 90.8691 12.975C92.6691 12.975 94.1441 11.475 94.1441 9.675C94.1441 7.9 92.6691 6.45 90.8691 6.45C89.0691 6.45 87.5941 7.875 87.5941 9.65ZM110.933 8.575L113.708 2.675C114.133 1.8 115.108 1.2 116.133 1.2C116.808 1.2 117.558 1.5 118.033 1.95C118.508 2.4 118.733 2.875 118.883 3.775L120.783 14.525C120.858 14.875 120.883 15.2 120.883 15.45C120.883 16.95 119.683 18.125 118.183 18.125C116.783 18.125 115.683 17.275 115.458 16.025L114.833 12.9L113.758 15.85C113.208 17.35 112.233 18.125 110.933 18.125C109.583 18.125 108.708 17.425 108.133 15.875L107.033 12.9L106.583 15.55C106.308 17.15 105.258 18.125 103.833 18.125C102.208 18.125 101.058 16.875 101.058 15.125C101.058 14.9 101.083 14.675 101.108 14.45L103.008 3.775C103.283 2.175 104.283 1.2 105.708 1.2C106.883 1.2 107.983 1.925 108.458 3.05L110.933 8.575ZM128.279 4.625V14.95C128.279 16 128.079 16.65 127.579 17.2C127.054 17.775 126.254 18.125 125.529 18.125C124.779 18.125 123.954 17.775 123.479 17.25C122.954 16.675 122.779 16.1 122.779 14.95V4.625C122.779 3.225 122.904 2.725 123.479 2.1C123.979 1.525 124.704 1.2 125.504 1.2C126.304 1.2 127.054 1.525 127.554 2.075C128.104 2.7 128.279 3.275 128.279 4.625ZM146.835 13.15C146.835 14.15 146.21 15.2 145.035 16.225C143.41 17.625 141.335 18.425 139.21 18.425C134.335 18.425 130.385 14.525 130.385 9.7C130.385 4.85 134.36 0.924999 139.235 0.924999C141.26 0.924999 143.21 1.625 144.81 2.95C146.16 4.025 146.835 5.15 146.835 6.25C146.835 7.75 145.61 9 144.085 9C143.435 9 142.735 8.725 142.36 8.325L141.56 7.45C140.96 6.8 140.085 6.45 139.185 6.45C137.36 6.45 135.91 7.875 135.91 9.7C135.91 11.5 137.36 12.95 139.16 12.95C140.06 12.95 140.96 12.55 141.61 11.85L142.185 11.25C142.635 10.775 143.385 10.45 144.085 10.45C145.535 10.45 146.835 11.725 146.835 13.15ZM154.555 18.425C151.005 18.425 148.28 16.575 148.28 14.2C148.28 12.8 149.38 11.7 150.78 11.7C151.455 11.7 152.03 11.925 152.73 12.5C153.93 13.425 154.08 13.525 154.48 13.525C154.905 13.525 155.18 13.225 155.18 12.8C155.18 12.5 155.055 12.3 154.755 12.1C154.605 12 154.53 11.95 153.655 11.625C153.205 11.475 152.755 11.325 152.305 11.15C149.88 10.3 148.68 8.725 148.68 6.4C148.68 3.15 151.18 0.924999 154.805 0.924999C157.805 0.924999 160.155 2.525 160.155 4.575C160.155 5.9 159.255 6.85 158.005 6.85C157.255 6.85 156.655 6.6 155.73 5.9C155.155 5.425 154.88 5.3 154.58 5.3C154.23 5.3 153.93 5.6 153.93 5.95C153.93 6.45 154.28 6.675 155.58 7.1C157.005 7.525 158.355 8.2 159.13 8.85C160.155 9.7 160.805 11.2 160.805 12.775C160.805 14.275 160.23 15.725 159.23 16.75C158.105 17.875 156.605 18.425 154.555 18.425Z" fill="black"/>
</svg>
